G04 (created by PCBNEW (2013-07-07 BZR 4022)-stable) date 2015-08-26 18:09:03*
%MOIN*%
G04 Gerber Fmt 3.4, Leading zero omitted, Abs format*
%FSLAX34Y34*%
G01*
G70*
G90*
G04 APERTURE LIST*
%ADD10C,0.00590551*%
%ADD11C,0.011811*%
%ADD12C,0.005*%
%ADD13C,0.012*%
%ADD14C,4.72441e-006*%
%ADD15C,0.008*%
%ADD16C,0.0047*%
%ADD17C,0.015*%
%ADD18C,0.01*%
%ADD19C,0.006*%
%ADD20C,0.0026*%
%ADD21C,0.004*%
%ADD22C,0.002*%
%ADD23C,0.00393701*%
%ADD24C,0.0059*%
%ADD25C,0.0045*%
%ADD26C,0.00787402*%
%ADD27C,0.00334646*%
%ADD28C,0.0161417*%
%ADD29C,0.055*%
%ADD30R,0.055X0.055*%
%ADD31R,0.0098X0.075*%
%ADD32R,0.0165X0.0579*%
%ADD33R,0.0787X0.0078*%
%ADD34R,0.06X0.01*%
%ADD35R,0.01X0.06*%
%ADD36R,0.07X0.11*%
%ADD37R,0.025X0.045*%
%ADD38R,0.045X0.025*%
%ADD39R,0.1X0.015*%
%ADD40R,0.015X0.1*%
%ADD41R,0.06X0.06*%
%ADD42C,0.06*%
%ADD43R,0.015X0.05*%
%ADD44R,0.0472X0.0472*%
%ADD45R,0.42X0.35*%
%ADD46R,0.07X0.09*%
%ADD47R,0.0768X0.0984*%
%ADD48R,0.016X0.05*%
%ADD49R,0.05X0.016*%
%ADD50C,0.0472441*%
%ADD51R,0.0472441X0.0472441*%
%ADD52C,0.11811*%
%ADD53C,0.28189*%
%ADD54C,0.019685*%
G04 APERTURE END LIST*
G54D10*
G54D11*
X23200Y-13836D02*
X23369Y-13893D01*
X23650Y-13893D01*
X23762Y-13836D01*
X23819Y-13780D01*
X23875Y-13668D01*
X23875Y-13555D01*
X23819Y-13443D01*
X23762Y-13386D01*
X23650Y-13330D01*
X23425Y-13274D01*
X23312Y-13218D01*
X23256Y-13161D01*
X23200Y-13049D01*
X23200Y-12936D01*
X23256Y-12824D01*
X23312Y-12768D01*
X23425Y-12711D01*
X23706Y-12711D01*
X23875Y-12768D01*
X24325Y-13555D02*
X24887Y-13555D01*
X24212Y-13893D02*
X24606Y-12711D01*
X25000Y-13893D01*
X25393Y-13893D02*
X25393Y-12711D01*
X26068Y-13893D02*
X25562Y-13218D01*
X26068Y-12711D02*
X25393Y-13386D01*
X26574Y-12711D02*
X26574Y-13668D01*
X26631Y-13780D01*
X26687Y-13836D01*
X26799Y-13893D01*
X27024Y-13893D01*
X27137Y-13836D01*
X27193Y-13780D01*
X27249Y-13668D01*
X27249Y-12711D01*
X28487Y-13893D02*
X28093Y-13330D01*
X27812Y-13893D02*
X27812Y-12711D01*
X28262Y-12711D01*
X28374Y-12768D01*
X28430Y-12824D01*
X28487Y-12936D01*
X28487Y-13105D01*
X28430Y-13218D01*
X28374Y-13274D01*
X28262Y-13330D01*
X27812Y-13330D01*
X28937Y-13555D02*
X29499Y-13555D01*
X28824Y-13893D02*
X29218Y-12711D01*
X29612Y-13893D01*
X64549Y-12653D02*
X64549Y-11471D01*
X64830Y-11471D01*
X64999Y-11528D01*
X65112Y-11640D01*
X65168Y-11753D01*
X65224Y-11978D01*
X65224Y-12146D01*
X65168Y-12371D01*
X65112Y-12484D01*
X64999Y-12596D01*
X64830Y-12653D01*
X64549Y-12653D01*
X66180Y-12596D02*
X66068Y-12653D01*
X65843Y-12653D01*
X65730Y-12596D01*
X65674Y-12484D01*
X65674Y-12034D01*
X65730Y-11921D01*
X65843Y-11865D01*
X66068Y-11865D01*
X66180Y-11921D01*
X66236Y-12034D01*
X66236Y-12146D01*
X65674Y-12259D01*
X67249Y-12596D02*
X67136Y-12653D01*
X66911Y-12653D01*
X66799Y-12596D01*
X66743Y-12540D01*
X66686Y-12428D01*
X66686Y-12090D01*
X66743Y-11978D01*
X66799Y-11921D01*
X66911Y-11865D01*
X67136Y-11865D01*
X67249Y-11921D01*
X68205Y-12596D02*
X68092Y-12653D01*
X67868Y-12653D01*
X67755Y-12596D01*
X67699Y-12484D01*
X67699Y-12034D01*
X67755Y-11921D01*
X67868Y-11865D01*
X68092Y-11865D01*
X68205Y-11921D01*
X68261Y-12034D01*
X68261Y-12146D01*
X67699Y-12259D01*
X68936Y-12653D02*
X68824Y-12596D01*
X68767Y-12484D01*
X68767Y-11471D01*
X69836Y-12596D02*
X69724Y-12653D01*
X69499Y-12653D01*
X69386Y-12596D01*
X69330Y-12484D01*
X69330Y-12034D01*
X69386Y-11921D01*
X69499Y-11865D01*
X69724Y-11865D01*
X69836Y-11921D01*
X69892Y-12034D01*
X69892Y-12146D01*
X69330Y-12259D01*
X70398Y-12653D02*
X70398Y-11865D01*
X70398Y-12090D02*
X70455Y-11978D01*
X70511Y-11921D01*
X70623Y-11865D01*
X70736Y-11865D01*
X71636Y-12653D02*
X71636Y-12034D01*
X71580Y-11921D01*
X71467Y-11865D01*
X71242Y-11865D01*
X71130Y-11921D01*
X71636Y-12596D02*
X71523Y-12653D01*
X71242Y-12653D01*
X71130Y-12596D01*
X71073Y-12484D01*
X71073Y-12371D01*
X71130Y-12259D01*
X71242Y-12203D01*
X71523Y-12203D01*
X71636Y-12146D01*
X72030Y-11865D02*
X72479Y-11865D01*
X72198Y-11471D02*
X72198Y-12484D01*
X72254Y-12596D01*
X72367Y-12653D01*
X72479Y-12653D01*
X73042Y-12653D02*
X72929Y-12596D01*
X72873Y-12540D01*
X72817Y-12428D01*
X72817Y-12090D01*
X72873Y-11978D01*
X72929Y-11921D01*
X73042Y-11865D01*
X73211Y-11865D01*
X73323Y-11921D01*
X73379Y-11978D01*
X73436Y-12090D01*
X73436Y-12428D01*
X73379Y-12540D01*
X73323Y-12596D01*
X73211Y-12653D01*
X73042Y-12653D01*
X73942Y-12653D02*
X73942Y-11865D01*
X73942Y-12090D02*
X73998Y-11978D01*
X74054Y-11921D01*
X74167Y-11865D01*
X74279Y-11865D01*
X76079Y-11865D02*
X76079Y-12653D01*
X75798Y-11415D02*
X75517Y-12259D01*
X76248Y-12259D01*
X76923Y-11471D02*
X77035Y-11471D01*
X77148Y-11528D01*
X77204Y-11584D01*
X77260Y-11696D01*
X77316Y-11921D01*
X77316Y-12203D01*
X77260Y-12428D01*
X77204Y-12540D01*
X77148Y-12596D01*
X77035Y-12653D01*
X76923Y-12653D01*
X76810Y-12596D01*
X76754Y-12540D01*
X76698Y-12428D01*
X76641Y-12203D01*
X76641Y-11921D01*
X76698Y-11696D01*
X76754Y-11584D01*
X76810Y-11528D01*
X76923Y-11471D01*
X77710Y-11471D02*
X78441Y-11471D01*
X78047Y-11921D01*
X78216Y-11921D01*
X78329Y-11978D01*
X78385Y-12034D01*
X78441Y-12146D01*
X78441Y-12428D01*
X78385Y-12540D01*
X78329Y-12596D01*
X78216Y-12653D01*
X77879Y-12653D01*
X77766Y-12596D01*
X77710Y-12540D01*
X79172Y-11471D02*
X79285Y-11471D01*
X79397Y-11528D01*
X79454Y-11584D01*
X79510Y-11696D01*
X79566Y-11921D01*
X79566Y-12203D01*
X79510Y-12428D01*
X79454Y-12540D01*
X79397Y-12596D01*
X79285Y-12653D01*
X79172Y-12653D01*
X79060Y-12596D01*
X79004Y-12540D01*
X78947Y-12428D01*
X78891Y-12203D01*
X78891Y-11921D01*
X78947Y-11696D01*
X79004Y-11584D01*
X79060Y-11528D01*
X79172Y-11471D01*
X67643Y-14424D02*
X67643Y-13243D01*
X68092Y-13243D01*
X68205Y-13299D01*
X68261Y-13356D01*
X68317Y-13468D01*
X68317Y-13637D01*
X68261Y-13749D01*
X68205Y-13806D01*
X68092Y-13862D01*
X67643Y-13862D01*
X68824Y-14424D02*
X68824Y-13637D01*
X68824Y-13862D02*
X68880Y-13749D01*
X68936Y-13693D01*
X69049Y-13637D01*
X69161Y-13637D01*
X69724Y-14424D02*
X69611Y-14368D01*
X69555Y-14312D01*
X69499Y-14199D01*
X69499Y-13862D01*
X69555Y-13749D01*
X69611Y-13693D01*
X69724Y-13637D01*
X69892Y-13637D01*
X70005Y-13693D01*
X70061Y-13749D01*
X70117Y-13862D01*
X70117Y-14199D01*
X70061Y-14312D01*
X70005Y-14368D01*
X69892Y-14424D01*
X69724Y-14424D01*
X70455Y-13637D02*
X70905Y-13637D01*
X70623Y-13243D02*
X70623Y-14255D01*
X70680Y-14368D01*
X70792Y-14424D01*
X70905Y-14424D01*
X71467Y-14424D02*
X71355Y-14368D01*
X71298Y-14312D01*
X71242Y-14199D01*
X71242Y-13862D01*
X71298Y-13749D01*
X71355Y-13693D01*
X71467Y-13637D01*
X71636Y-13637D01*
X71748Y-13693D01*
X71805Y-13749D01*
X71861Y-13862D01*
X71861Y-14199D01*
X71805Y-14312D01*
X71748Y-14368D01*
X71636Y-14424D01*
X71467Y-14424D01*
X73154Y-13637D02*
X73436Y-14424D01*
X73717Y-13637D01*
X74785Y-14424D02*
X74110Y-14424D01*
X74448Y-14424D02*
X74448Y-13243D01*
X74335Y-13412D01*
X74223Y-13524D01*
X74110Y-13581D01*
X75292Y-14312D02*
X75348Y-14368D01*
X75292Y-14424D01*
X75235Y-14368D01*
X75292Y-14312D01*
X75292Y-14424D01*
X76079Y-13243D02*
X76191Y-13243D01*
X76304Y-13299D01*
X76360Y-13356D01*
X76416Y-13468D01*
X76473Y-13693D01*
X76473Y-13974D01*
X76416Y-14199D01*
X76360Y-14312D01*
X76304Y-14368D01*
X76191Y-14424D01*
X76079Y-14424D01*
X75967Y-14368D01*
X75910Y-14312D01*
X75854Y-14199D01*
X75798Y-13974D01*
X75798Y-13693D01*
X75854Y-13468D01*
X75910Y-13356D01*
X75967Y-13299D01*
X76079Y-13243D01*
G54D12*
X84621Y-27330D02*
X84581Y-27369D01*
X84542Y-27369D02*
X84621Y-27291D01*
X84621Y-27212D02*
X84463Y-27369D01*
X84502Y-27369D02*
X84621Y-27251D01*
X84621Y-27369D02*
X82258Y-27369D01*
X82258Y-27369D02*
X82258Y-24220D01*
X82258Y-24220D02*
X84621Y-24220D01*
X84621Y-24220D02*
X84621Y-27369D01*
X84699Y-26976D02*
X84699Y-27448D01*
X84699Y-27448D02*
X84227Y-27448D01*
X84463Y-27015D02*
G75*
G03X84463Y-27015I-196J0D01*
G74*
G01*
X84542Y-27369D02*
X84621Y-27172D01*
X70128Y-27320D02*
X70088Y-27359D01*
X70049Y-27359D02*
X70128Y-27281D01*
X70128Y-27202D02*
X69970Y-27359D01*
X70009Y-27359D02*
X70128Y-27241D01*
X70128Y-27359D02*
X67765Y-27359D01*
X67765Y-27359D02*
X67765Y-24210D01*
X67765Y-24210D02*
X70128Y-24210D01*
X70128Y-24210D02*
X70128Y-27359D01*
X70206Y-26966D02*
X70206Y-27438D01*
X70206Y-27438D02*
X69734Y-27438D01*
X69970Y-27005D02*
G75*
G03X69970Y-27005I-196J0D01*
G74*
G01*
X70049Y-27359D02*
X70128Y-27162D01*
G54D13*
X27202Y-32728D02*
X26702Y-33228D01*
X27202Y-32728D02*
X27202Y-20228D01*
X27202Y-20228D02*
X14202Y-20228D01*
X14202Y-20228D02*
X14202Y-33228D01*
X14202Y-33228D02*
X26702Y-33228D01*
G54D12*
X47972Y-16756D02*
X48222Y-16756D01*
X48222Y-16756D02*
X48222Y-17256D01*
X48222Y-17256D02*
X47972Y-17256D01*
X47977Y-15706D02*
X48872Y-15706D01*
X48872Y-15706D02*
X48872Y-18356D01*
X48872Y-18356D02*
X47977Y-18356D01*
X47972Y-18356D02*
X47972Y-15706D01*
X59100Y-39150D02*
X61700Y-39150D01*
X61700Y-39150D02*
X61700Y-37350D01*
X61700Y-37350D02*
X59100Y-37350D01*
X59100Y-37350D02*
X59100Y-39150D01*
X61461Y-37650D02*
G75*
G03X61461Y-37650I-111J0D01*
G74*
G01*
X67203Y-39148D02*
X69803Y-39148D01*
X69803Y-39148D02*
X69803Y-37348D01*
X69803Y-37348D02*
X67203Y-37348D01*
X67203Y-37348D02*
X67203Y-39148D01*
X69565Y-37648D02*
G75*
G03X69565Y-37648I-111J0D01*
G74*
G01*
X63200Y-39150D02*
X65800Y-39150D01*
X65800Y-39150D02*
X65800Y-37350D01*
X65800Y-37350D02*
X63200Y-37350D01*
X63200Y-37350D02*
X63200Y-39150D01*
X65561Y-37650D02*
G75*
G03X65561Y-37650I-111J0D01*
G74*
G01*
X71200Y-39148D02*
X73800Y-39148D01*
X73800Y-39148D02*
X73800Y-37348D01*
X73800Y-37348D02*
X71200Y-37348D01*
X71200Y-37348D02*
X71200Y-39148D01*
X73561Y-37648D02*
G75*
G03X73561Y-37648I-111J0D01*
G74*
G01*
X45800Y-16100D02*
X43200Y-16100D01*
X43200Y-16100D02*
X43200Y-17900D01*
X43200Y-17900D02*
X45800Y-17900D01*
X45800Y-17900D02*
X45800Y-16100D01*
X43661Y-17600D02*
G75*
G03X43661Y-17600I-111J0D01*
G74*
G01*
G54D14*
X79098Y-15947D02*
X85790Y-15947D01*
X79098Y-15947D02*
X85790Y-15947D01*
X85790Y-15947D02*
X85790Y-21457D01*
G54D15*
X85544Y-21102D02*
G75*
G03X85544Y-21102I-100J0D01*
G74*
G01*
G54D14*
X79098Y-21457D02*
X85790Y-21457D01*
X79098Y-15947D02*
X79098Y-21457D01*
X79098Y-21457D02*
X79098Y-21457D01*
X79098Y-21457D02*
X79098Y-21457D01*
X64344Y-15945D02*
X71036Y-15945D01*
X64344Y-15945D02*
X71036Y-15945D01*
X71036Y-15945D02*
X71036Y-21455D01*
G54D15*
X70790Y-21100D02*
G75*
G03X70790Y-21100I-100J0D01*
G74*
G01*
G54D14*
X64344Y-21455D02*
X71036Y-21455D01*
X64344Y-15945D02*
X64344Y-21455D01*
X64344Y-21455D02*
X64344Y-21455D01*
X64344Y-21455D02*
X64344Y-21455D01*
X64326Y-23322D02*
X71018Y-23322D01*
X64326Y-23322D02*
X71018Y-23322D01*
X71018Y-23322D02*
X71018Y-28832D01*
G54D15*
X70772Y-28477D02*
G75*
G03X70772Y-28477I-100J0D01*
G74*
G01*
G54D14*
X64326Y-28832D02*
X71018Y-28832D01*
X64326Y-23322D02*
X64326Y-28832D01*
X64326Y-28832D02*
X64326Y-28832D01*
X64326Y-28832D02*
X64326Y-28832D01*
X79098Y-23326D02*
X85790Y-23326D01*
X79098Y-23326D02*
X85790Y-23326D01*
X85790Y-23326D02*
X85790Y-28836D01*
G54D15*
X85544Y-28481D02*
G75*
G03X85544Y-28481I-100J0D01*
G74*
G01*
G54D14*
X79098Y-28836D02*
X85790Y-28836D01*
X79098Y-23326D02*
X79098Y-28836D01*
X79098Y-28836D02*
X79098Y-28836D01*
X79098Y-28836D02*
X79098Y-28836D01*
G54D13*
X52125Y-23375D02*
G75*
G03X52125Y-23375I-250J0D01*
G74*
G01*
X51425Y-23225D02*
X51425Y-23135D01*
X51425Y-23135D02*
X51125Y-23135D01*
X51125Y-23225D02*
X51425Y-23225D01*
X51125Y-30375D02*
X51375Y-30625D01*
X51375Y-30625D02*
X58875Y-30625D01*
X58875Y-30625D02*
X59125Y-30375D01*
X59125Y-30375D02*
X59125Y-22875D01*
X59125Y-22875D02*
X58875Y-22625D01*
X58875Y-22625D02*
X51375Y-22625D01*
X51375Y-22625D02*
X51125Y-22875D01*
X51125Y-22875D02*
X51125Y-30375D01*
G54D12*
X86533Y-37607D02*
X86533Y-36407D01*
X85083Y-36407D02*
X84333Y-36407D01*
X84333Y-36407D02*
X84333Y-37607D01*
X84333Y-37607D02*
X85083Y-37607D01*
X85733Y-37607D02*
X86533Y-37607D01*
X86454Y-37607D02*
X86454Y-36407D01*
X86533Y-36407D02*
X85733Y-36407D01*
G54D16*
X54449Y-14430D02*
X54174Y-14430D01*
X54843Y-14430D02*
X55118Y-14430D01*
X54449Y-14942D02*
X54174Y-14942D01*
X55118Y-14942D02*
X54843Y-14942D01*
X54174Y-14936D02*
X54174Y-14436D01*
X55118Y-14436D02*
X55118Y-14936D01*
X42756Y-16053D02*
X42756Y-15778D01*
X42756Y-16447D02*
X42756Y-16722D01*
X42244Y-16053D02*
X42244Y-15778D01*
X42244Y-16722D02*
X42244Y-16447D01*
X42250Y-15778D02*
X42750Y-15778D01*
X42750Y-16722D02*
X42250Y-16722D01*
X49794Y-17247D02*
X49794Y-17522D01*
X49794Y-16853D02*
X49794Y-16578D01*
X50306Y-17247D02*
X50306Y-17522D01*
X50306Y-16578D02*
X50306Y-16853D01*
X50300Y-17522D02*
X49800Y-17522D01*
X49800Y-16578D02*
X50300Y-16578D01*
X20148Y-27569D02*
X20423Y-27569D01*
X19754Y-27569D02*
X19479Y-27569D01*
X20148Y-27057D02*
X20423Y-27057D01*
X19479Y-27057D02*
X19754Y-27057D01*
X20423Y-27063D02*
X20423Y-27563D01*
X19479Y-27563D02*
X19479Y-27063D01*
X49144Y-17247D02*
X49144Y-17522D01*
X49144Y-16853D02*
X49144Y-16578D01*
X49656Y-17247D02*
X49656Y-17522D01*
X49656Y-16578D02*
X49656Y-16853D01*
X49650Y-17522D02*
X49150Y-17522D01*
X49150Y-16578D02*
X49650Y-16578D01*
X77297Y-19307D02*
X77297Y-19582D01*
X77297Y-18913D02*
X77297Y-18638D01*
X77809Y-19307D02*
X77809Y-19582D01*
X77809Y-18638D02*
X77809Y-18913D01*
X77803Y-19582D02*
X77303Y-19582D01*
X77303Y-18638D02*
X77803Y-18638D01*
X62609Y-19309D02*
X62609Y-19584D01*
X62609Y-18915D02*
X62609Y-18640D01*
X63121Y-19309D02*
X63121Y-19584D01*
X63121Y-18640D02*
X63121Y-18915D01*
X63115Y-19584D02*
X62615Y-19584D01*
X62615Y-18640D02*
X63115Y-18640D01*
X60776Y-27403D02*
X60776Y-27128D01*
X60776Y-27797D02*
X60776Y-28072D01*
X60264Y-27403D02*
X60264Y-27128D01*
X60264Y-28072D02*
X60264Y-27797D01*
X60270Y-27128D02*
X60770Y-27128D01*
X60770Y-28072D02*
X60270Y-28072D01*
X55572Y-21381D02*
X55847Y-21381D01*
X55178Y-21381D02*
X54903Y-21381D01*
X55572Y-20869D02*
X55847Y-20869D01*
X54903Y-20869D02*
X55178Y-20869D01*
X55847Y-20875D02*
X55847Y-21375D01*
X54903Y-21375D02*
X54903Y-20875D01*
X34756Y-19593D02*
X34756Y-19318D01*
X34756Y-19987D02*
X34756Y-20262D01*
X34244Y-19593D02*
X34244Y-19318D01*
X34244Y-20262D02*
X34244Y-19987D01*
X34250Y-19318D02*
X34750Y-19318D01*
X34750Y-20262D02*
X34250Y-20262D01*
X62586Y-38953D02*
X62586Y-38678D01*
X62586Y-39347D02*
X62586Y-39622D01*
X62074Y-38953D02*
X62074Y-38678D01*
X62074Y-39622D02*
X62074Y-39347D01*
X62080Y-38678D02*
X62580Y-38678D01*
X62580Y-39622D02*
X62080Y-39622D01*
X70656Y-38933D02*
X70656Y-38658D01*
X70656Y-39327D02*
X70656Y-39602D01*
X70144Y-38933D02*
X70144Y-38658D01*
X70144Y-39602D02*
X70144Y-39327D01*
X70150Y-38658D02*
X70650Y-38658D01*
X70650Y-39602D02*
X70150Y-39602D01*
X74606Y-38923D02*
X74606Y-38648D01*
X74606Y-39317D02*
X74606Y-39592D01*
X74094Y-38923D02*
X74094Y-38648D01*
X74094Y-39592D02*
X74094Y-39317D01*
X74100Y-38648D02*
X74600Y-38648D01*
X74600Y-39592D02*
X74100Y-39592D01*
X66636Y-38933D02*
X66636Y-38658D01*
X66636Y-39327D02*
X66636Y-39602D01*
X66124Y-38933D02*
X66124Y-38658D01*
X66124Y-39602D02*
X66124Y-39327D01*
X66130Y-38658D02*
X66630Y-38658D01*
X66630Y-39602D02*
X66130Y-39602D01*
X55667Y-32286D02*
X55942Y-32286D01*
X55273Y-32286D02*
X54998Y-32286D01*
X55667Y-31774D02*
X55942Y-31774D01*
X54998Y-31774D02*
X55273Y-31774D01*
X55942Y-31780D02*
X55942Y-32280D01*
X54998Y-32280D02*
X54998Y-31780D01*
X49147Y-24296D02*
X48872Y-24296D01*
X49541Y-24296D02*
X49816Y-24296D01*
X49147Y-24808D02*
X48872Y-24808D01*
X49816Y-24808D02*
X49541Y-24808D01*
X48872Y-24802D02*
X48872Y-24302D01*
X49816Y-24302D02*
X49816Y-24802D01*
G54D12*
X27780Y-40920D02*
X28680Y-40920D01*
X28680Y-40920D02*
X28680Y-41420D01*
X28680Y-41420D02*
X27780Y-41420D01*
X27780Y-41420D02*
X27780Y-40920D01*
X59890Y-18090D02*
X60790Y-18090D01*
X60790Y-18090D02*
X60790Y-18590D01*
X60790Y-18590D02*
X59890Y-18590D01*
X59890Y-18590D02*
X59890Y-18090D01*
X44200Y-15024D02*
X43300Y-15024D01*
X43300Y-15024D02*
X43300Y-14524D01*
X43300Y-14524D02*
X44200Y-14524D01*
X44200Y-14524D02*
X44200Y-15024D01*
X40750Y-14450D02*
X40750Y-13550D01*
X40750Y-13550D02*
X41250Y-13550D01*
X41250Y-13550D02*
X41250Y-14450D01*
X41250Y-14450D02*
X40750Y-14450D01*
X39250Y-14450D02*
X39250Y-13550D01*
X39250Y-13550D02*
X39750Y-13550D01*
X39750Y-13550D02*
X39750Y-14450D01*
X39750Y-14450D02*
X39250Y-14450D01*
X37500Y-14450D02*
X37500Y-13550D01*
X37500Y-13550D02*
X38000Y-13550D01*
X38000Y-13550D02*
X38000Y-14450D01*
X38000Y-14450D02*
X37500Y-14450D01*
X43300Y-13250D02*
X44200Y-13250D01*
X44200Y-13250D02*
X44200Y-13750D01*
X44200Y-13750D02*
X43300Y-13750D01*
X43300Y-13750D02*
X43300Y-13250D01*
X43300Y-13890D02*
X44200Y-13890D01*
X44200Y-13890D02*
X44200Y-14390D01*
X44200Y-14390D02*
X43300Y-14390D01*
X43300Y-14390D02*
X43300Y-13890D01*
G54D13*
X35000Y-26500D02*
G75*
G03X35000Y-26500I-500J0D01*
G74*
G01*
G54D17*
X34000Y-31000D02*
X34000Y-22000D01*
X34000Y-22000D02*
X43000Y-22000D01*
X43000Y-22000D02*
X43000Y-31000D01*
X43000Y-31000D02*
X34000Y-31000D01*
G54D18*
X46250Y-12500D02*
X42250Y-12500D01*
X46250Y-11500D02*
X42250Y-11500D01*
X42250Y-11500D02*
X42250Y-12500D01*
X46250Y-12500D02*
X46250Y-11500D01*
G54D19*
X48980Y-14520D02*
X47980Y-14520D01*
X47980Y-14520D02*
X47980Y-11520D01*
X47980Y-11520D02*
X48980Y-11520D01*
X48980Y-11520D02*
X48980Y-14520D01*
X47980Y-13520D02*
X48980Y-13520D01*
X49980Y-14520D02*
X48980Y-14520D01*
X48980Y-14520D02*
X48980Y-11520D01*
X48980Y-11520D02*
X49980Y-11520D01*
X49980Y-11520D02*
X49980Y-14520D01*
X48980Y-13520D02*
X49980Y-13520D01*
X50980Y-14520D02*
X49980Y-14520D01*
X49980Y-14520D02*
X49980Y-11520D01*
X49980Y-11520D02*
X50980Y-11520D01*
X50980Y-11520D02*
X50980Y-14520D01*
X49980Y-13520D02*
X50980Y-13520D01*
X52980Y-11520D02*
X53980Y-11520D01*
X53980Y-11520D02*
X53980Y-13520D01*
X53980Y-13520D02*
X52980Y-13520D01*
X52980Y-13520D02*
X52980Y-11520D01*
G54D13*
X61652Y-11512D02*
X61652Y-12512D01*
X61652Y-12512D02*
X55652Y-12512D01*
X55652Y-12512D02*
X55652Y-11512D01*
X55652Y-11512D02*
X61652Y-11512D01*
X60652Y-11512D02*
X60652Y-12512D01*
G54D15*
X20076Y-24938D02*
X20576Y-25413D01*
X20576Y-24938D02*
X19326Y-24938D01*
X19326Y-24938D02*
X19326Y-26188D01*
X19326Y-26188D02*
X20576Y-26188D01*
X20576Y-26188D02*
X20576Y-24938D01*
G54D20*
X37632Y-12446D02*
X37504Y-12446D01*
X37504Y-12446D02*
X37504Y-12643D01*
X37632Y-12643D02*
X37504Y-12643D01*
X37632Y-12446D02*
X37632Y-12643D01*
X37877Y-12446D02*
X37818Y-12446D01*
X37818Y-12446D02*
X37818Y-12545D01*
X37877Y-12545D02*
X37818Y-12545D01*
X37877Y-12446D02*
X37877Y-12545D01*
X37682Y-12446D02*
X37623Y-12446D01*
X37623Y-12446D02*
X37623Y-12545D01*
X37682Y-12545D02*
X37623Y-12545D01*
X37682Y-12446D02*
X37682Y-12545D01*
X37828Y-12446D02*
X37672Y-12446D01*
X37672Y-12446D02*
X37672Y-12515D01*
X37828Y-12515D02*
X37672Y-12515D01*
X37828Y-12446D02*
X37828Y-12515D01*
X37632Y-11857D02*
X37504Y-11857D01*
X37504Y-11857D02*
X37504Y-12054D01*
X37632Y-12054D02*
X37504Y-12054D01*
X37632Y-11857D02*
X37632Y-12054D01*
X37996Y-11857D02*
X37868Y-11857D01*
X37868Y-11857D02*
X37868Y-12054D01*
X37996Y-12054D02*
X37868Y-12054D01*
X37996Y-11857D02*
X37996Y-12054D01*
X37682Y-11955D02*
X37623Y-11955D01*
X37623Y-11955D02*
X37623Y-12054D01*
X37682Y-12054D02*
X37623Y-12054D01*
X37682Y-11955D02*
X37682Y-12054D01*
X37877Y-11955D02*
X37818Y-11955D01*
X37818Y-11955D02*
X37818Y-12054D01*
X37877Y-12054D02*
X37818Y-12054D01*
X37877Y-11955D02*
X37877Y-12054D01*
X37828Y-11985D02*
X37672Y-11985D01*
X37672Y-11985D02*
X37672Y-12054D01*
X37828Y-12054D02*
X37672Y-12054D01*
X37828Y-11985D02*
X37828Y-12054D01*
X37789Y-12250D02*
X37711Y-12250D01*
X37711Y-12250D02*
X37711Y-12328D01*
X37789Y-12328D02*
X37711Y-12328D01*
X37789Y-12250D02*
X37789Y-12328D01*
X37986Y-12446D02*
X37868Y-12446D01*
X37868Y-12446D02*
X37868Y-12564D01*
X37986Y-12564D02*
X37868Y-12564D01*
X37986Y-12446D02*
X37986Y-12564D01*
X37996Y-12614D02*
X37907Y-12614D01*
X37907Y-12614D02*
X37907Y-12643D01*
X37996Y-12643D02*
X37907Y-12643D01*
X37996Y-12614D02*
X37996Y-12643D01*
G54D21*
X37524Y-12456D02*
X37524Y-12044D01*
X37976Y-12054D02*
X37976Y-12614D01*
G54D22*
X37955Y-12584D02*
G75*
G03X37955Y-12584I-28J0D01*
G74*
G01*
G54D21*
X37887Y-12643D02*
G75*
G03X37613Y-12643I-137J0D01*
G74*
G01*
X37613Y-11857D02*
G75*
G03X37887Y-11857I137J0D01*
G74*
G01*
G54D20*
X40882Y-12446D02*
X40754Y-12446D01*
X40754Y-12446D02*
X40754Y-12643D01*
X40882Y-12643D02*
X40754Y-12643D01*
X40882Y-12446D02*
X40882Y-12643D01*
X41127Y-12446D02*
X41068Y-12446D01*
X41068Y-12446D02*
X41068Y-12545D01*
X41127Y-12545D02*
X41068Y-12545D01*
X41127Y-12446D02*
X41127Y-12545D01*
X40932Y-12446D02*
X40873Y-12446D01*
X40873Y-12446D02*
X40873Y-12545D01*
X40932Y-12545D02*
X40873Y-12545D01*
X40932Y-12446D02*
X40932Y-12545D01*
X41078Y-12446D02*
X40922Y-12446D01*
X40922Y-12446D02*
X40922Y-12515D01*
X41078Y-12515D02*
X40922Y-12515D01*
X41078Y-12446D02*
X41078Y-12515D01*
X40882Y-11857D02*
X40754Y-11857D01*
X40754Y-11857D02*
X40754Y-12054D01*
X40882Y-12054D02*
X40754Y-12054D01*
X40882Y-11857D02*
X40882Y-12054D01*
X41246Y-11857D02*
X41118Y-11857D01*
X41118Y-11857D02*
X41118Y-12054D01*
X41246Y-12054D02*
X41118Y-12054D01*
X41246Y-11857D02*
X41246Y-12054D01*
X40932Y-11955D02*
X40873Y-11955D01*
X40873Y-11955D02*
X40873Y-12054D01*
X40932Y-12054D02*
X40873Y-12054D01*
X40932Y-11955D02*
X40932Y-12054D01*
X41127Y-11955D02*
X41068Y-11955D01*
X41068Y-11955D02*
X41068Y-12054D01*
X41127Y-12054D02*
X41068Y-12054D01*
X41127Y-11955D02*
X41127Y-12054D01*
X41078Y-11985D02*
X40922Y-11985D01*
X40922Y-11985D02*
X40922Y-12054D01*
X41078Y-12054D02*
X40922Y-12054D01*
X41078Y-11985D02*
X41078Y-12054D01*
X41039Y-12250D02*
X40961Y-12250D01*
X40961Y-12250D02*
X40961Y-12328D01*
X41039Y-12328D02*
X40961Y-12328D01*
X41039Y-12250D02*
X41039Y-12328D01*
X41236Y-12446D02*
X41118Y-12446D01*
X41118Y-12446D02*
X41118Y-12564D01*
X41236Y-12564D02*
X41118Y-12564D01*
X41236Y-12446D02*
X41236Y-12564D01*
X41246Y-12614D02*
X41157Y-12614D01*
X41157Y-12614D02*
X41157Y-12643D01*
X41246Y-12643D02*
X41157Y-12643D01*
X41246Y-12614D02*
X41246Y-12643D01*
G54D21*
X40774Y-12456D02*
X40774Y-12044D01*
X41226Y-12054D02*
X41226Y-12614D01*
G54D22*
X41205Y-12584D02*
G75*
G03X41205Y-12584I-28J0D01*
G74*
G01*
G54D21*
X41137Y-12643D02*
G75*
G03X40863Y-12643I-137J0D01*
G74*
G01*
X40863Y-11857D02*
G75*
G03X41137Y-11857I137J0D01*
G74*
G01*
G54D20*
X39382Y-12446D02*
X39254Y-12446D01*
X39254Y-12446D02*
X39254Y-12643D01*
X39382Y-12643D02*
X39254Y-12643D01*
X39382Y-12446D02*
X39382Y-12643D01*
X39627Y-12446D02*
X39568Y-12446D01*
X39568Y-12446D02*
X39568Y-12545D01*
X39627Y-12545D02*
X39568Y-12545D01*
X39627Y-12446D02*
X39627Y-12545D01*
X39432Y-12446D02*
X39373Y-12446D01*
X39373Y-12446D02*
X39373Y-12545D01*
X39432Y-12545D02*
X39373Y-12545D01*
X39432Y-12446D02*
X39432Y-12545D01*
X39578Y-12446D02*
X39422Y-12446D01*
X39422Y-12446D02*
X39422Y-12515D01*
X39578Y-12515D02*
X39422Y-12515D01*
X39578Y-12446D02*
X39578Y-12515D01*
X39382Y-11857D02*
X39254Y-11857D01*
X39254Y-11857D02*
X39254Y-12054D01*
X39382Y-12054D02*
X39254Y-12054D01*
X39382Y-11857D02*
X39382Y-12054D01*
X39746Y-11857D02*
X39618Y-11857D01*
X39618Y-11857D02*
X39618Y-12054D01*
X39746Y-12054D02*
X39618Y-12054D01*
X39746Y-11857D02*
X39746Y-12054D01*
X39432Y-11955D02*
X39373Y-11955D01*
X39373Y-11955D02*
X39373Y-12054D01*
X39432Y-12054D02*
X39373Y-12054D01*
X39432Y-11955D02*
X39432Y-12054D01*
X39627Y-11955D02*
X39568Y-11955D01*
X39568Y-11955D02*
X39568Y-12054D01*
X39627Y-12054D02*
X39568Y-12054D01*
X39627Y-11955D02*
X39627Y-12054D01*
X39578Y-11985D02*
X39422Y-11985D01*
X39422Y-11985D02*
X39422Y-12054D01*
X39578Y-12054D02*
X39422Y-12054D01*
X39578Y-11985D02*
X39578Y-12054D01*
X39539Y-12250D02*
X39461Y-12250D01*
X39461Y-12250D02*
X39461Y-12328D01*
X39539Y-12328D02*
X39461Y-12328D01*
X39539Y-12250D02*
X39539Y-12328D01*
X39736Y-12446D02*
X39618Y-12446D01*
X39618Y-12446D02*
X39618Y-12564D01*
X39736Y-12564D02*
X39618Y-12564D01*
X39736Y-12446D02*
X39736Y-12564D01*
X39746Y-12614D02*
X39657Y-12614D01*
X39657Y-12614D02*
X39657Y-12643D01*
X39746Y-12643D02*
X39657Y-12643D01*
X39746Y-12614D02*
X39746Y-12643D01*
G54D21*
X39274Y-12456D02*
X39274Y-12044D01*
X39726Y-12054D02*
X39726Y-12614D01*
G54D22*
X39705Y-12584D02*
G75*
G03X39705Y-12584I-28J0D01*
G74*
G01*
G54D21*
X39637Y-12643D02*
G75*
G03X39363Y-12643I-137J0D01*
G74*
G01*
X39363Y-11857D02*
G75*
G03X39637Y-11857I137J0D01*
G74*
G01*
G54D12*
X86014Y-40320D02*
X86014Y-38870D01*
X86014Y-38870D02*
X85214Y-38870D01*
X85214Y-38870D02*
X85214Y-40320D01*
X87014Y-40320D02*
X87014Y-38870D01*
X87014Y-38870D02*
X86214Y-38870D01*
X86214Y-38870D02*
X86214Y-40320D01*
X88014Y-40320D02*
X88014Y-38870D01*
X88014Y-38870D02*
X87214Y-38870D01*
X87214Y-38870D02*
X87214Y-40320D01*
X88714Y-40320D02*
X84514Y-40320D01*
X84514Y-40320D02*
X84514Y-44320D01*
X84514Y-44320D02*
X88714Y-44320D01*
X88714Y-44320D02*
X88714Y-40320D01*
G54D18*
X55690Y-17510D02*
X55190Y-17510D01*
X55190Y-17510D02*
X55190Y-16510D01*
X55190Y-16510D02*
X55690Y-16510D01*
X55690Y-18010D02*
X51690Y-18010D01*
X51690Y-18010D02*
X51690Y-16010D01*
X51690Y-16010D02*
X55690Y-16010D01*
X55690Y-16010D02*
X55690Y-18010D01*
G54D12*
X88663Y-36457D02*
X88663Y-37557D01*
X88888Y-36457D02*
X87488Y-36457D01*
X87488Y-36457D02*
X87488Y-37557D01*
X87488Y-37557D02*
X88888Y-37557D01*
X88888Y-37557D02*
X88888Y-36457D01*
G54D16*
X70310Y-25961D02*
X70310Y-26236D01*
X70310Y-25567D02*
X70310Y-25292D01*
X70822Y-25961D02*
X70822Y-26236D01*
X70822Y-25292D02*
X70822Y-25567D01*
X70816Y-26236D02*
X70316Y-26236D01*
X70316Y-25292D02*
X70816Y-25292D01*
X82096Y-25565D02*
X82096Y-25290D01*
X82096Y-25959D02*
X82096Y-26234D01*
X81584Y-25565D02*
X81584Y-25290D01*
X81584Y-26234D02*
X81584Y-25959D01*
X81590Y-25290D02*
X82090Y-25290D01*
X82090Y-26234D02*
X81590Y-26234D01*
X67546Y-25579D02*
X67546Y-25304D01*
X67546Y-25973D02*
X67546Y-26248D01*
X67034Y-25579D02*
X67034Y-25304D01*
X67034Y-26248D02*
X67034Y-25973D01*
X67040Y-25304D02*
X67540Y-25304D01*
X67540Y-26248D02*
X67040Y-26248D01*
X84731Y-25978D02*
X84731Y-26253D01*
X84731Y-25584D02*
X84731Y-25309D01*
X85243Y-25978D02*
X85243Y-26253D01*
X85243Y-25309D02*
X85243Y-25584D01*
X85237Y-26253D02*
X84737Y-26253D01*
X84737Y-25309D02*
X85237Y-25309D01*
X17454Y-25087D02*
X17454Y-25362D01*
X17454Y-24693D02*
X17454Y-24418D01*
X17966Y-25087D02*
X17966Y-25362D01*
X17966Y-24418D02*
X17966Y-24693D01*
X17960Y-25362D02*
X17460Y-25362D01*
X17460Y-24418D02*
X17960Y-24418D01*
X21034Y-29287D02*
X20759Y-29287D01*
X21428Y-29287D02*
X21703Y-29287D01*
X21034Y-29799D02*
X20759Y-29799D01*
X21703Y-29799D02*
X21428Y-29799D01*
X20759Y-29793D02*
X20759Y-29293D01*
X21703Y-29293D02*
X21703Y-29793D01*
G54D12*
X21525Y-25800D02*
X21525Y-24700D01*
X21300Y-25800D02*
X22700Y-25800D01*
X22700Y-25800D02*
X22700Y-24700D01*
X22700Y-24700D02*
X21300Y-24700D01*
X21300Y-24700D02*
X21300Y-25800D01*
G54D19*
X51980Y-14520D02*
X50980Y-14520D01*
X50980Y-14520D02*
X50980Y-11520D01*
X50980Y-11520D02*
X51980Y-11520D01*
X51980Y-11520D02*
X51980Y-14520D01*
X50980Y-13520D02*
X51980Y-13520D01*
X52990Y-14520D02*
X51990Y-14520D01*
X51990Y-14520D02*
X51990Y-11520D01*
X51990Y-11520D02*
X52990Y-11520D01*
X52990Y-11520D02*
X52990Y-14520D01*
X51990Y-13520D02*
X52990Y-13520D01*
G54D15*
X22770Y-40760D02*
G75*
G03X22770Y-40760I-250J0D01*
G74*
G01*
X23020Y-41260D02*
X19020Y-41260D01*
X19020Y-41260D02*
X19020Y-37260D01*
X19020Y-37260D02*
X23020Y-37260D01*
X23020Y-37260D02*
X23020Y-41260D01*
G54D16*
X21130Y-36062D02*
X20855Y-36062D01*
X21524Y-36062D02*
X21799Y-36062D01*
X21130Y-36574D02*
X20855Y-36574D01*
X21799Y-36574D02*
X21524Y-36574D01*
X20855Y-36568D02*
X20855Y-36068D01*
X21799Y-36068D02*
X21799Y-36568D01*
X18157Y-37734D02*
X18157Y-37459D01*
X18157Y-38128D02*
X18157Y-38403D01*
X17645Y-37734D02*
X17645Y-37459D01*
X17645Y-38403D02*
X17645Y-38128D01*
X17651Y-37459D02*
X18151Y-37459D01*
X18151Y-38403D02*
X17651Y-38403D01*
X19261Y-42148D02*
X18986Y-42148D01*
X19655Y-42148D02*
X19930Y-42148D01*
X19261Y-42660D02*
X18986Y-42660D01*
X19930Y-42660D02*
X19655Y-42660D01*
X18986Y-42654D02*
X18986Y-42154D01*
X19930Y-42154D02*
X19930Y-42654D01*
X51637Y-20927D02*
X51362Y-20927D01*
X52031Y-20927D02*
X52306Y-20927D01*
X51637Y-21439D02*
X51362Y-21439D01*
X52306Y-21439D02*
X52031Y-21439D01*
X51362Y-21433D02*
X51362Y-20933D01*
X52306Y-20933D02*
X52306Y-21433D01*
X58060Y-20876D02*
X57785Y-20876D01*
X58454Y-20876D02*
X58729Y-20876D01*
X58060Y-21388D02*
X57785Y-21388D01*
X58729Y-21388D02*
X58454Y-21388D01*
X57785Y-21382D02*
X57785Y-20882D01*
X58729Y-20882D02*
X58729Y-21382D01*
X50525Y-31671D02*
X50250Y-31671D01*
X50919Y-31671D02*
X51194Y-31671D01*
X50525Y-32183D02*
X50250Y-32183D01*
X51194Y-32183D02*
X50919Y-32183D01*
X50250Y-32177D02*
X50250Y-31677D01*
X51194Y-31677D02*
X51194Y-32177D01*
X49932Y-22618D02*
X49932Y-22343D01*
X49932Y-23012D02*
X49932Y-23287D01*
X49420Y-22618D02*
X49420Y-22343D01*
X49420Y-23287D02*
X49420Y-23012D01*
X49426Y-22343D02*
X49926Y-22343D01*
X49926Y-23287D02*
X49426Y-23287D01*
G54D17*
X83309Y-39928D02*
G75*
G03X83309Y-39928I-1612J0D01*
G74*
G01*
X83309Y-14294D02*
G75*
G03X83309Y-14294I-1612J0D01*
G74*
G01*
X18384Y-14175D02*
G75*
G03X18384Y-14175I-1612J0D01*
G74*
G01*
X18349Y-39928D02*
G75*
G03X18349Y-39928I-1612J0D01*
G74*
G01*
G54D12*
X63761Y-31946D02*
G75*
G03X63761Y-31946I-158J0D01*
G74*
G01*
X64018Y-32445D02*
G75*
G03X64018Y-32445I-158J0D01*
G74*
G01*
X64278Y-32945D02*
G75*
G03X64278Y-32945I-158J0D01*
G74*
G01*
X64528Y-33445D02*
G75*
G03X64528Y-33445I-158J0D01*
G74*
G01*
X64783Y-33945D02*
G75*
G03X64783Y-33945I-158J0D01*
G74*
G01*
X65043Y-34450D02*
G75*
G03X65043Y-34450I-158J0D01*
G74*
G01*
X65298Y-34950D02*
G75*
G03X65298Y-34950I-158J0D01*
G74*
G01*
X65553Y-35455D02*
G75*
G03X65553Y-35455I-158J0D01*
G74*
G01*
X65808Y-35955D02*
G75*
G03X65808Y-35955I-158J0D01*
G74*
G01*
X66068Y-36455D02*
G75*
G03X66068Y-36455I-158J0D01*
G74*
G01*
X69048Y-35460D02*
G75*
G03X69048Y-35460I-158J0D01*
G74*
G01*
X68853Y-34945D02*
G75*
G03X68853Y-34945I-158J0D01*
G74*
G01*
X68708Y-34450D02*
G75*
G03X68708Y-34450I-158J0D01*
G74*
G01*
X68578Y-33945D02*
G75*
G03X68578Y-33945I-158J0D01*
G74*
G01*
X68448Y-33445D02*
G75*
G03X68448Y-33445I-158J0D01*
G74*
G01*
X68313Y-32945D02*
G75*
G03X68313Y-32945I-158J0D01*
G74*
G01*
X68118Y-32435D02*
G75*
G03X68118Y-32435I-158J0D01*
G74*
G01*
X67918Y-31945D02*
G75*
G03X67918Y-31945I-158J0D01*
G74*
G01*
X71038Y-35950D02*
G75*
G03X71038Y-35950I-158J0D01*
G74*
G01*
X71263Y-34945D02*
G75*
G03X71263Y-34945I-158J0D01*
G74*
G01*
X72508Y-34945D02*
G75*
G03X72508Y-34945I-158J0D01*
G74*
G01*
X72858Y-34445D02*
G75*
G03X72858Y-34445I-158J0D01*
G74*
G01*
X73218Y-33945D02*
G75*
G03X73218Y-33945I-158J0D01*
G74*
G01*
X73608Y-33440D02*
G75*
G03X73608Y-33440I-158J0D01*
G74*
G01*
X73993Y-32950D02*
G75*
G03X73993Y-32950I-158J0D01*
G74*
G01*
X74423Y-33440D02*
G75*
G03X74423Y-33440I-158J0D01*
G74*
G01*
X74778Y-33950D02*
G75*
G03X74778Y-33950I-158J0D01*
G74*
G01*
X75198Y-34440D02*
G75*
G03X75198Y-34440I-158J0D01*
G74*
G01*
X61848Y-31320D02*
G75*
G03X61848Y-31320I-158J0D01*
G74*
G01*
X61848Y-31885D02*
G75*
G03X61848Y-31885I-158J0D01*
G74*
G01*
X61848Y-32430D02*
G75*
G03X61848Y-32430I-158J0D01*
G74*
G01*
X61848Y-33110D02*
G75*
G03X61848Y-33110I-158J0D01*
G74*
G01*
X61848Y-33770D02*
G75*
G03X61848Y-33770I-158J0D01*
G74*
G01*
X61848Y-34355D02*
G75*
G03X61848Y-34355I-158J0D01*
G74*
G01*
X61848Y-34960D02*
G75*
G03X61848Y-34960I-158J0D01*
G74*
G01*
X61848Y-35510D02*
G75*
G03X61848Y-35510I-158J0D01*
G74*
G01*
X59553Y-35505D02*
G75*
G03X59553Y-35505I-158J0D01*
G74*
G01*
X82738Y-22295D02*
G75*
G03X82738Y-22295I-158J0D01*
G74*
G01*
X82233Y-22295D02*
G75*
G03X82233Y-22295I-158J0D01*
G74*
G01*
X79218Y-22295D02*
G75*
G03X79218Y-22295I-158J0D01*
G74*
G01*
X78218Y-15725D02*
G75*
G03X78218Y-15725I-158J0D01*
G74*
G01*
X88268Y-16440D02*
G75*
G03X88268Y-16440I-158J0D01*
G74*
G01*
X88423Y-16930D02*
G75*
G03X88423Y-16930I-158J0D01*
G74*
G01*
X87943Y-16840D02*
G75*
G03X87943Y-16840I-158J0D01*
G74*
G01*
X88233Y-17435D02*
G75*
G03X88233Y-17435I-158J0D01*
G74*
G01*
X87663Y-17255D02*
G75*
G03X87663Y-17255I-158J0D01*
G74*
G01*
X88033Y-17965D02*
G75*
G03X88033Y-17965I-158J0D01*
G74*
G01*
X87378Y-17685D02*
G75*
G03X87378Y-17685I-158J0D01*
G74*
G01*
X87873Y-18555D02*
G75*
G03X87873Y-18555I-158J0D01*
G74*
G01*
X87258Y-18310D02*
G75*
G03X87258Y-18310I-158J0D01*
G74*
G01*
X87268Y-25555D02*
G75*
G03X87268Y-25555I-158J0D01*
G74*
G01*
X87598Y-25160D02*
G75*
G03X87598Y-25160I-158J0D01*
G74*
G01*
X87188Y-24820D02*
G75*
G03X87188Y-24820I-158J0D01*
G74*
G01*
X85983Y-21845D02*
G75*
G03X85983Y-21845I-158J0D01*
G74*
G01*
X86868Y-21330D02*
G75*
G03X86868Y-21330I-158J0D01*
G74*
G01*
X86743Y-22010D02*
G75*
G03X86743Y-22010I-158J0D01*
G74*
G01*
X87293Y-22050D02*
G75*
G03X87293Y-22050I-158J0D01*
G74*
G01*
X87293Y-22735D02*
G75*
G03X87293Y-22735I-158J0D01*
G74*
G01*
X77323Y-16500D02*
G75*
G03X77323Y-16500I-158J0D01*
G74*
G01*
X77313Y-15070D02*
G75*
G03X77313Y-15070I-158J0D01*
G74*
G01*
X77778Y-23980D02*
G75*
G03X77778Y-23980I-158J0D01*
G74*
G01*
X77203Y-24435D02*
G75*
G03X77203Y-24435I-158J0D01*
G74*
G01*
X86458Y-28840D02*
G75*
G03X86458Y-28840I-158J0D01*
G74*
G01*
X85218Y-22295D02*
G75*
G03X85218Y-22295I-158J0D01*
G74*
G01*
X84558Y-22295D02*
G75*
G03X84558Y-22295I-158J0D01*
G74*
G01*
X85953Y-15595D02*
G75*
G03X85953Y-15595I-158J0D01*
G74*
G01*
X62648Y-16520D02*
G75*
G03X62648Y-16520I-158J0D01*
G74*
G01*
X63008Y-24090D02*
G75*
G03X63008Y-24090I-158J0D01*
G74*
G01*
X44763Y-14485D02*
G75*
G03X44763Y-14485I-158J0D01*
G74*
G01*
X45118Y-14980D02*
G75*
G03X45118Y-14980I-158J0D01*
G74*
G01*
X45548Y-15330D02*
G75*
G03X45548Y-15330I-158J0D01*
G74*
G01*
X45938Y-14980D02*
G75*
G03X45938Y-14980I-158J0D01*
G74*
G01*
X50268Y-28815D02*
G75*
G03X50268Y-28815I-158J0D01*
G74*
G01*
X49233Y-29315D02*
G75*
G03X49233Y-29315I-158J0D01*
G74*
G01*
X33903Y-31515D02*
G75*
G03X33903Y-31515I-158J0D01*
G74*
G01*
X33258Y-31790D02*
G75*
G03X33258Y-31790I-158J0D01*
G74*
G01*
X54273Y-21605D02*
G75*
G03X54273Y-21605I-158J0D01*
G74*
G01*
X54548Y-21015D02*
G75*
G03X54548Y-21015I-158J0D01*
G74*
G01*
X45363Y-32580D02*
G75*
G03X45363Y-32580I-158J0D01*
G74*
G01*
X45608Y-32055D02*
G75*
G03X45608Y-32055I-158J0D01*
G74*
G01*
X45888Y-31575D02*
G75*
G03X45888Y-31575I-158J0D01*
G74*
G01*
X21488Y-35565D02*
G75*
G03X21488Y-35565I-158J0D01*
G74*
G01*
X22118Y-34845D02*
G75*
G03X22118Y-34845I-158J0D01*
G74*
G01*
X22433Y-34105D02*
G75*
G03X22433Y-34105I-158J0D01*
G74*
G01*
X22773Y-42155D02*
G75*
G03X22773Y-42155I-158J0D01*
G74*
G01*
X20863Y-42155D02*
G75*
G03X20863Y-42155I-158J0D01*
G74*
G01*
X32608Y-29850D02*
G75*
G03X32608Y-29850I-158J0D01*
G74*
G01*
X32643Y-25755D02*
G75*
G03X32643Y-25755I-158J0D01*
G74*
G01*
X87583Y-26095D02*
G75*
G03X87583Y-26095I-158J0D01*
G74*
G01*
G54D23*
X81696Y-23902D02*
X81696Y-24062D01*
X81705Y-24080D01*
X81715Y-24090D01*
X81733Y-24099D01*
X81771Y-24099D01*
X81790Y-24090D01*
X81799Y-24080D01*
X81808Y-24062D01*
X81808Y-23902D01*
X82005Y-24099D02*
X81893Y-24099D01*
X81949Y-24099D02*
X81949Y-23902D01*
X81930Y-23930D01*
X81911Y-23949D01*
X81893Y-23959D01*
X82071Y-23902D02*
X82202Y-23902D01*
X82118Y-24099D01*
X67216Y-23882D02*
X67216Y-24042D01*
X67225Y-24060D01*
X67235Y-24070D01*
X67253Y-24079D01*
X67291Y-24079D01*
X67310Y-24070D01*
X67319Y-24060D01*
X67328Y-24042D01*
X67328Y-23882D01*
X67525Y-24079D02*
X67413Y-24079D01*
X67469Y-24079D02*
X67469Y-23882D01*
X67450Y-23910D01*
X67431Y-23929D01*
X67413Y-23939D01*
X67694Y-23882D02*
X67656Y-23882D01*
X67638Y-23892D01*
X67628Y-23901D01*
X67609Y-23929D01*
X67600Y-23967D01*
X67600Y-24042D01*
X67609Y-24060D01*
X67619Y-24070D01*
X67638Y-24079D01*
X67675Y-24079D01*
X67694Y-24070D01*
X67703Y-24060D01*
X67713Y-24042D01*
X67713Y-23995D01*
X67703Y-23976D01*
X67694Y-23967D01*
X67675Y-23957D01*
X67638Y-23957D01*
X67619Y-23967D01*
X67609Y-23976D01*
X67600Y-23995D01*
G54D15*
X15729Y-18464D02*
X15729Y-19274D01*
X15767Y-19369D01*
X15805Y-19417D01*
X15881Y-19464D01*
X16034Y-19464D01*
X16110Y-19417D01*
X16148Y-19369D01*
X16186Y-19274D01*
X16186Y-18464D01*
X16986Y-19464D02*
X16529Y-19464D01*
X16758Y-19464D02*
X16758Y-18464D01*
X16681Y-18607D01*
X16605Y-18702D01*
X16529Y-18750D01*
X17443Y-18893D02*
X17367Y-18845D01*
X17329Y-18798D01*
X17291Y-18702D01*
X17291Y-18655D01*
X17329Y-18560D01*
X17367Y-18512D01*
X17443Y-18464D01*
X17596Y-18464D01*
X17672Y-18512D01*
X17710Y-18560D01*
X17748Y-18655D01*
X17748Y-18702D01*
X17710Y-18798D01*
X17672Y-18845D01*
X17596Y-18893D01*
X17443Y-18893D01*
X17367Y-18940D01*
X17329Y-18988D01*
X17291Y-19083D01*
X17291Y-19274D01*
X17329Y-19369D01*
X17367Y-19417D01*
X17443Y-19464D01*
X17596Y-19464D01*
X17672Y-19417D01*
X17710Y-19369D01*
X17748Y-19274D01*
X17748Y-19083D01*
X17710Y-18988D01*
X17672Y-18940D01*
X17596Y-18893D01*
X16845Y-35124D02*
X16845Y-34124D01*
X17051Y-34839D01*
X17258Y-34124D01*
X17258Y-35124D01*
X17908Y-35029D02*
X17878Y-35077D01*
X17789Y-35124D01*
X17730Y-35124D01*
X17642Y-35077D01*
X17583Y-34981D01*
X17553Y-34886D01*
X17524Y-34696D01*
X17524Y-34553D01*
X17553Y-34362D01*
X17583Y-34267D01*
X17642Y-34172D01*
X17730Y-34124D01*
X17789Y-34124D01*
X17878Y-34172D01*
X17908Y-34220D01*
X18439Y-34124D02*
X18321Y-34124D01*
X18262Y-34172D01*
X18232Y-34220D01*
X18173Y-34362D01*
X18144Y-34553D01*
X18144Y-34934D01*
X18173Y-35029D01*
X18203Y-35077D01*
X18262Y-35124D01*
X18380Y-35124D01*
X18439Y-35077D01*
X18469Y-35029D01*
X18498Y-34934D01*
X18498Y-34696D01*
X18469Y-34600D01*
X18439Y-34553D01*
X18380Y-34505D01*
X18262Y-34505D01*
X18203Y-34553D01*
X18173Y-34600D01*
X18144Y-34696D01*
X18852Y-34553D02*
X18793Y-34505D01*
X18764Y-34458D01*
X18734Y-34362D01*
X18734Y-34315D01*
X18764Y-34220D01*
X18793Y-34172D01*
X18852Y-34124D01*
X18970Y-34124D01*
X19029Y-34172D01*
X19059Y-34220D01*
X19089Y-34315D01*
X19089Y-34362D01*
X19059Y-34458D01*
X19029Y-34505D01*
X18970Y-34553D01*
X18852Y-34553D01*
X18793Y-34600D01*
X18764Y-34648D01*
X18734Y-34743D01*
X18734Y-34934D01*
X18764Y-35029D01*
X18793Y-35077D01*
X18852Y-35124D01*
X18970Y-35124D01*
X19029Y-35077D01*
X19059Y-35029D01*
X19089Y-34934D01*
X19089Y-34743D01*
X19059Y-34648D01*
X19029Y-34600D01*
X18970Y-34553D01*
X19472Y-34124D02*
X19531Y-34124D01*
X19590Y-34172D01*
X19620Y-34220D01*
X19649Y-34315D01*
X19679Y-34505D01*
X19679Y-34743D01*
X19649Y-34934D01*
X19620Y-35029D01*
X19590Y-35077D01*
X19531Y-35124D01*
X19472Y-35124D01*
X19413Y-35077D01*
X19384Y-35029D01*
X19354Y-34934D01*
X19325Y-34743D01*
X19325Y-34505D01*
X19354Y-34315D01*
X19384Y-34220D01*
X19413Y-34172D01*
X19472Y-34124D01*
X19886Y-34124D02*
X20270Y-34124D01*
X20063Y-34505D01*
X20151Y-34505D01*
X20210Y-34553D01*
X20240Y-34600D01*
X20270Y-34696D01*
X20270Y-34934D01*
X20240Y-35029D01*
X20210Y-35077D01*
X20151Y-35124D01*
X19974Y-35124D01*
X19915Y-35077D01*
X19886Y-35029D01*
X20653Y-34124D02*
X20712Y-34124D01*
X20771Y-34172D01*
X20801Y-34220D01*
X20830Y-34315D01*
X20860Y-34505D01*
X20860Y-34743D01*
X20830Y-34934D01*
X20801Y-35029D01*
X20771Y-35077D01*
X20712Y-35124D01*
X20653Y-35124D01*
X20594Y-35077D01*
X20565Y-35029D01*
X20535Y-34934D01*
X20506Y-34743D01*
X20506Y-34505D01*
X20535Y-34315D01*
X20565Y-34220D01*
X20594Y-34172D01*
X20653Y-34124D01*
X21480Y-35124D02*
X21273Y-34648D01*
X21126Y-35124D02*
X21126Y-34124D01*
X21362Y-34124D01*
X21421Y-34172D01*
X21450Y-34220D01*
X21480Y-34315D01*
X21480Y-34458D01*
X21450Y-34553D01*
X21421Y-34600D01*
X21362Y-34648D01*
X21126Y-34648D01*
X22100Y-35029D02*
X22070Y-35077D01*
X21982Y-35124D01*
X21923Y-35124D01*
X21834Y-35077D01*
X21775Y-34981D01*
X21746Y-34886D01*
X21716Y-34696D01*
X21716Y-34553D01*
X21746Y-34362D01*
X21775Y-34267D01*
X21834Y-34172D01*
X21923Y-34124D01*
X21982Y-34124D01*
X22070Y-34172D01*
X22100Y-34220D01*
X22218Y-35220D02*
X22690Y-35220D01*
X22838Y-35124D02*
X22838Y-34124D01*
X23074Y-34124D01*
X23133Y-34172D01*
X23163Y-34220D01*
X23192Y-34315D01*
X23192Y-34458D01*
X23163Y-34553D01*
X23133Y-34600D01*
X23074Y-34648D01*
X22838Y-34648D01*
X23783Y-34172D02*
X23724Y-34124D01*
X23635Y-34124D01*
X23547Y-34172D01*
X23488Y-34267D01*
X23458Y-34362D01*
X23429Y-34553D01*
X23429Y-34696D01*
X23458Y-34886D01*
X23488Y-34981D01*
X23547Y-35077D01*
X23635Y-35124D01*
X23694Y-35124D01*
X23783Y-35077D01*
X23812Y-35029D01*
X23812Y-34696D01*
X23694Y-34696D01*
X24049Y-34839D02*
X24344Y-34839D01*
X23990Y-35124D02*
X24196Y-34124D01*
X24403Y-35124D01*
G54D12*
X48152Y-19211D02*
X48516Y-19211D01*
X48559Y-19197D01*
X48580Y-19182D01*
X48602Y-19154D01*
X48602Y-19097D01*
X48580Y-19068D01*
X48559Y-19054D01*
X48516Y-19040D01*
X48152Y-19040D01*
X48602Y-18740D02*
X48602Y-18911D01*
X48602Y-18825D02*
X48152Y-18825D01*
X48216Y-18854D01*
X48259Y-18882D01*
X48280Y-18911D01*
X48152Y-18640D02*
X48152Y-18454D01*
X48323Y-18554D01*
X48323Y-18511D01*
X48345Y-18482D01*
X48366Y-18468D01*
X48409Y-18454D01*
X48516Y-18454D01*
X48559Y-18468D01*
X48580Y-18482D01*
X48602Y-18511D01*
X48602Y-18597D01*
X48580Y-18625D01*
X48559Y-18640D01*
G54D15*
X47862Y-18351D02*
X47412Y-18351D01*
X47412Y-18244D01*
X47433Y-18179D01*
X47476Y-18137D01*
X47519Y-18115D01*
X47605Y-18094D01*
X47669Y-18094D01*
X47755Y-18115D01*
X47797Y-18137D01*
X47840Y-18179D01*
X47862Y-18244D01*
X47862Y-18351D01*
X47840Y-17922D02*
X47862Y-17858D01*
X47862Y-17751D01*
X47840Y-17708D01*
X47819Y-17687D01*
X47776Y-17665D01*
X47733Y-17665D01*
X47690Y-17687D01*
X47669Y-17708D01*
X47647Y-17751D01*
X47626Y-17837D01*
X47605Y-17879D01*
X47583Y-17901D01*
X47540Y-17922D01*
X47497Y-17922D01*
X47455Y-17901D01*
X47433Y-17879D01*
X47412Y-17837D01*
X47412Y-17729D01*
X47433Y-17665D01*
X47862Y-17237D02*
X47862Y-17494D01*
X47862Y-17365D02*
X47412Y-17365D01*
X47476Y-17408D01*
X47519Y-17451D01*
X47540Y-17494D01*
X47412Y-16958D02*
X47412Y-16915D01*
X47433Y-16872D01*
X47455Y-16851D01*
X47497Y-16829D01*
X47583Y-16808D01*
X47690Y-16808D01*
X47776Y-16829D01*
X47819Y-16851D01*
X47840Y-16872D01*
X47862Y-16915D01*
X47862Y-16958D01*
X47840Y-17001D01*
X47819Y-17022D01*
X47776Y-17044D01*
X47690Y-17065D01*
X47583Y-17065D01*
X47497Y-17044D01*
X47455Y-17022D01*
X47433Y-17001D01*
X47412Y-16958D01*
X47605Y-16551D02*
X47583Y-16594D01*
X47562Y-16615D01*
X47519Y-16637D01*
X47497Y-16637D01*
X47455Y-16615D01*
X47433Y-16594D01*
X47412Y-16551D01*
X47412Y-16465D01*
X47433Y-16422D01*
X47455Y-16401D01*
X47497Y-16380D01*
X47519Y-16380D01*
X47562Y-16401D01*
X47583Y-16422D01*
X47605Y-16465D01*
X47605Y-16551D01*
X47626Y-16594D01*
X47647Y-16615D01*
X47690Y-16637D01*
X47776Y-16637D01*
X47819Y-16615D01*
X47840Y-16594D01*
X47862Y-16551D01*
X47862Y-16465D01*
X47840Y-16422D01*
X47819Y-16401D01*
X47776Y-16380D01*
X47690Y-16380D01*
X47647Y-16401D01*
X47626Y-16422D01*
X47605Y-16465D01*
X47412Y-15994D02*
X47412Y-16080D01*
X47433Y-16122D01*
X47455Y-16144D01*
X47519Y-16187D01*
X47605Y-16208D01*
X47776Y-16208D01*
X47819Y-16187D01*
X47840Y-16165D01*
X47862Y-16122D01*
X47862Y-16037D01*
X47840Y-15994D01*
X47819Y-15972D01*
X47776Y-15951D01*
X47669Y-15951D01*
X47626Y-15972D01*
X47605Y-15994D01*
X47583Y-16037D01*
X47583Y-16122D01*
X47605Y-16165D01*
X47626Y-16187D01*
X47669Y-16208D01*
X47862Y-15544D02*
X47862Y-15758D01*
X47412Y-15758D01*
G54D24*
X60280Y-36272D02*
X60280Y-36527D01*
X60295Y-36557D01*
X60310Y-36572D01*
X60340Y-36587D01*
X60400Y-36587D01*
X60430Y-36572D01*
X60445Y-36557D01*
X60460Y-36527D01*
X60460Y-36272D01*
X60625Y-36587D02*
X60685Y-36587D01*
X60715Y-36572D01*
X60730Y-36557D01*
X60760Y-36512D01*
X60775Y-36452D01*
X60775Y-36332D01*
X60760Y-36302D01*
X60745Y-36287D01*
X60715Y-36272D01*
X60655Y-36272D01*
X60625Y-36287D01*
X60610Y-36302D01*
X60595Y-36332D01*
X60595Y-36407D01*
X60610Y-36437D01*
X60625Y-36452D01*
X60655Y-36467D01*
X60715Y-36467D01*
X60745Y-36452D01*
X60760Y-36437D01*
X60775Y-36407D01*
X59317Y-38386D02*
X59516Y-38386D01*
X59388Y-38686D01*
X59758Y-38486D02*
X59758Y-38686D01*
X59687Y-38372D02*
X59616Y-38586D01*
X59801Y-38586D01*
X60058Y-38686D02*
X59915Y-38686D01*
X59915Y-38386D01*
X60129Y-38386D02*
X60328Y-38686D01*
X60328Y-38386D02*
X60129Y-38686D01*
X60613Y-38657D02*
X60599Y-38671D01*
X60556Y-38686D01*
X60528Y-38686D01*
X60485Y-38671D01*
X60456Y-38643D01*
X60442Y-38614D01*
X60428Y-38557D01*
X60428Y-38515D01*
X60442Y-38458D01*
X60456Y-38429D01*
X60485Y-38401D01*
X60528Y-38386D01*
X60556Y-38386D01*
X60599Y-38401D01*
X60613Y-38415D01*
X60727Y-38415D02*
X60741Y-38401D01*
X60770Y-38386D01*
X60841Y-38386D01*
X60870Y-38401D01*
X60884Y-38415D01*
X60898Y-38443D01*
X60898Y-38472D01*
X60884Y-38515D01*
X60713Y-38686D01*
X60898Y-38686D01*
X61155Y-38486D02*
X61155Y-38686D01*
X61083Y-38372D02*
X61012Y-38586D01*
X61197Y-38586D01*
X61454Y-38386D02*
X61311Y-38386D01*
X61297Y-38529D01*
X61311Y-38515D01*
X61340Y-38500D01*
X61411Y-38500D01*
X61440Y-38515D01*
X61454Y-38529D01*
X61468Y-38557D01*
X61468Y-38629D01*
X61454Y-38657D01*
X61440Y-38671D01*
X61411Y-38686D01*
X61340Y-38686D01*
X61311Y-38671D01*
X61297Y-38657D01*
X68280Y-36312D02*
X68280Y-36567D01*
X68295Y-36597D01*
X68310Y-36612D01*
X68340Y-36627D01*
X68400Y-36627D01*
X68430Y-36612D01*
X68445Y-36597D01*
X68460Y-36567D01*
X68460Y-36312D01*
X68655Y-36447D02*
X68625Y-36432D01*
X68610Y-36417D01*
X68595Y-36387D01*
X68595Y-36372D01*
X68610Y-36342D01*
X68625Y-36327D01*
X68655Y-36312D01*
X68715Y-36312D01*
X68745Y-36327D01*
X68760Y-36342D01*
X68775Y-36372D01*
X68775Y-36387D01*
X68760Y-36417D01*
X68745Y-36432D01*
X68715Y-36447D01*
X68655Y-36447D01*
X68625Y-36462D01*
X68610Y-36477D01*
X68595Y-36507D01*
X68595Y-36567D01*
X68610Y-36597D01*
X68625Y-36612D01*
X68655Y-36627D01*
X68715Y-36627D01*
X68745Y-36612D01*
X68760Y-36597D01*
X68775Y-36567D01*
X68775Y-36507D01*
X68760Y-36477D01*
X68745Y-36462D01*
X68715Y-36447D01*
X67421Y-38384D02*
X67620Y-38384D01*
X67492Y-38684D01*
X67862Y-38484D02*
X67862Y-38684D01*
X67791Y-38370D02*
X67720Y-38584D01*
X67905Y-38584D01*
X68161Y-38684D02*
X68019Y-38684D01*
X68019Y-38384D01*
X68233Y-38384D02*
X68432Y-38684D01*
X68432Y-38384D02*
X68233Y-38684D01*
X68717Y-38655D02*
X68703Y-38669D01*
X68660Y-38684D01*
X68632Y-38684D01*
X68589Y-38669D01*
X68560Y-38641D01*
X68546Y-38612D01*
X68532Y-38555D01*
X68532Y-38513D01*
X68546Y-38456D01*
X68560Y-38427D01*
X68589Y-38399D01*
X68632Y-38384D01*
X68660Y-38384D01*
X68703Y-38399D01*
X68717Y-38413D01*
X68831Y-38413D02*
X68845Y-38399D01*
X68874Y-38384D01*
X68945Y-38384D01*
X68974Y-38399D01*
X68988Y-38413D01*
X69002Y-38441D01*
X69002Y-38470D01*
X68988Y-38513D01*
X68817Y-38684D01*
X69002Y-38684D01*
X69259Y-38484D02*
X69259Y-38684D01*
X69187Y-38370D02*
X69116Y-38584D01*
X69301Y-38584D01*
X69558Y-38384D02*
X69415Y-38384D01*
X69401Y-38527D01*
X69415Y-38513D01*
X69444Y-38498D01*
X69515Y-38498D01*
X69544Y-38513D01*
X69558Y-38527D01*
X69572Y-38555D01*
X69572Y-38627D01*
X69558Y-38655D01*
X69544Y-38669D01*
X69515Y-38684D01*
X69444Y-38684D01*
X69415Y-38669D01*
X69401Y-38655D01*
X64210Y-36272D02*
X64210Y-36527D01*
X64225Y-36557D01*
X64240Y-36572D01*
X64270Y-36587D01*
X64330Y-36587D01*
X64360Y-36572D01*
X64375Y-36557D01*
X64390Y-36527D01*
X64390Y-36272D01*
X64705Y-36587D02*
X64525Y-36587D01*
X64615Y-36587D02*
X64615Y-36272D01*
X64585Y-36317D01*
X64555Y-36347D01*
X64525Y-36362D01*
X65005Y-36587D02*
X64825Y-36587D01*
X64915Y-36587D02*
X64915Y-36272D01*
X64885Y-36317D01*
X64855Y-36347D01*
X64825Y-36362D01*
X63417Y-38386D02*
X63616Y-38386D01*
X63488Y-38686D01*
X63858Y-38486D02*
X63858Y-38686D01*
X63787Y-38372D02*
X63716Y-38586D01*
X63901Y-38586D01*
X64158Y-38686D02*
X64015Y-38686D01*
X64015Y-38386D01*
X64229Y-38386D02*
X64428Y-38686D01*
X64428Y-38386D02*
X64229Y-38686D01*
X64713Y-38657D02*
X64699Y-38671D01*
X64656Y-38686D01*
X64628Y-38686D01*
X64585Y-38671D01*
X64556Y-38643D01*
X64542Y-38614D01*
X64528Y-38557D01*
X64528Y-38515D01*
X64542Y-38458D01*
X64556Y-38429D01*
X64585Y-38401D01*
X64628Y-38386D01*
X64656Y-38386D01*
X64699Y-38401D01*
X64713Y-38415D01*
X64827Y-38415D02*
X64841Y-38401D01*
X64870Y-38386D01*
X64941Y-38386D01*
X64970Y-38401D01*
X64984Y-38415D01*
X64998Y-38443D01*
X64998Y-38472D01*
X64984Y-38515D01*
X64813Y-38686D01*
X64998Y-38686D01*
X65255Y-38486D02*
X65255Y-38686D01*
X65183Y-38372D02*
X65112Y-38586D01*
X65297Y-38586D01*
X65554Y-38386D02*
X65411Y-38386D01*
X65397Y-38529D01*
X65411Y-38515D01*
X65440Y-38500D01*
X65511Y-38500D01*
X65540Y-38515D01*
X65554Y-38529D01*
X65568Y-38557D01*
X65568Y-38629D01*
X65554Y-38657D01*
X65540Y-38671D01*
X65511Y-38686D01*
X65440Y-38686D01*
X65411Y-38671D01*
X65397Y-38657D01*
X72110Y-36332D02*
X72110Y-36587D01*
X72125Y-36617D01*
X72140Y-36632D01*
X72170Y-36647D01*
X72230Y-36647D01*
X72260Y-36632D01*
X72275Y-36617D01*
X72290Y-36587D01*
X72290Y-36332D01*
X72605Y-36647D02*
X72425Y-36647D01*
X72515Y-36647D02*
X72515Y-36332D01*
X72485Y-36377D01*
X72455Y-36407D01*
X72425Y-36422D01*
X72800Y-36332D02*
X72830Y-36332D01*
X72860Y-36347D01*
X72875Y-36362D01*
X72890Y-36392D01*
X72905Y-36452D01*
X72905Y-36527D01*
X72890Y-36587D01*
X72875Y-36617D01*
X72860Y-36632D01*
X72830Y-36647D01*
X72800Y-36647D01*
X72770Y-36632D01*
X72755Y-36617D01*
X72740Y-36587D01*
X72725Y-36527D01*
X72725Y-36452D01*
X72740Y-36392D01*
X72755Y-36362D01*
X72770Y-36347D01*
X72800Y-36332D01*
X71417Y-38384D02*
X71616Y-38384D01*
X71488Y-38684D01*
X71858Y-38484D02*
X71858Y-38684D01*
X71787Y-38370D02*
X71716Y-38584D01*
X71901Y-38584D01*
X72158Y-38684D02*
X72015Y-38684D01*
X72015Y-38384D01*
X72229Y-38384D02*
X72428Y-38684D01*
X72428Y-38384D02*
X72229Y-38684D01*
X72713Y-38655D02*
X72699Y-38669D01*
X72656Y-38684D01*
X72628Y-38684D01*
X72585Y-38669D01*
X72556Y-38641D01*
X72542Y-38612D01*
X72528Y-38555D01*
X72528Y-38513D01*
X72542Y-38456D01*
X72556Y-38427D01*
X72585Y-38399D01*
X72628Y-38384D01*
X72656Y-38384D01*
X72699Y-38399D01*
X72713Y-38413D01*
X72827Y-38413D02*
X72841Y-38399D01*
X72870Y-38384D01*
X72941Y-38384D01*
X72970Y-38399D01*
X72984Y-38413D01*
X72998Y-38441D01*
X72998Y-38470D01*
X72984Y-38513D01*
X72813Y-38684D01*
X72998Y-38684D01*
X73255Y-38484D02*
X73255Y-38684D01*
X73183Y-38370D02*
X73112Y-38584D01*
X73297Y-38584D01*
X73554Y-38384D02*
X73411Y-38384D01*
X73397Y-38527D01*
X73411Y-38513D01*
X73440Y-38498D01*
X73511Y-38498D01*
X73540Y-38513D01*
X73554Y-38527D01*
X73568Y-38555D01*
X73568Y-38627D01*
X73554Y-38655D01*
X73540Y-38669D01*
X73511Y-38684D01*
X73440Y-38684D01*
X73411Y-38669D01*
X73397Y-38655D01*
X42600Y-17452D02*
X42600Y-17707D01*
X42615Y-17737D01*
X42630Y-17752D01*
X42660Y-17767D01*
X42720Y-17767D01*
X42750Y-17752D01*
X42765Y-17737D01*
X42780Y-17707D01*
X42780Y-17452D01*
X42900Y-17452D02*
X43110Y-17452D01*
X42975Y-17767D01*
X43280Y-16844D02*
X43280Y-16450D01*
X43430Y-16450D01*
X43468Y-16469D01*
X43486Y-16488D01*
X43505Y-16525D01*
X43505Y-16581D01*
X43486Y-16619D01*
X43468Y-16638D01*
X43430Y-16656D01*
X43280Y-16656D01*
X43899Y-16806D02*
X43880Y-16825D01*
X43824Y-16844D01*
X43787Y-16844D01*
X43730Y-16825D01*
X43693Y-16788D01*
X43674Y-16750D01*
X43655Y-16675D01*
X43655Y-16619D01*
X43674Y-16544D01*
X43693Y-16506D01*
X43730Y-16469D01*
X43787Y-16450D01*
X43824Y-16450D01*
X43880Y-16469D01*
X43899Y-16488D01*
X44049Y-16731D02*
X44237Y-16731D01*
X44012Y-16844D02*
X44143Y-16450D01*
X44274Y-16844D01*
X44424Y-16844D02*
X44499Y-16844D01*
X44537Y-16825D01*
X44556Y-16806D01*
X44593Y-16750D01*
X44612Y-16675D01*
X44612Y-16525D01*
X44593Y-16488D01*
X44575Y-16469D01*
X44537Y-16450D01*
X44462Y-16450D01*
X44424Y-16469D01*
X44406Y-16488D01*
X44387Y-16525D01*
X44387Y-16619D01*
X44406Y-16656D01*
X44424Y-16675D01*
X44462Y-16694D01*
X44537Y-16694D01*
X44575Y-16675D01*
X44593Y-16656D01*
X44612Y-16619D01*
X44969Y-16450D02*
X44781Y-16450D01*
X44762Y-16638D01*
X44781Y-16619D01*
X44818Y-16600D01*
X44912Y-16600D01*
X44950Y-16619D01*
X44969Y-16638D01*
X44987Y-16675D01*
X44987Y-16769D01*
X44969Y-16806D01*
X44950Y-16825D01*
X44912Y-16844D01*
X44818Y-16844D01*
X44781Y-16825D01*
X44762Y-16806D01*
X45325Y-16450D02*
X45250Y-16450D01*
X45212Y-16469D01*
X45194Y-16488D01*
X45156Y-16544D01*
X45137Y-16619D01*
X45137Y-16769D01*
X45156Y-16806D01*
X45175Y-16825D01*
X45212Y-16844D01*
X45288Y-16844D01*
X45325Y-16825D01*
X45344Y-16806D01*
X45363Y-16769D01*
X45363Y-16675D01*
X45344Y-16638D01*
X45325Y-16619D01*
X45288Y-16600D01*
X45212Y-16600D01*
X45175Y-16619D01*
X45156Y-16638D01*
X45137Y-16675D01*
X45700Y-16581D02*
X45700Y-16844D01*
X45606Y-16431D02*
X45513Y-16713D01*
X45757Y-16713D01*
G54D13*
X84482Y-15182D02*
X84482Y-15668D01*
X84511Y-15725D01*
X84540Y-15754D01*
X84597Y-15782D01*
X84711Y-15782D01*
X84768Y-15754D01*
X84797Y-15725D01*
X84825Y-15668D01*
X84825Y-15182D01*
X85368Y-15182D02*
X85254Y-15182D01*
X85197Y-15211D01*
X85168Y-15240D01*
X85111Y-15325D01*
X85082Y-15440D01*
X85082Y-15668D01*
X85111Y-15725D01*
X85140Y-15754D01*
X85197Y-15782D01*
X85311Y-15782D01*
X85368Y-15754D01*
X85397Y-15725D01*
X85425Y-15668D01*
X85425Y-15525D01*
X85397Y-15468D01*
X85368Y-15440D01*
X85311Y-15411D01*
X85197Y-15411D01*
X85140Y-15440D01*
X85111Y-15468D01*
X85082Y-15525D01*
X82334Y-21048D02*
X82362Y-20962D01*
X82362Y-20820D01*
X82334Y-20762D01*
X82305Y-20734D01*
X82248Y-20705D01*
X82191Y-20705D01*
X82134Y-20734D01*
X82105Y-20762D01*
X82077Y-20820D01*
X82048Y-20934D01*
X82020Y-20991D01*
X81991Y-21020D01*
X81934Y-21048D01*
X81877Y-21048D01*
X81820Y-21020D01*
X81791Y-20991D01*
X81762Y-20934D01*
X81762Y-20791D01*
X81791Y-20705D01*
X81820Y-20477D02*
X81791Y-20448D01*
X81762Y-20391D01*
X81762Y-20248D01*
X81791Y-20191D01*
X81820Y-20162D01*
X81877Y-20134D01*
X81934Y-20134D01*
X82020Y-20162D01*
X82362Y-20505D01*
X82362Y-20134D01*
X82362Y-19848D02*
X82362Y-19734D01*
X82334Y-19677D01*
X82305Y-19648D01*
X82220Y-19591D01*
X82105Y-19562D01*
X81877Y-19562D01*
X81820Y-19591D01*
X81791Y-19620D01*
X81762Y-19677D01*
X81762Y-19791D01*
X81791Y-19848D01*
X81820Y-19877D01*
X81877Y-19905D01*
X82020Y-19905D01*
X82077Y-19877D01*
X82105Y-19848D01*
X82134Y-19791D01*
X82134Y-19677D01*
X82105Y-19620D01*
X82077Y-19591D01*
X82020Y-19562D01*
X82191Y-19334D02*
X82191Y-19048D01*
X82362Y-19391D02*
X81762Y-19191D01*
X82362Y-18991D01*
X82362Y-18505D02*
X82362Y-18791D01*
X81762Y-18791D01*
X81762Y-18191D02*
X81762Y-18134D01*
X81791Y-18077D01*
X81820Y-18048D01*
X81877Y-18020D01*
X81991Y-17991D01*
X82134Y-17991D01*
X82248Y-18020D01*
X82305Y-18048D01*
X82334Y-18077D01*
X82362Y-18134D01*
X82362Y-18191D01*
X82334Y-18248D01*
X82305Y-18277D01*
X82248Y-18305D01*
X82134Y-18334D01*
X81991Y-18334D01*
X81877Y-18305D01*
X81820Y-18277D01*
X81791Y-18248D01*
X81762Y-18191D01*
X82362Y-17419D02*
X82362Y-17762D01*
X82362Y-17591D02*
X81762Y-17591D01*
X81848Y-17648D01*
X81905Y-17705D01*
X81934Y-17762D01*
X81762Y-16905D02*
X81762Y-17019D01*
X81791Y-17077D01*
X81820Y-17105D01*
X81905Y-17162D01*
X82020Y-17191D01*
X82248Y-17191D01*
X82305Y-17162D01*
X82334Y-17134D01*
X82362Y-17077D01*
X82362Y-16962D01*
X82334Y-16905D01*
X82305Y-16877D01*
X82248Y-16848D01*
X82105Y-16848D01*
X82048Y-16877D01*
X82020Y-16905D01*
X81991Y-16962D01*
X81991Y-17077D01*
X82020Y-17134D01*
X82048Y-17162D01*
X82105Y-17191D01*
X81762Y-16419D02*
X82191Y-16419D01*
X82277Y-16448D01*
X82334Y-16505D01*
X82362Y-16591D01*
X82362Y-16648D01*
X67232Y-15192D02*
X67232Y-15678D01*
X67261Y-15735D01*
X67290Y-15764D01*
X67347Y-15792D01*
X67461Y-15792D01*
X67518Y-15764D01*
X67547Y-15735D01*
X67575Y-15678D01*
X67575Y-15192D01*
X68147Y-15192D02*
X67861Y-15192D01*
X67832Y-15478D01*
X67861Y-15450D01*
X67918Y-15421D01*
X68061Y-15421D01*
X68118Y-15450D01*
X68147Y-15478D01*
X68175Y-15535D01*
X68175Y-15678D01*
X68147Y-15735D01*
X68118Y-15764D01*
X68061Y-15792D01*
X67918Y-15792D01*
X67861Y-15764D01*
X67832Y-15735D01*
X68014Y-21068D02*
X68042Y-20982D01*
X68042Y-20840D01*
X68014Y-20782D01*
X67985Y-20754D01*
X67928Y-20725D01*
X67871Y-20725D01*
X67814Y-20754D01*
X67785Y-20782D01*
X67757Y-20840D01*
X67728Y-20954D01*
X67700Y-21011D01*
X67671Y-21040D01*
X67614Y-21068D01*
X67557Y-21068D01*
X67500Y-21040D01*
X67471Y-21011D01*
X67442Y-20954D01*
X67442Y-20811D01*
X67471Y-20725D01*
X67500Y-20497D02*
X67471Y-20468D01*
X67442Y-20411D01*
X67442Y-20268D01*
X67471Y-20211D01*
X67500Y-20182D01*
X67557Y-20154D01*
X67614Y-20154D01*
X67700Y-20182D01*
X68042Y-20525D01*
X68042Y-20154D01*
X68042Y-19868D02*
X68042Y-19754D01*
X68014Y-19697D01*
X67985Y-19668D01*
X67900Y-19611D01*
X67785Y-19582D01*
X67557Y-19582D01*
X67500Y-19611D01*
X67471Y-19640D01*
X67442Y-19697D01*
X67442Y-19811D01*
X67471Y-19868D01*
X67500Y-19897D01*
X67557Y-19925D01*
X67700Y-19925D01*
X67757Y-19897D01*
X67785Y-19868D01*
X67814Y-19811D01*
X67814Y-19697D01*
X67785Y-19640D01*
X67757Y-19611D01*
X67700Y-19582D01*
X67871Y-19354D02*
X67871Y-19068D01*
X68042Y-19411D02*
X67442Y-19211D01*
X68042Y-19011D01*
X68042Y-18525D02*
X68042Y-18811D01*
X67442Y-18811D01*
X67442Y-18211D02*
X67442Y-18154D01*
X67471Y-18097D01*
X67500Y-18068D01*
X67557Y-18040D01*
X67671Y-18011D01*
X67814Y-18011D01*
X67928Y-18040D01*
X67985Y-18068D01*
X68014Y-18097D01*
X68042Y-18154D01*
X68042Y-18211D01*
X68014Y-18268D01*
X67985Y-18297D01*
X67928Y-18325D01*
X67814Y-18354D01*
X67671Y-18354D01*
X67557Y-18325D01*
X67500Y-18297D01*
X67471Y-18268D01*
X67442Y-18211D01*
X68042Y-17439D02*
X68042Y-17782D01*
X68042Y-17611D02*
X67442Y-17611D01*
X67528Y-17668D01*
X67585Y-17725D01*
X67614Y-17782D01*
X67442Y-16925D02*
X67442Y-17039D01*
X67471Y-17097D01*
X67500Y-17125D01*
X67585Y-17182D01*
X67700Y-17211D01*
X67928Y-17211D01*
X67985Y-17182D01*
X68014Y-17154D01*
X68042Y-17097D01*
X68042Y-16982D01*
X68014Y-16925D01*
X67985Y-16897D01*
X67928Y-16868D01*
X67785Y-16868D01*
X67728Y-16897D01*
X67700Y-16925D01*
X67671Y-16982D01*
X67671Y-17097D01*
X67700Y-17154D01*
X67728Y-17182D01*
X67785Y-17211D01*
X67442Y-16439D02*
X67871Y-16439D01*
X67957Y-16468D01*
X68014Y-16525D01*
X68042Y-16611D01*
X68042Y-16668D01*
X67215Y-22570D02*
X67215Y-23056D01*
X67243Y-23113D01*
X67272Y-23141D01*
X67329Y-23170D01*
X67443Y-23170D01*
X67501Y-23141D01*
X67529Y-23113D01*
X67558Y-23056D01*
X67558Y-22570D01*
X67786Y-22570D02*
X68158Y-22570D01*
X67958Y-22798D01*
X68043Y-22798D01*
X68101Y-22827D01*
X68129Y-22856D01*
X68158Y-22913D01*
X68158Y-23056D01*
X68129Y-23113D01*
X68101Y-23141D01*
X68043Y-23170D01*
X67872Y-23170D01*
X67815Y-23141D01*
X67786Y-23113D01*
X65515Y-29298D02*
X65801Y-29298D01*
X65458Y-29470D02*
X65658Y-28870D01*
X65858Y-29470D01*
X66029Y-29441D02*
X66115Y-29470D01*
X66258Y-29470D01*
X66315Y-29441D01*
X66343Y-29413D01*
X66372Y-29356D01*
X66372Y-29298D01*
X66343Y-29241D01*
X66315Y-29213D01*
X66258Y-29184D01*
X66143Y-29156D01*
X66086Y-29127D01*
X66058Y-29098D01*
X66029Y-29041D01*
X66029Y-28984D01*
X66058Y-28927D01*
X66086Y-28898D01*
X66143Y-28870D01*
X66286Y-28870D01*
X66372Y-28898D01*
X66886Y-28870D02*
X66772Y-28870D01*
X66715Y-28898D01*
X66686Y-28927D01*
X66629Y-29013D01*
X66601Y-29127D01*
X66601Y-29356D01*
X66629Y-29413D01*
X66658Y-29441D01*
X66715Y-29470D01*
X66829Y-29470D01*
X66886Y-29441D01*
X66915Y-29413D01*
X66943Y-29356D01*
X66943Y-29213D01*
X66915Y-29156D01*
X66886Y-29127D01*
X66829Y-29098D01*
X66715Y-29098D01*
X66658Y-29127D01*
X66629Y-29156D01*
X66601Y-29213D01*
X67543Y-29413D02*
X67515Y-29441D01*
X67429Y-29470D01*
X67372Y-29470D01*
X67286Y-29441D01*
X67229Y-29384D01*
X67201Y-29327D01*
X67172Y-29213D01*
X67172Y-29127D01*
X67201Y-29013D01*
X67229Y-28956D01*
X67286Y-28898D01*
X67372Y-28870D01*
X67429Y-28870D01*
X67515Y-28898D01*
X67543Y-28927D01*
X67743Y-28870D02*
X68115Y-28870D01*
X67915Y-29098D01*
X68001Y-29098D01*
X68058Y-29127D01*
X68086Y-29156D01*
X68115Y-29213D01*
X68115Y-29356D01*
X68086Y-29413D01*
X68058Y-29441D01*
X68001Y-29470D01*
X67829Y-29470D01*
X67772Y-29441D01*
X67743Y-29413D01*
X68343Y-28927D02*
X68372Y-28898D01*
X68429Y-28870D01*
X68572Y-28870D01*
X68629Y-28898D01*
X68658Y-28927D01*
X68686Y-28984D01*
X68686Y-29041D01*
X68658Y-29127D01*
X68315Y-29470D01*
X68686Y-29470D01*
X69258Y-29470D02*
X68915Y-29470D01*
X69086Y-29470D02*
X69086Y-28870D01*
X69029Y-28956D01*
X68972Y-29013D01*
X68915Y-29041D01*
X69772Y-28870D02*
X69658Y-28870D01*
X69601Y-28898D01*
X69572Y-28927D01*
X69515Y-29013D01*
X69486Y-29127D01*
X69486Y-29356D01*
X69515Y-29413D01*
X69543Y-29441D01*
X69601Y-29470D01*
X69715Y-29470D01*
X69772Y-29441D01*
X69801Y-29413D01*
X69829Y-29356D01*
X69829Y-29213D01*
X69801Y-29156D01*
X69772Y-29127D01*
X69715Y-29098D01*
X69601Y-29098D01*
X69543Y-29127D01*
X69515Y-29156D01*
X69486Y-29213D01*
X81987Y-22574D02*
X81987Y-23060D01*
X82015Y-23117D01*
X82044Y-23145D01*
X82101Y-23174D01*
X82215Y-23174D01*
X82273Y-23145D01*
X82301Y-23117D01*
X82330Y-23060D01*
X82330Y-22574D01*
X82873Y-22774D02*
X82873Y-23174D01*
X82730Y-22545D02*
X82587Y-22974D01*
X82958Y-22974D01*
X80287Y-29302D02*
X80573Y-29302D01*
X80230Y-29474D02*
X80430Y-28874D01*
X80630Y-29474D01*
X80801Y-29445D02*
X80887Y-29474D01*
X81030Y-29474D01*
X81087Y-29445D01*
X81115Y-29417D01*
X81144Y-29360D01*
X81144Y-29302D01*
X81115Y-29245D01*
X81087Y-29217D01*
X81030Y-29188D01*
X80915Y-29160D01*
X80858Y-29131D01*
X80830Y-29102D01*
X80801Y-29045D01*
X80801Y-28988D01*
X80830Y-28931D01*
X80858Y-28902D01*
X80915Y-28874D01*
X81058Y-28874D01*
X81144Y-28902D01*
X81658Y-28874D02*
X81544Y-28874D01*
X81487Y-28902D01*
X81458Y-28931D01*
X81401Y-29017D01*
X81373Y-29131D01*
X81373Y-29360D01*
X81401Y-29417D01*
X81430Y-29445D01*
X81487Y-29474D01*
X81601Y-29474D01*
X81658Y-29445D01*
X81687Y-29417D01*
X81715Y-29360D01*
X81715Y-29217D01*
X81687Y-29160D01*
X81658Y-29131D01*
X81601Y-29102D01*
X81487Y-29102D01*
X81430Y-29131D01*
X81401Y-29160D01*
X81373Y-29217D01*
X82315Y-29417D02*
X82287Y-29445D01*
X82201Y-29474D01*
X82144Y-29474D01*
X82058Y-29445D01*
X82001Y-29388D01*
X81973Y-29331D01*
X81944Y-29217D01*
X81944Y-29131D01*
X81973Y-29017D01*
X82001Y-28960D01*
X82058Y-28902D01*
X82144Y-28874D01*
X82201Y-28874D01*
X82287Y-28902D01*
X82315Y-28931D01*
X82515Y-28874D02*
X82887Y-28874D01*
X82687Y-29102D01*
X82773Y-29102D01*
X82830Y-29131D01*
X82858Y-29160D01*
X82887Y-29217D01*
X82887Y-29360D01*
X82858Y-29417D01*
X82830Y-29445D01*
X82773Y-29474D01*
X82601Y-29474D01*
X82544Y-29445D01*
X82515Y-29417D01*
X83115Y-28931D02*
X83144Y-28902D01*
X83201Y-28874D01*
X83344Y-28874D01*
X83401Y-28902D01*
X83430Y-28931D01*
X83458Y-28988D01*
X83458Y-29045D01*
X83430Y-29131D01*
X83087Y-29474D01*
X83458Y-29474D01*
X84030Y-29474D02*
X83687Y-29474D01*
X83858Y-29474D02*
X83858Y-28874D01*
X83801Y-28960D01*
X83744Y-29017D01*
X83687Y-29045D01*
X84544Y-28874D02*
X84430Y-28874D01*
X84373Y-28902D01*
X84344Y-28931D01*
X84287Y-29017D01*
X84258Y-29131D01*
X84258Y-29360D01*
X84287Y-29417D01*
X84315Y-29445D01*
X84373Y-29474D01*
X84487Y-29474D01*
X84544Y-29445D01*
X84573Y-29417D01*
X84601Y-29360D01*
X84601Y-29217D01*
X84573Y-29160D01*
X84544Y-29131D01*
X84487Y-29102D01*
X84373Y-29102D01*
X84315Y-29131D01*
X84287Y-29160D01*
X84258Y-29217D01*
G54D18*
X48602Y-27224D02*
X49088Y-27224D01*
X49145Y-27205D01*
X49174Y-27186D01*
X49202Y-27148D01*
X49202Y-27072D01*
X49174Y-27034D01*
X49145Y-27015D01*
X49088Y-26996D01*
X48602Y-26996D01*
X48660Y-26824D02*
X48631Y-26805D01*
X48602Y-26767D01*
X48602Y-26672D01*
X48631Y-26634D01*
X48660Y-26615D01*
X48717Y-26596D01*
X48774Y-26596D01*
X48860Y-26615D01*
X49202Y-26843D01*
X49202Y-26596D01*
G54D13*
G54D18*
X55517Y-30224D02*
X56117Y-29958D01*
X55517Y-29958D02*
X56117Y-30224D01*
X56060Y-29577D02*
X56089Y-29596D01*
X56117Y-29653D01*
X56117Y-29691D01*
X56089Y-29748D01*
X56032Y-29786D01*
X55975Y-29805D01*
X55860Y-29824D01*
X55775Y-29824D01*
X55660Y-29805D01*
X55603Y-29786D01*
X55546Y-29748D01*
X55517Y-29691D01*
X55517Y-29653D01*
X55546Y-29596D01*
X55575Y-29577D01*
X56117Y-29386D02*
X56117Y-29310D01*
X56089Y-29272D01*
X56060Y-29253D01*
X55975Y-29215D01*
X55860Y-29196D01*
X55632Y-29196D01*
X55575Y-29215D01*
X55546Y-29234D01*
X55517Y-29272D01*
X55517Y-29348D01*
X55546Y-29386D01*
X55575Y-29405D01*
X55632Y-29424D01*
X55775Y-29424D01*
X55832Y-29405D01*
X55860Y-29386D01*
X55889Y-29348D01*
X55889Y-29272D01*
X55860Y-29234D01*
X55832Y-29215D01*
X55775Y-29196D01*
X55517Y-28834D02*
X55517Y-29024D01*
X55803Y-29044D01*
X55775Y-29024D01*
X55746Y-28986D01*
X55746Y-28891D01*
X55775Y-28853D01*
X55803Y-28834D01*
X55860Y-28815D01*
X56003Y-28815D01*
X56060Y-28834D01*
X56089Y-28853D01*
X56117Y-28891D01*
X56117Y-28986D01*
X56089Y-29024D01*
X56060Y-29044D01*
X56117Y-28434D02*
X56117Y-28663D01*
X56117Y-28548D02*
X55517Y-28548D01*
X55603Y-28586D01*
X55660Y-28624D01*
X55689Y-28663D01*
X55717Y-28091D02*
X56117Y-28091D01*
X55489Y-28186D02*
X55917Y-28282D01*
X55917Y-28034D01*
X55717Y-27710D02*
X56117Y-27710D01*
X55489Y-27805D02*
X55917Y-27901D01*
X55917Y-27653D01*
X55517Y-27539D02*
X56117Y-27272D01*
X55517Y-27272D02*
X56117Y-27539D01*
X56117Y-26929D02*
X56117Y-27120D01*
X55517Y-27120D01*
X55889Y-26796D02*
X55889Y-26491D01*
X56117Y-26091D02*
X56117Y-26320D01*
X56117Y-26205D02*
X55517Y-26205D01*
X55603Y-26244D01*
X55660Y-26282D01*
X55689Y-26320D01*
X55517Y-25844D02*
X55517Y-25805D01*
X55546Y-25767D01*
X55575Y-25748D01*
X55632Y-25729D01*
X55746Y-25710D01*
X55889Y-25710D01*
X56003Y-25729D01*
X56060Y-25748D01*
X56089Y-25767D01*
X56117Y-25805D01*
X56117Y-25844D01*
X56089Y-25882D01*
X56060Y-25901D01*
X56003Y-25920D01*
X55889Y-25939D01*
X55746Y-25939D01*
X55632Y-25920D01*
X55575Y-25901D01*
X55546Y-25882D01*
X55517Y-25844D01*
X55517Y-25596D02*
X55517Y-25367D01*
X56117Y-25482D02*
X55517Y-25482D01*
X56175Y-24967D02*
X56146Y-25005D01*
X56089Y-25044D01*
X56003Y-25101D01*
X55975Y-25139D01*
X55975Y-25177D01*
X56117Y-25158D02*
X56089Y-25196D01*
X56032Y-25234D01*
X55917Y-25253D01*
X55717Y-25253D01*
X55603Y-25234D01*
X55546Y-25196D01*
X55517Y-25158D01*
X55517Y-25082D01*
X55546Y-25044D01*
X55603Y-25005D01*
X55717Y-24986D01*
X55917Y-24986D01*
X56032Y-25005D01*
X56089Y-25044D01*
X56117Y-25082D01*
X56117Y-25158D01*
X55546Y-24605D02*
X55517Y-24644D01*
X55517Y-24701D01*
X55546Y-24758D01*
X55603Y-24796D01*
X55660Y-24815D01*
X55775Y-24834D01*
X55860Y-24834D01*
X55975Y-24815D01*
X56032Y-24796D01*
X56089Y-24758D01*
X56117Y-24701D01*
X56117Y-24663D01*
X56089Y-24605D01*
X56060Y-24586D01*
X55860Y-24586D01*
X55860Y-24663D01*
X56117Y-24205D02*
X56117Y-24434D01*
X56117Y-24320D02*
X55517Y-24320D01*
X55603Y-24358D01*
X55660Y-24396D01*
X55689Y-24434D01*
X55717Y-23863D02*
X56117Y-23863D01*
X55489Y-23958D02*
X55917Y-24053D01*
X55917Y-23805D01*
X55717Y-23482D02*
X56117Y-23482D01*
X55489Y-23577D02*
X55917Y-23672D01*
X55917Y-23425D01*
X56060Y-23044D02*
X56089Y-23063D01*
X56117Y-23120D01*
X56117Y-23158D01*
X56089Y-23215D01*
X56032Y-23253D01*
X55975Y-23272D01*
X55860Y-23291D01*
X55775Y-23291D01*
X55660Y-23272D01*
X55603Y-23253D01*
X55546Y-23215D01*
X55517Y-23158D01*
X55517Y-23120D01*
X55546Y-23063D01*
X55575Y-23044D01*
G54D13*
G54D12*
X85337Y-37393D02*
X85324Y-37406D01*
X85284Y-37419D01*
X85258Y-37419D01*
X85219Y-37406D01*
X85192Y-37380D01*
X85179Y-37353D01*
X85166Y-37301D01*
X85166Y-37261D01*
X85179Y-37209D01*
X85192Y-37183D01*
X85219Y-37156D01*
X85258Y-37143D01*
X85284Y-37143D01*
X85324Y-37156D01*
X85337Y-37170D01*
X85429Y-37143D02*
X85612Y-37143D01*
X85494Y-37419D01*
X85269Y-36819D02*
X85111Y-36819D01*
X85190Y-36819D02*
X85190Y-36543D01*
X85164Y-36583D01*
X85137Y-36609D01*
X85111Y-36622D01*
X85505Y-36635D02*
X85505Y-36819D01*
X85387Y-36635D02*
X85387Y-36780D01*
X85400Y-36806D01*
X85426Y-36819D01*
X85465Y-36819D01*
X85492Y-36806D01*
X85505Y-36793D01*
X85728Y-36675D02*
X85636Y-36675D01*
X85636Y-36819D02*
X85636Y-36543D01*
X85767Y-36543D01*
G54D25*
X54707Y-14801D02*
X54717Y-14810D01*
X54726Y-14836D01*
X54726Y-14853D01*
X54717Y-14878D01*
X54698Y-14896D01*
X54679Y-14904D01*
X54641Y-14913D01*
X54612Y-14913D01*
X54574Y-14904D01*
X54555Y-14896D01*
X54536Y-14878D01*
X54526Y-14853D01*
X54526Y-14836D01*
X54536Y-14810D01*
X54546Y-14801D01*
X54546Y-14733D02*
X54536Y-14724D01*
X54526Y-14707D01*
X54526Y-14664D01*
X54536Y-14647D01*
X54546Y-14638D01*
X54565Y-14630D01*
X54584Y-14630D01*
X54612Y-14638D01*
X54726Y-14741D01*
X54726Y-14630D01*
X54726Y-14458D02*
X54726Y-14561D01*
X54726Y-14510D02*
X54526Y-14510D01*
X54555Y-14527D01*
X54574Y-14544D01*
X54584Y-14561D01*
X55176Y-15067D02*
X55176Y-15050D01*
X55186Y-15033D01*
X55196Y-15024D01*
X55215Y-15016D01*
X55253Y-15007D01*
X55300Y-15007D01*
X55338Y-15016D01*
X55357Y-15024D01*
X55367Y-15033D01*
X55376Y-15050D01*
X55376Y-15067D01*
X55367Y-15084D01*
X55357Y-15093D01*
X55338Y-15101D01*
X55300Y-15110D01*
X55253Y-15110D01*
X55215Y-15101D01*
X55196Y-15093D01*
X55186Y-15084D01*
X55176Y-15067D01*
X55357Y-14930D02*
X55367Y-14921D01*
X55376Y-14930D01*
X55367Y-14938D01*
X55357Y-14930D01*
X55376Y-14930D01*
X55176Y-14810D02*
X55176Y-14793D01*
X55186Y-14776D01*
X55196Y-14767D01*
X55215Y-14758D01*
X55253Y-14750D01*
X55300Y-14750D01*
X55338Y-14758D01*
X55357Y-14767D01*
X55367Y-14776D01*
X55376Y-14793D01*
X55376Y-14810D01*
X55367Y-14827D01*
X55357Y-14836D01*
X55338Y-14844D01*
X55300Y-14853D01*
X55253Y-14853D01*
X55215Y-14844D01*
X55196Y-14836D01*
X55186Y-14827D01*
X55176Y-14810D01*
X55376Y-14578D02*
X55376Y-14681D01*
X55376Y-14630D02*
X55176Y-14630D01*
X55205Y-14647D01*
X55224Y-14664D01*
X55234Y-14681D01*
X55243Y-14424D02*
X55376Y-14424D01*
X55243Y-14501D02*
X55348Y-14501D01*
X55367Y-14493D01*
X55376Y-14476D01*
X55376Y-14450D01*
X55367Y-14433D01*
X55357Y-14424D01*
X55272Y-14278D02*
X55272Y-14338D01*
X55376Y-14338D02*
X55176Y-14338D01*
X55176Y-14253D01*
X42384Y-16311D02*
X42375Y-16321D01*
X42350Y-16330D01*
X42332Y-16330D01*
X42307Y-16321D01*
X42290Y-16302D01*
X42281Y-16283D01*
X42272Y-16245D01*
X42272Y-16216D01*
X42281Y-16178D01*
X42290Y-16159D01*
X42307Y-16140D01*
X42332Y-16130D01*
X42350Y-16130D01*
X42375Y-16140D01*
X42384Y-16150D01*
X42452Y-16150D02*
X42461Y-16140D01*
X42478Y-16130D01*
X42521Y-16130D01*
X42538Y-16140D01*
X42547Y-16150D01*
X42555Y-16169D01*
X42555Y-16188D01*
X42547Y-16216D01*
X42444Y-16330D01*
X42555Y-16330D01*
X42624Y-16150D02*
X42632Y-16140D01*
X42650Y-16130D01*
X42692Y-16130D01*
X42710Y-16140D01*
X42718Y-16150D01*
X42727Y-16169D01*
X42727Y-16188D01*
X42718Y-16216D01*
X42615Y-16330D01*
X42727Y-16330D01*
X42221Y-16980D02*
X42118Y-16980D01*
X42169Y-16980D02*
X42169Y-16780D01*
X42152Y-16809D01*
X42135Y-16828D01*
X42118Y-16838D01*
X42332Y-16780D02*
X42350Y-16780D01*
X42367Y-16790D01*
X42375Y-16800D01*
X42384Y-16819D01*
X42392Y-16857D01*
X42392Y-16904D01*
X42384Y-16942D01*
X42375Y-16961D01*
X42367Y-16971D01*
X42350Y-16980D01*
X42332Y-16980D01*
X42315Y-16971D01*
X42307Y-16961D01*
X42298Y-16942D01*
X42290Y-16904D01*
X42290Y-16857D01*
X42298Y-16819D01*
X42307Y-16800D01*
X42315Y-16790D01*
X42332Y-16780D01*
X42504Y-16780D02*
X42521Y-16780D01*
X42538Y-16790D01*
X42547Y-16800D01*
X42555Y-16819D01*
X42564Y-16857D01*
X42564Y-16904D01*
X42555Y-16942D01*
X42547Y-16961D01*
X42538Y-16971D01*
X42521Y-16980D01*
X42504Y-16980D01*
X42487Y-16971D01*
X42478Y-16961D01*
X42470Y-16942D01*
X42461Y-16904D01*
X42461Y-16857D01*
X42470Y-16819D01*
X42478Y-16800D01*
X42487Y-16790D01*
X42504Y-16780D01*
X42641Y-16847D02*
X42641Y-16980D01*
X42641Y-16866D02*
X42650Y-16857D01*
X42667Y-16847D01*
X42692Y-16847D01*
X42710Y-16857D01*
X42718Y-16876D01*
X42718Y-16980D01*
X42864Y-16876D02*
X42804Y-16876D01*
X42804Y-16980D02*
X42804Y-16780D01*
X42890Y-16780D01*
X50020Y-17111D02*
X50011Y-17121D01*
X49985Y-17130D01*
X49968Y-17130D01*
X49942Y-17121D01*
X49925Y-17102D01*
X49917Y-17083D01*
X49908Y-17045D01*
X49908Y-17016D01*
X49917Y-16978D01*
X49925Y-16959D01*
X49942Y-16940D01*
X49968Y-16930D01*
X49985Y-16930D01*
X50011Y-16940D01*
X50020Y-16950D01*
X50182Y-16930D02*
X50097Y-16930D01*
X50088Y-17026D01*
X50097Y-17016D01*
X50114Y-17007D01*
X50157Y-17007D01*
X50174Y-17016D01*
X50182Y-17026D01*
X50191Y-17045D01*
X50191Y-17092D01*
X50182Y-17111D01*
X50174Y-17121D01*
X50157Y-17130D01*
X50114Y-17130D01*
X50097Y-17121D01*
X50088Y-17111D01*
X50440Y-17395D02*
X50440Y-17378D01*
X50450Y-17361D01*
X50460Y-17352D01*
X50479Y-17344D01*
X50517Y-17335D01*
X50564Y-17335D01*
X50602Y-17344D01*
X50621Y-17352D01*
X50631Y-17361D01*
X50640Y-17378D01*
X50640Y-17395D01*
X50631Y-17412D01*
X50621Y-17421D01*
X50602Y-17430D01*
X50564Y-17438D01*
X50517Y-17438D01*
X50479Y-17430D01*
X50460Y-17421D01*
X50450Y-17412D01*
X50440Y-17395D01*
X50621Y-17258D02*
X50631Y-17249D01*
X50640Y-17258D01*
X50631Y-17267D01*
X50621Y-17258D01*
X50640Y-17258D01*
X50640Y-17078D02*
X50640Y-17181D01*
X50640Y-17130D02*
X50440Y-17130D01*
X50469Y-17147D01*
X50488Y-17164D01*
X50498Y-17181D01*
X50507Y-16924D02*
X50640Y-16924D01*
X50507Y-17001D02*
X50612Y-17001D01*
X50631Y-16992D01*
X50640Y-16975D01*
X50640Y-16949D01*
X50631Y-16932D01*
X50621Y-16924D01*
X50536Y-16778D02*
X50536Y-16838D01*
X50640Y-16838D02*
X50440Y-16838D01*
X50440Y-16752D01*
X20012Y-27343D02*
X20022Y-27351D01*
X20031Y-27377D01*
X20031Y-27394D01*
X20022Y-27420D01*
X20003Y-27437D01*
X19984Y-27445D01*
X19946Y-27454D01*
X19917Y-27454D01*
X19879Y-27445D01*
X19860Y-27437D01*
X19841Y-27420D01*
X19831Y-27394D01*
X19831Y-27377D01*
X19841Y-27351D01*
X19851Y-27343D01*
X19898Y-27188D02*
X20031Y-27188D01*
X19822Y-27231D02*
X19965Y-27274D01*
X19965Y-27163D01*
X19381Y-27591D02*
X19381Y-27694D01*
X19381Y-27643D02*
X19181Y-27643D01*
X19210Y-27660D01*
X19229Y-27677D01*
X19239Y-27694D01*
X19181Y-27480D02*
X19181Y-27463D01*
X19191Y-27445D01*
X19201Y-27437D01*
X19220Y-27428D01*
X19258Y-27420D01*
X19305Y-27420D01*
X19343Y-27428D01*
X19362Y-27437D01*
X19372Y-27445D01*
X19381Y-27463D01*
X19381Y-27480D01*
X19372Y-27497D01*
X19362Y-27505D01*
X19343Y-27514D01*
X19305Y-27523D01*
X19258Y-27523D01*
X19220Y-27514D01*
X19201Y-27505D01*
X19191Y-27497D01*
X19181Y-27480D01*
X19181Y-27308D02*
X19181Y-27291D01*
X19191Y-27274D01*
X19201Y-27265D01*
X19220Y-27257D01*
X19258Y-27248D01*
X19305Y-27248D01*
X19343Y-27257D01*
X19362Y-27265D01*
X19372Y-27274D01*
X19381Y-27291D01*
X19381Y-27308D01*
X19372Y-27325D01*
X19362Y-27334D01*
X19343Y-27343D01*
X19305Y-27351D01*
X19258Y-27351D01*
X19220Y-27343D01*
X19201Y-27334D01*
X19191Y-27325D01*
X19181Y-27308D01*
X19248Y-27171D02*
X19381Y-27171D01*
X19267Y-27171D02*
X19258Y-27162D01*
X19248Y-27145D01*
X19248Y-27120D01*
X19258Y-27102D01*
X19277Y-27094D01*
X19381Y-27094D01*
X19277Y-26948D02*
X19277Y-27008D01*
X19381Y-27008D02*
X19181Y-27008D01*
X19181Y-26923D01*
X49370Y-17111D02*
X49361Y-17121D01*
X49335Y-17130D01*
X49318Y-17130D01*
X49292Y-17121D01*
X49275Y-17102D01*
X49267Y-17083D01*
X49258Y-17045D01*
X49258Y-17016D01*
X49267Y-16978D01*
X49275Y-16959D01*
X49292Y-16940D01*
X49318Y-16930D01*
X49335Y-16930D01*
X49361Y-16940D01*
X49370Y-16950D01*
X49524Y-16930D02*
X49490Y-16930D01*
X49472Y-16940D01*
X49464Y-16950D01*
X49447Y-16978D01*
X49438Y-17016D01*
X49438Y-17092D01*
X49447Y-17111D01*
X49455Y-17121D01*
X49472Y-17130D01*
X49507Y-17130D01*
X49524Y-17121D01*
X49532Y-17111D01*
X49541Y-17092D01*
X49541Y-17045D01*
X49532Y-17026D01*
X49524Y-17016D01*
X49507Y-17007D01*
X49472Y-17007D01*
X49455Y-17016D01*
X49447Y-17026D01*
X49438Y-17045D01*
X49018Y-16280D02*
X49035Y-16280D01*
X49052Y-16290D01*
X49061Y-16300D01*
X49069Y-16319D01*
X49078Y-16357D01*
X49078Y-16404D01*
X49069Y-16442D01*
X49061Y-16461D01*
X49052Y-16471D01*
X49035Y-16480D01*
X49018Y-16480D01*
X49001Y-16471D01*
X48992Y-16461D01*
X48984Y-16442D01*
X48975Y-16404D01*
X48975Y-16357D01*
X48984Y-16319D01*
X48992Y-16300D01*
X49001Y-16290D01*
X49018Y-16280D01*
X49155Y-16461D02*
X49164Y-16471D01*
X49155Y-16480D01*
X49147Y-16471D01*
X49155Y-16461D01*
X49155Y-16480D01*
X49275Y-16280D02*
X49292Y-16280D01*
X49310Y-16290D01*
X49318Y-16300D01*
X49327Y-16319D01*
X49335Y-16357D01*
X49335Y-16404D01*
X49327Y-16442D01*
X49318Y-16461D01*
X49310Y-16471D01*
X49292Y-16480D01*
X49275Y-16480D01*
X49258Y-16471D01*
X49250Y-16461D01*
X49241Y-16442D01*
X49232Y-16404D01*
X49232Y-16357D01*
X49241Y-16319D01*
X49250Y-16300D01*
X49258Y-16290D01*
X49275Y-16280D01*
X49507Y-16480D02*
X49404Y-16480D01*
X49455Y-16480D02*
X49455Y-16280D01*
X49438Y-16309D01*
X49421Y-16328D01*
X49404Y-16338D01*
X49661Y-16347D02*
X49661Y-16480D01*
X49584Y-16347D02*
X49584Y-16452D01*
X49592Y-16471D01*
X49610Y-16480D01*
X49635Y-16480D01*
X49652Y-16471D01*
X49661Y-16461D01*
X49807Y-16376D02*
X49747Y-16376D01*
X49747Y-16480D02*
X49747Y-16280D01*
X49832Y-16280D01*
X77523Y-19171D02*
X77514Y-19181D01*
X77488Y-19190D01*
X77471Y-19190D01*
X77445Y-19181D01*
X77428Y-19162D01*
X77420Y-19143D01*
X77411Y-19105D01*
X77411Y-19076D01*
X77420Y-19038D01*
X77428Y-19019D01*
X77445Y-19000D01*
X77471Y-18990D01*
X77488Y-18990D01*
X77514Y-19000D01*
X77523Y-19010D01*
X77608Y-19190D02*
X77643Y-19190D01*
X77660Y-19181D01*
X77668Y-19171D01*
X77685Y-19143D01*
X77694Y-19105D01*
X77694Y-19029D01*
X77685Y-19010D01*
X77677Y-19000D01*
X77660Y-18990D01*
X77625Y-18990D01*
X77608Y-19000D01*
X77600Y-19010D01*
X77591Y-19029D01*
X77591Y-19076D01*
X77600Y-19095D01*
X77608Y-19105D01*
X77625Y-19114D01*
X77660Y-19114D01*
X77677Y-19105D01*
X77685Y-19095D01*
X77694Y-19076D01*
X77274Y-18540D02*
X77171Y-18540D01*
X77222Y-18540D02*
X77222Y-18340D01*
X77205Y-18369D01*
X77188Y-18388D01*
X77171Y-18398D01*
X77385Y-18340D02*
X77403Y-18340D01*
X77420Y-18350D01*
X77428Y-18360D01*
X77437Y-18379D01*
X77445Y-18417D01*
X77445Y-18464D01*
X77437Y-18502D01*
X77428Y-18521D01*
X77420Y-18531D01*
X77403Y-18540D01*
X77385Y-18540D01*
X77368Y-18531D01*
X77360Y-18521D01*
X77351Y-18502D01*
X77343Y-18464D01*
X77343Y-18417D01*
X77351Y-18379D01*
X77360Y-18360D01*
X77368Y-18350D01*
X77385Y-18340D01*
X77557Y-18340D02*
X77574Y-18340D01*
X77591Y-18350D01*
X77600Y-18360D01*
X77608Y-18379D01*
X77617Y-18417D01*
X77617Y-18464D01*
X77608Y-18502D01*
X77600Y-18521D01*
X77591Y-18531D01*
X77574Y-18540D01*
X77557Y-18540D01*
X77540Y-18531D01*
X77531Y-18521D01*
X77523Y-18502D01*
X77514Y-18464D01*
X77514Y-18417D01*
X77523Y-18379D01*
X77531Y-18360D01*
X77540Y-18350D01*
X77557Y-18340D01*
X77694Y-18407D02*
X77694Y-18540D01*
X77694Y-18426D02*
X77703Y-18417D01*
X77720Y-18407D01*
X77745Y-18407D01*
X77763Y-18417D01*
X77771Y-18436D01*
X77771Y-18540D01*
X77917Y-18436D02*
X77857Y-18436D01*
X77857Y-18540D02*
X77857Y-18340D01*
X77943Y-18340D01*
X62835Y-19173D02*
X62826Y-19183D01*
X62800Y-19192D01*
X62783Y-19192D01*
X62757Y-19183D01*
X62740Y-19164D01*
X62732Y-19145D01*
X62723Y-19107D01*
X62723Y-19078D01*
X62732Y-19040D01*
X62740Y-19021D01*
X62757Y-19002D01*
X62783Y-18992D01*
X62800Y-18992D01*
X62826Y-19002D01*
X62835Y-19012D01*
X62937Y-19078D02*
X62920Y-19069D01*
X62912Y-19059D01*
X62903Y-19040D01*
X62903Y-19031D01*
X62912Y-19012D01*
X62920Y-19002D01*
X62937Y-18992D01*
X62972Y-18992D01*
X62989Y-19002D01*
X62997Y-19012D01*
X63006Y-19031D01*
X63006Y-19040D01*
X62997Y-19059D01*
X62989Y-19069D01*
X62972Y-19078D01*
X62937Y-19078D01*
X62920Y-19088D01*
X62912Y-19097D01*
X62903Y-19116D01*
X62903Y-19154D01*
X62912Y-19173D01*
X62920Y-19183D01*
X62937Y-19192D01*
X62972Y-19192D01*
X62989Y-19183D01*
X62997Y-19173D01*
X63006Y-19154D01*
X63006Y-19116D01*
X62997Y-19097D01*
X62989Y-19088D01*
X62972Y-19078D01*
X62586Y-18542D02*
X62483Y-18542D01*
X62534Y-18542D02*
X62534Y-18342D01*
X62517Y-18371D01*
X62500Y-18390D01*
X62483Y-18400D01*
X62697Y-18342D02*
X62715Y-18342D01*
X62732Y-18352D01*
X62740Y-18362D01*
X62749Y-18381D01*
X62757Y-18419D01*
X62757Y-18466D01*
X62749Y-18504D01*
X62740Y-18523D01*
X62732Y-18533D01*
X62715Y-18542D01*
X62697Y-18542D01*
X62680Y-18533D01*
X62672Y-18523D01*
X62663Y-18504D01*
X62655Y-18466D01*
X62655Y-18419D01*
X62663Y-18381D01*
X62672Y-18362D01*
X62680Y-18352D01*
X62697Y-18342D01*
X62869Y-18342D02*
X62886Y-18342D01*
X62903Y-18352D01*
X62912Y-18362D01*
X62920Y-18381D01*
X62929Y-18419D01*
X62929Y-18466D01*
X62920Y-18504D01*
X62912Y-18523D01*
X62903Y-18533D01*
X62886Y-18542D01*
X62869Y-18542D01*
X62852Y-18533D01*
X62843Y-18523D01*
X62835Y-18504D01*
X62826Y-18466D01*
X62826Y-18419D01*
X62835Y-18381D01*
X62843Y-18362D01*
X62852Y-18352D01*
X62869Y-18342D01*
X63006Y-18409D02*
X63006Y-18542D01*
X63006Y-18428D02*
X63015Y-18419D01*
X63032Y-18409D01*
X63057Y-18409D01*
X63075Y-18419D01*
X63083Y-18438D01*
X63083Y-18542D01*
X63229Y-18438D02*
X63169Y-18438D01*
X63169Y-18542D02*
X63169Y-18342D01*
X63255Y-18342D01*
X60404Y-27661D02*
X60395Y-27671D01*
X60370Y-27680D01*
X60352Y-27680D01*
X60327Y-27671D01*
X60310Y-27652D01*
X60301Y-27633D01*
X60292Y-27595D01*
X60292Y-27566D01*
X60301Y-27528D01*
X60310Y-27509D01*
X60327Y-27490D01*
X60352Y-27480D01*
X60370Y-27480D01*
X60395Y-27490D01*
X60404Y-27500D01*
X60575Y-27680D02*
X60472Y-27680D01*
X60524Y-27680D02*
X60524Y-27480D01*
X60507Y-27509D01*
X60490Y-27528D01*
X60472Y-27538D01*
X60644Y-27500D02*
X60652Y-27490D01*
X60670Y-27480D01*
X60712Y-27480D01*
X60730Y-27490D01*
X60738Y-27500D01*
X60747Y-27519D01*
X60747Y-27538D01*
X60738Y-27566D01*
X60635Y-27680D01*
X60747Y-27680D01*
X60241Y-28330D02*
X60138Y-28330D01*
X60189Y-28330D02*
X60189Y-28130D01*
X60172Y-28159D01*
X60155Y-28178D01*
X60138Y-28188D01*
X60352Y-28130D02*
X60370Y-28130D01*
X60387Y-28140D01*
X60395Y-28150D01*
X60404Y-28169D01*
X60412Y-28207D01*
X60412Y-28254D01*
X60404Y-28292D01*
X60395Y-28311D01*
X60387Y-28321D01*
X60370Y-28330D01*
X60352Y-28330D01*
X60335Y-28321D01*
X60327Y-28311D01*
X60318Y-28292D01*
X60310Y-28254D01*
X60310Y-28207D01*
X60318Y-28169D01*
X60327Y-28150D01*
X60335Y-28140D01*
X60352Y-28130D01*
X60524Y-28130D02*
X60541Y-28130D01*
X60558Y-28140D01*
X60567Y-28150D01*
X60575Y-28169D01*
X60584Y-28207D01*
X60584Y-28254D01*
X60575Y-28292D01*
X60567Y-28311D01*
X60558Y-28321D01*
X60541Y-28330D01*
X60524Y-28330D01*
X60507Y-28321D01*
X60498Y-28311D01*
X60490Y-28292D01*
X60481Y-28254D01*
X60481Y-28207D01*
X60490Y-28169D01*
X60498Y-28150D01*
X60507Y-28140D01*
X60524Y-28130D01*
X60661Y-28197D02*
X60661Y-28330D01*
X60661Y-28216D02*
X60670Y-28207D01*
X60687Y-28197D01*
X60712Y-28197D01*
X60730Y-28207D01*
X60738Y-28226D01*
X60738Y-28330D01*
X60884Y-28226D02*
X60824Y-28226D01*
X60824Y-28330D02*
X60824Y-28130D01*
X60910Y-28130D01*
X55436Y-21240D02*
X55446Y-21249D01*
X55455Y-21275D01*
X55455Y-21292D01*
X55446Y-21317D01*
X55427Y-21335D01*
X55408Y-21343D01*
X55370Y-21352D01*
X55341Y-21352D01*
X55303Y-21343D01*
X55284Y-21335D01*
X55265Y-21317D01*
X55255Y-21292D01*
X55255Y-21275D01*
X55265Y-21249D01*
X55275Y-21240D01*
X55455Y-21069D02*
X55455Y-21172D01*
X55455Y-21120D02*
X55255Y-21120D01*
X55284Y-21137D01*
X55303Y-21155D01*
X55313Y-21172D01*
X55255Y-20906D02*
X55255Y-20992D01*
X55351Y-21000D01*
X55341Y-20992D01*
X55332Y-20975D01*
X55332Y-20932D01*
X55341Y-20915D01*
X55351Y-20906D01*
X55370Y-20897D01*
X55417Y-20897D01*
X55436Y-20906D01*
X55446Y-20915D01*
X55455Y-20932D01*
X55455Y-20975D01*
X55446Y-20992D01*
X55436Y-21000D01*
X54805Y-21403D02*
X54805Y-21506D01*
X54805Y-21455D02*
X54605Y-21455D01*
X54634Y-21472D01*
X54653Y-21489D01*
X54663Y-21506D01*
X54605Y-21292D02*
X54605Y-21275D01*
X54615Y-21257D01*
X54625Y-21249D01*
X54644Y-21240D01*
X54682Y-21232D01*
X54729Y-21232D01*
X54767Y-21240D01*
X54786Y-21249D01*
X54796Y-21257D01*
X54805Y-21275D01*
X54805Y-21292D01*
X54796Y-21309D01*
X54786Y-21317D01*
X54767Y-21326D01*
X54729Y-21335D01*
X54682Y-21335D01*
X54644Y-21326D01*
X54625Y-21317D01*
X54615Y-21309D01*
X54605Y-21292D01*
X54605Y-21120D02*
X54605Y-21103D01*
X54615Y-21086D01*
X54625Y-21077D01*
X54644Y-21069D01*
X54682Y-21060D01*
X54729Y-21060D01*
X54767Y-21069D01*
X54786Y-21077D01*
X54796Y-21086D01*
X54805Y-21103D01*
X54805Y-21120D01*
X54796Y-21137D01*
X54786Y-21146D01*
X54767Y-21155D01*
X54729Y-21163D01*
X54682Y-21163D01*
X54644Y-21155D01*
X54625Y-21146D01*
X54615Y-21137D01*
X54605Y-21120D01*
X54672Y-20983D02*
X54805Y-20983D01*
X54691Y-20983D02*
X54682Y-20974D01*
X54672Y-20957D01*
X54672Y-20932D01*
X54682Y-20914D01*
X54701Y-20906D01*
X54805Y-20906D01*
X54701Y-20760D02*
X54701Y-20820D01*
X54805Y-20820D02*
X54605Y-20820D01*
X54605Y-20735D01*
X34470Y-19851D02*
X34461Y-19861D01*
X34435Y-19870D01*
X34418Y-19870D01*
X34392Y-19861D01*
X34375Y-19842D01*
X34367Y-19823D01*
X34358Y-19785D01*
X34358Y-19756D01*
X34367Y-19718D01*
X34375Y-19699D01*
X34392Y-19680D01*
X34418Y-19670D01*
X34435Y-19670D01*
X34461Y-19680D01*
X34470Y-19690D01*
X34641Y-19870D02*
X34538Y-19870D01*
X34590Y-19870D02*
X34590Y-19670D01*
X34572Y-19699D01*
X34555Y-19718D01*
X34538Y-19728D01*
X34118Y-20320D02*
X34135Y-20320D01*
X34152Y-20330D01*
X34161Y-20340D01*
X34169Y-20359D01*
X34178Y-20397D01*
X34178Y-20444D01*
X34169Y-20482D01*
X34161Y-20501D01*
X34152Y-20511D01*
X34135Y-20520D01*
X34118Y-20520D01*
X34101Y-20511D01*
X34092Y-20501D01*
X34084Y-20482D01*
X34075Y-20444D01*
X34075Y-20397D01*
X34084Y-20359D01*
X34092Y-20340D01*
X34101Y-20330D01*
X34118Y-20320D01*
X34255Y-20501D02*
X34264Y-20511D01*
X34255Y-20520D01*
X34247Y-20511D01*
X34255Y-20501D01*
X34255Y-20520D01*
X34332Y-20340D02*
X34341Y-20330D01*
X34358Y-20320D01*
X34401Y-20320D01*
X34418Y-20330D01*
X34427Y-20340D01*
X34435Y-20359D01*
X34435Y-20378D01*
X34427Y-20406D01*
X34324Y-20520D01*
X34435Y-20520D01*
X34504Y-20340D02*
X34512Y-20330D01*
X34530Y-20320D01*
X34572Y-20320D01*
X34590Y-20330D01*
X34598Y-20340D01*
X34607Y-20359D01*
X34607Y-20378D01*
X34598Y-20406D01*
X34495Y-20520D01*
X34607Y-20520D01*
X34761Y-20387D02*
X34761Y-20520D01*
X34684Y-20387D02*
X34684Y-20492D01*
X34692Y-20511D01*
X34710Y-20520D01*
X34735Y-20520D01*
X34752Y-20511D01*
X34761Y-20501D01*
X34907Y-20416D02*
X34847Y-20416D01*
X34847Y-20520D02*
X34847Y-20320D01*
X34932Y-20320D01*
X62214Y-39211D02*
X62205Y-39221D01*
X62180Y-39230D01*
X62162Y-39230D01*
X62137Y-39221D01*
X62120Y-39202D01*
X62111Y-39183D01*
X62102Y-39145D01*
X62102Y-39116D01*
X62111Y-39078D01*
X62120Y-39059D01*
X62137Y-39040D01*
X62162Y-39030D01*
X62180Y-39030D01*
X62205Y-39040D01*
X62214Y-39050D01*
X62385Y-39230D02*
X62282Y-39230D01*
X62334Y-39230D02*
X62334Y-39030D01*
X62317Y-39059D01*
X62300Y-39078D01*
X62282Y-39088D01*
X62471Y-39230D02*
X62505Y-39230D01*
X62522Y-39221D01*
X62531Y-39211D01*
X62548Y-39183D01*
X62557Y-39145D01*
X62557Y-39069D01*
X62548Y-39050D01*
X62540Y-39040D01*
X62522Y-39030D01*
X62488Y-39030D01*
X62471Y-39040D01*
X62462Y-39050D01*
X62454Y-39069D01*
X62454Y-39116D01*
X62462Y-39135D01*
X62471Y-39145D01*
X62488Y-39154D01*
X62522Y-39154D01*
X62540Y-39145D01*
X62548Y-39135D01*
X62557Y-39116D01*
X62051Y-39880D02*
X61948Y-39880D01*
X61999Y-39880D02*
X61999Y-39680D01*
X61982Y-39709D01*
X61965Y-39728D01*
X61948Y-39738D01*
X62162Y-39680D02*
X62180Y-39680D01*
X62197Y-39690D01*
X62205Y-39700D01*
X62214Y-39719D01*
X62222Y-39757D01*
X62222Y-39804D01*
X62214Y-39842D01*
X62205Y-39861D01*
X62197Y-39871D01*
X62180Y-39880D01*
X62162Y-39880D01*
X62145Y-39871D01*
X62137Y-39861D01*
X62128Y-39842D01*
X62120Y-39804D01*
X62120Y-39757D01*
X62128Y-39719D01*
X62137Y-39700D01*
X62145Y-39690D01*
X62162Y-39680D01*
X62334Y-39680D02*
X62351Y-39680D01*
X62368Y-39690D01*
X62377Y-39700D01*
X62385Y-39719D01*
X62394Y-39757D01*
X62394Y-39804D01*
X62385Y-39842D01*
X62377Y-39861D01*
X62368Y-39871D01*
X62351Y-39880D01*
X62334Y-39880D01*
X62317Y-39871D01*
X62308Y-39861D01*
X62300Y-39842D01*
X62291Y-39804D01*
X62291Y-39757D01*
X62300Y-39719D01*
X62308Y-39700D01*
X62317Y-39690D01*
X62334Y-39680D01*
X62471Y-39747D02*
X62471Y-39880D01*
X62471Y-39766D02*
X62480Y-39757D01*
X62497Y-39747D01*
X62522Y-39747D01*
X62540Y-39757D01*
X62548Y-39776D01*
X62548Y-39880D01*
X62694Y-39776D02*
X62634Y-39776D01*
X62634Y-39880D02*
X62634Y-39680D01*
X62720Y-39680D01*
X70284Y-39191D02*
X70275Y-39201D01*
X70250Y-39210D01*
X70232Y-39210D01*
X70207Y-39201D01*
X70190Y-39182D01*
X70181Y-39163D01*
X70172Y-39125D01*
X70172Y-39096D01*
X70181Y-39058D01*
X70190Y-39039D01*
X70207Y-39020D01*
X70232Y-39010D01*
X70250Y-39010D01*
X70275Y-39020D01*
X70284Y-39030D01*
X70455Y-39210D02*
X70352Y-39210D01*
X70404Y-39210D02*
X70404Y-39010D01*
X70387Y-39039D01*
X70370Y-39058D01*
X70352Y-39068D01*
X70610Y-39010D02*
X70575Y-39010D01*
X70558Y-39020D01*
X70550Y-39030D01*
X70532Y-39058D01*
X70524Y-39096D01*
X70524Y-39172D01*
X70532Y-39191D01*
X70541Y-39201D01*
X70558Y-39210D01*
X70592Y-39210D01*
X70610Y-39201D01*
X70618Y-39191D01*
X70627Y-39172D01*
X70627Y-39125D01*
X70618Y-39106D01*
X70610Y-39096D01*
X70592Y-39087D01*
X70558Y-39087D01*
X70541Y-39096D01*
X70532Y-39106D01*
X70524Y-39125D01*
X70121Y-39860D02*
X70018Y-39860D01*
X70069Y-39860D02*
X70069Y-39660D01*
X70052Y-39689D01*
X70035Y-39708D01*
X70018Y-39718D01*
X70232Y-39660D02*
X70250Y-39660D01*
X70267Y-39670D01*
X70275Y-39680D01*
X70284Y-39699D01*
X70292Y-39737D01*
X70292Y-39784D01*
X70284Y-39822D01*
X70275Y-39841D01*
X70267Y-39851D01*
X70250Y-39860D01*
X70232Y-39860D01*
X70215Y-39851D01*
X70207Y-39841D01*
X70198Y-39822D01*
X70190Y-39784D01*
X70190Y-39737D01*
X70198Y-39699D01*
X70207Y-39680D01*
X70215Y-39670D01*
X70232Y-39660D01*
X70404Y-39660D02*
X70421Y-39660D01*
X70438Y-39670D01*
X70447Y-39680D01*
X70455Y-39699D01*
X70464Y-39737D01*
X70464Y-39784D01*
X70455Y-39822D01*
X70447Y-39841D01*
X70438Y-39851D01*
X70421Y-39860D01*
X70404Y-39860D01*
X70387Y-39851D01*
X70378Y-39841D01*
X70370Y-39822D01*
X70361Y-39784D01*
X70361Y-39737D01*
X70370Y-39699D01*
X70378Y-39680D01*
X70387Y-39670D01*
X70404Y-39660D01*
X70541Y-39727D02*
X70541Y-39860D01*
X70541Y-39746D02*
X70550Y-39737D01*
X70567Y-39727D01*
X70592Y-39727D01*
X70610Y-39737D01*
X70618Y-39756D01*
X70618Y-39860D01*
X70764Y-39756D02*
X70704Y-39756D01*
X70704Y-39860D02*
X70704Y-39660D01*
X70790Y-39660D01*
X74234Y-39181D02*
X74225Y-39191D01*
X74200Y-39200D01*
X74182Y-39200D01*
X74157Y-39191D01*
X74140Y-39172D01*
X74131Y-39153D01*
X74122Y-39115D01*
X74122Y-39086D01*
X74131Y-39048D01*
X74140Y-39029D01*
X74157Y-39010D01*
X74182Y-39000D01*
X74200Y-39000D01*
X74225Y-39010D01*
X74234Y-39020D01*
X74405Y-39200D02*
X74302Y-39200D01*
X74354Y-39200D02*
X74354Y-39000D01*
X74337Y-39029D01*
X74320Y-39048D01*
X74302Y-39058D01*
X74465Y-39000D02*
X74585Y-39000D01*
X74508Y-39200D01*
X74071Y-39850D02*
X73968Y-39850D01*
X74019Y-39850D02*
X74019Y-39650D01*
X74002Y-39679D01*
X73985Y-39698D01*
X73968Y-39708D01*
X74182Y-39650D02*
X74200Y-39650D01*
X74217Y-39660D01*
X74225Y-39670D01*
X74234Y-39689D01*
X74242Y-39727D01*
X74242Y-39774D01*
X74234Y-39812D01*
X74225Y-39831D01*
X74217Y-39841D01*
X74200Y-39850D01*
X74182Y-39850D01*
X74165Y-39841D01*
X74157Y-39831D01*
X74148Y-39812D01*
X74140Y-39774D01*
X74140Y-39727D01*
X74148Y-39689D01*
X74157Y-39670D01*
X74165Y-39660D01*
X74182Y-39650D01*
X74354Y-39650D02*
X74371Y-39650D01*
X74388Y-39660D01*
X74397Y-39670D01*
X74405Y-39689D01*
X74414Y-39727D01*
X74414Y-39774D01*
X74405Y-39812D01*
X74397Y-39831D01*
X74388Y-39841D01*
X74371Y-39850D01*
X74354Y-39850D01*
X74337Y-39841D01*
X74328Y-39831D01*
X74320Y-39812D01*
X74311Y-39774D01*
X74311Y-39727D01*
X74320Y-39689D01*
X74328Y-39670D01*
X74337Y-39660D01*
X74354Y-39650D01*
X74491Y-39717D02*
X74491Y-39850D01*
X74491Y-39736D02*
X74500Y-39727D01*
X74517Y-39717D01*
X74542Y-39717D01*
X74560Y-39727D01*
X74568Y-39746D01*
X74568Y-39850D01*
X74714Y-39746D02*
X74654Y-39746D01*
X74654Y-39850D02*
X74654Y-39650D01*
X74740Y-39650D01*
X66264Y-39191D02*
X66255Y-39201D01*
X66230Y-39210D01*
X66212Y-39210D01*
X66187Y-39201D01*
X66170Y-39182D01*
X66161Y-39163D01*
X66152Y-39125D01*
X66152Y-39096D01*
X66161Y-39058D01*
X66170Y-39039D01*
X66187Y-39020D01*
X66212Y-39010D01*
X66230Y-39010D01*
X66255Y-39020D01*
X66264Y-39030D01*
X66435Y-39210D02*
X66332Y-39210D01*
X66384Y-39210D02*
X66384Y-39010D01*
X66367Y-39039D01*
X66350Y-39058D01*
X66332Y-39068D01*
X66538Y-39096D02*
X66521Y-39087D01*
X66512Y-39077D01*
X66504Y-39058D01*
X66504Y-39049D01*
X66512Y-39030D01*
X66521Y-39020D01*
X66538Y-39010D01*
X66572Y-39010D01*
X66590Y-39020D01*
X66598Y-39030D01*
X66607Y-39049D01*
X66607Y-39058D01*
X66598Y-39077D01*
X66590Y-39087D01*
X66572Y-39096D01*
X66538Y-39096D01*
X66521Y-39106D01*
X66512Y-39115D01*
X66504Y-39134D01*
X66504Y-39172D01*
X66512Y-39191D01*
X66521Y-39201D01*
X66538Y-39210D01*
X66572Y-39210D01*
X66590Y-39201D01*
X66598Y-39191D01*
X66607Y-39172D01*
X66607Y-39134D01*
X66598Y-39115D01*
X66590Y-39106D01*
X66572Y-39096D01*
X66101Y-39860D02*
X65998Y-39860D01*
X66049Y-39860D02*
X66049Y-39660D01*
X66032Y-39689D01*
X66015Y-39708D01*
X65998Y-39718D01*
X66212Y-39660D02*
X66230Y-39660D01*
X66247Y-39670D01*
X66255Y-39680D01*
X66264Y-39699D01*
X66272Y-39737D01*
X66272Y-39784D01*
X66264Y-39822D01*
X66255Y-39841D01*
X66247Y-39851D01*
X66230Y-39860D01*
X66212Y-39860D01*
X66195Y-39851D01*
X66187Y-39841D01*
X66178Y-39822D01*
X66170Y-39784D01*
X66170Y-39737D01*
X66178Y-39699D01*
X66187Y-39680D01*
X66195Y-39670D01*
X66212Y-39660D01*
X66384Y-39660D02*
X66401Y-39660D01*
X66418Y-39670D01*
X66427Y-39680D01*
X66435Y-39699D01*
X66444Y-39737D01*
X66444Y-39784D01*
X66435Y-39822D01*
X66427Y-39841D01*
X66418Y-39851D01*
X66401Y-39860D01*
X66384Y-39860D01*
X66367Y-39851D01*
X66358Y-39841D01*
X66350Y-39822D01*
X66341Y-39784D01*
X66341Y-39737D01*
X66350Y-39699D01*
X66358Y-39680D01*
X66367Y-39670D01*
X66384Y-39660D01*
X66521Y-39727D02*
X66521Y-39860D01*
X66521Y-39746D02*
X66530Y-39737D01*
X66547Y-39727D01*
X66572Y-39727D01*
X66590Y-39737D01*
X66598Y-39756D01*
X66598Y-39860D01*
X66744Y-39756D02*
X66684Y-39756D01*
X66684Y-39860D02*
X66684Y-39660D01*
X66770Y-39660D01*
X55531Y-32145D02*
X55541Y-32154D01*
X55550Y-32180D01*
X55550Y-32197D01*
X55541Y-32222D01*
X55522Y-32240D01*
X55503Y-32248D01*
X55465Y-32257D01*
X55436Y-32257D01*
X55398Y-32248D01*
X55379Y-32240D01*
X55360Y-32222D01*
X55350Y-32197D01*
X55350Y-32180D01*
X55360Y-32154D01*
X55370Y-32145D01*
X55550Y-31974D02*
X55550Y-32077D01*
X55550Y-32025D02*
X55350Y-32025D01*
X55379Y-32042D01*
X55398Y-32060D01*
X55408Y-32077D01*
X55350Y-31914D02*
X55350Y-31802D01*
X55427Y-31862D01*
X55427Y-31837D01*
X55436Y-31820D01*
X55446Y-31811D01*
X55465Y-31802D01*
X55512Y-31802D01*
X55531Y-31811D01*
X55541Y-31820D01*
X55550Y-31837D01*
X55550Y-31888D01*
X55541Y-31905D01*
X55531Y-31914D01*
X54900Y-32308D02*
X54900Y-32411D01*
X54900Y-32360D02*
X54700Y-32360D01*
X54729Y-32377D01*
X54748Y-32394D01*
X54758Y-32411D01*
X54700Y-32197D02*
X54700Y-32180D01*
X54710Y-32162D01*
X54720Y-32154D01*
X54739Y-32145D01*
X54777Y-32137D01*
X54824Y-32137D01*
X54862Y-32145D01*
X54881Y-32154D01*
X54891Y-32162D01*
X54900Y-32180D01*
X54900Y-32197D01*
X54891Y-32214D01*
X54881Y-32222D01*
X54862Y-32231D01*
X54824Y-32240D01*
X54777Y-32240D01*
X54739Y-32231D01*
X54720Y-32222D01*
X54710Y-32214D01*
X54700Y-32197D01*
X54700Y-32025D02*
X54700Y-32008D01*
X54710Y-31991D01*
X54720Y-31982D01*
X54739Y-31974D01*
X54777Y-31965D01*
X54824Y-31965D01*
X54862Y-31974D01*
X54881Y-31982D01*
X54891Y-31991D01*
X54900Y-32008D01*
X54900Y-32025D01*
X54891Y-32042D01*
X54881Y-32051D01*
X54862Y-32060D01*
X54824Y-32068D01*
X54777Y-32068D01*
X54739Y-32060D01*
X54720Y-32051D01*
X54710Y-32042D01*
X54700Y-32025D01*
X54767Y-31888D02*
X54900Y-31888D01*
X54786Y-31888D02*
X54777Y-31879D01*
X54767Y-31862D01*
X54767Y-31837D01*
X54777Y-31819D01*
X54796Y-31811D01*
X54900Y-31811D01*
X54796Y-31665D02*
X54796Y-31725D01*
X54900Y-31725D02*
X54700Y-31725D01*
X54700Y-31640D01*
X49405Y-24667D02*
X49415Y-24676D01*
X49424Y-24702D01*
X49424Y-24719D01*
X49415Y-24744D01*
X49396Y-24762D01*
X49377Y-24770D01*
X49339Y-24779D01*
X49310Y-24779D01*
X49272Y-24770D01*
X49253Y-24762D01*
X49234Y-24744D01*
X49224Y-24719D01*
X49224Y-24702D01*
X49234Y-24676D01*
X49244Y-24667D01*
X49424Y-24496D02*
X49424Y-24599D01*
X49424Y-24547D02*
X49224Y-24547D01*
X49253Y-24564D01*
X49272Y-24582D01*
X49282Y-24599D01*
X49291Y-24342D02*
X49424Y-24342D01*
X49215Y-24384D02*
X49358Y-24427D01*
X49358Y-24316D01*
X50074Y-24830D02*
X50074Y-24933D01*
X50074Y-24882D02*
X49874Y-24882D01*
X49903Y-24899D01*
X49922Y-24916D01*
X49932Y-24933D01*
X49874Y-24719D02*
X49874Y-24702D01*
X49884Y-24684D01*
X49894Y-24676D01*
X49913Y-24667D01*
X49951Y-24659D01*
X49998Y-24659D01*
X50036Y-24667D01*
X50055Y-24676D01*
X50065Y-24684D01*
X50074Y-24702D01*
X50074Y-24719D01*
X50065Y-24736D01*
X50055Y-24744D01*
X50036Y-24753D01*
X49998Y-24762D01*
X49951Y-24762D01*
X49913Y-24753D01*
X49894Y-24744D01*
X49884Y-24736D01*
X49874Y-24719D01*
X49874Y-24547D02*
X49874Y-24530D01*
X49884Y-24513D01*
X49894Y-24504D01*
X49913Y-24496D01*
X49951Y-24487D01*
X49998Y-24487D01*
X50036Y-24496D01*
X50055Y-24504D01*
X50065Y-24513D01*
X50074Y-24530D01*
X50074Y-24547D01*
X50065Y-24564D01*
X50055Y-24573D01*
X50036Y-24582D01*
X49998Y-24590D01*
X49951Y-24590D01*
X49913Y-24582D01*
X49894Y-24573D01*
X49884Y-24564D01*
X49874Y-24547D01*
X49941Y-24410D02*
X50074Y-24410D01*
X49960Y-24410D02*
X49951Y-24401D01*
X49941Y-24384D01*
X49941Y-24359D01*
X49951Y-24341D01*
X49970Y-24333D01*
X50074Y-24333D01*
X49970Y-24187D02*
X49970Y-24247D01*
X50074Y-24247D02*
X49874Y-24247D01*
X49874Y-24162D01*
X27730Y-40800D02*
X27670Y-40705D01*
X27627Y-40800D02*
X27627Y-40600D01*
X27695Y-40600D01*
X27712Y-40610D01*
X27721Y-40620D01*
X27730Y-40639D01*
X27730Y-40667D01*
X27721Y-40686D01*
X27712Y-40696D01*
X27695Y-40705D01*
X27627Y-40705D01*
X27901Y-40800D02*
X27798Y-40800D01*
X27850Y-40800D02*
X27850Y-40600D01*
X27832Y-40629D01*
X27815Y-40648D01*
X27798Y-40658D01*
X28300Y-40800D02*
X28197Y-40800D01*
X28248Y-40800D02*
X28248Y-40600D01*
X28231Y-40629D01*
X28214Y-40648D01*
X28197Y-40658D01*
X28411Y-40600D02*
X28428Y-40600D01*
X28445Y-40610D01*
X28454Y-40620D01*
X28462Y-40639D01*
X28471Y-40677D01*
X28471Y-40724D01*
X28462Y-40762D01*
X28454Y-40781D01*
X28445Y-40791D01*
X28428Y-40800D01*
X28411Y-40800D01*
X28394Y-40791D01*
X28385Y-40781D01*
X28377Y-40762D01*
X28368Y-40724D01*
X28368Y-40677D01*
X28377Y-40639D01*
X28385Y-40620D01*
X28394Y-40610D01*
X28411Y-40600D01*
X28582Y-40600D02*
X28600Y-40600D01*
X28617Y-40610D01*
X28625Y-40620D01*
X28634Y-40639D01*
X28642Y-40677D01*
X28642Y-40724D01*
X28634Y-40762D01*
X28625Y-40781D01*
X28617Y-40791D01*
X28600Y-40800D01*
X28582Y-40800D01*
X28565Y-40791D01*
X28557Y-40781D01*
X28548Y-40762D01*
X28540Y-40724D01*
X28540Y-40677D01*
X28548Y-40639D01*
X28557Y-40620D01*
X28565Y-40610D01*
X28582Y-40600D01*
X60310Y-17940D02*
X60250Y-17845D01*
X60207Y-17940D02*
X60207Y-17740D01*
X60275Y-17740D01*
X60292Y-17750D01*
X60301Y-17760D01*
X60310Y-17779D01*
X60310Y-17807D01*
X60301Y-17826D01*
X60292Y-17836D01*
X60275Y-17845D01*
X60207Y-17845D01*
X60412Y-17826D02*
X60395Y-17817D01*
X60387Y-17807D01*
X60378Y-17788D01*
X60378Y-17779D01*
X60387Y-17760D01*
X60395Y-17750D01*
X60412Y-17740D01*
X60447Y-17740D01*
X60464Y-17750D01*
X60472Y-17760D01*
X60481Y-17779D01*
X60481Y-17788D01*
X60472Y-17807D01*
X60464Y-17817D01*
X60447Y-17826D01*
X60412Y-17826D01*
X60395Y-17836D01*
X60387Y-17845D01*
X60378Y-17864D01*
X60378Y-17902D01*
X60387Y-17921D01*
X60395Y-17931D01*
X60412Y-17940D01*
X60447Y-17940D01*
X60464Y-17931D01*
X60472Y-17921D01*
X60481Y-17902D01*
X60481Y-17864D01*
X60472Y-17845D01*
X60464Y-17836D01*
X60447Y-17826D01*
X60215Y-18767D02*
X60215Y-18900D01*
X60172Y-18691D02*
X60130Y-18834D01*
X60241Y-18834D01*
X60310Y-18900D02*
X60310Y-18700D01*
X60327Y-18824D02*
X60378Y-18900D01*
X60378Y-18767D02*
X60310Y-18843D01*
X60438Y-18700D02*
X60558Y-18700D01*
X60481Y-18900D01*
X42990Y-14860D02*
X42930Y-14765D01*
X42887Y-14860D02*
X42887Y-14660D01*
X42955Y-14660D01*
X42972Y-14670D01*
X42981Y-14680D01*
X42990Y-14699D01*
X42990Y-14727D01*
X42981Y-14746D01*
X42972Y-14756D01*
X42955Y-14765D01*
X42887Y-14765D01*
X43050Y-14660D02*
X43170Y-14660D01*
X43092Y-14860D01*
X44435Y-14747D02*
X44435Y-14880D01*
X44392Y-14671D02*
X44350Y-14814D01*
X44461Y-14814D01*
X44530Y-14880D02*
X44530Y-14680D01*
X44547Y-14804D02*
X44598Y-14880D01*
X44598Y-14747D02*
X44530Y-14823D01*
X44658Y-14680D02*
X44778Y-14680D01*
X44701Y-14880D01*
X40660Y-14030D02*
X40565Y-14090D01*
X40660Y-14132D02*
X40460Y-14132D01*
X40460Y-14064D01*
X40470Y-14047D01*
X40480Y-14038D01*
X40499Y-14030D01*
X40527Y-14030D01*
X40546Y-14038D01*
X40556Y-14047D01*
X40565Y-14064D01*
X40565Y-14132D01*
X40480Y-13961D02*
X40470Y-13952D01*
X40460Y-13935D01*
X40460Y-13892D01*
X40470Y-13875D01*
X40480Y-13867D01*
X40499Y-13858D01*
X40518Y-13858D01*
X40546Y-13867D01*
X40660Y-13970D01*
X40660Y-13858D01*
X41540Y-14201D02*
X41340Y-14201D01*
X41464Y-14184D02*
X41540Y-14132D01*
X41407Y-14132D02*
X41483Y-14201D01*
X41360Y-14064D02*
X41350Y-14055D01*
X41340Y-14038D01*
X41340Y-13995D01*
X41350Y-13978D01*
X41360Y-13970D01*
X41379Y-13961D01*
X41398Y-13961D01*
X41426Y-13970D01*
X41540Y-14072D01*
X41540Y-13961D01*
X41360Y-13892D02*
X41350Y-13884D01*
X41340Y-13867D01*
X41340Y-13824D01*
X41350Y-13807D01*
X41360Y-13798D01*
X41379Y-13790D01*
X41398Y-13790D01*
X41426Y-13798D01*
X41540Y-13901D01*
X41540Y-13790D01*
X39160Y-14010D02*
X39065Y-14070D01*
X39160Y-14112D02*
X38960Y-14112D01*
X38960Y-14044D01*
X38970Y-14027D01*
X38980Y-14018D01*
X38999Y-14010D01*
X39027Y-14010D01*
X39046Y-14018D01*
X39056Y-14027D01*
X39065Y-14044D01*
X39065Y-14112D01*
X38960Y-13950D02*
X38960Y-13838D01*
X39037Y-13898D01*
X39037Y-13872D01*
X39046Y-13855D01*
X39056Y-13847D01*
X39075Y-13838D01*
X39122Y-13838D01*
X39141Y-13847D01*
X39151Y-13855D01*
X39160Y-13872D01*
X39160Y-13924D01*
X39151Y-13941D01*
X39141Y-13950D01*
X40040Y-14181D02*
X39840Y-14181D01*
X39964Y-14164D02*
X40040Y-14112D01*
X39907Y-14112D02*
X39983Y-14181D01*
X39860Y-14044D02*
X39850Y-14035D01*
X39840Y-14018D01*
X39840Y-13975D01*
X39850Y-13958D01*
X39860Y-13950D01*
X39879Y-13941D01*
X39898Y-13941D01*
X39926Y-13950D01*
X40040Y-14052D01*
X40040Y-13941D01*
X39860Y-13872D02*
X39850Y-13864D01*
X39840Y-13847D01*
X39840Y-13804D01*
X39850Y-13787D01*
X39860Y-13778D01*
X39879Y-13770D01*
X39898Y-13770D01*
X39926Y-13778D01*
X40040Y-13881D01*
X40040Y-13770D01*
X37420Y-14030D02*
X37325Y-14090D01*
X37420Y-14132D02*
X37220Y-14132D01*
X37220Y-14064D01*
X37230Y-14047D01*
X37240Y-14038D01*
X37259Y-14030D01*
X37287Y-14030D01*
X37306Y-14038D01*
X37316Y-14047D01*
X37325Y-14064D01*
X37325Y-14132D01*
X37220Y-13875D02*
X37220Y-13910D01*
X37230Y-13927D01*
X37240Y-13935D01*
X37268Y-13952D01*
X37306Y-13961D01*
X37382Y-13961D01*
X37401Y-13952D01*
X37411Y-13944D01*
X37420Y-13927D01*
X37420Y-13892D01*
X37411Y-13875D01*
X37401Y-13867D01*
X37382Y-13858D01*
X37335Y-13858D01*
X37316Y-13867D01*
X37306Y-13875D01*
X37297Y-13892D01*
X37297Y-13927D01*
X37306Y-13944D01*
X37316Y-13952D01*
X37335Y-13961D01*
X38280Y-14181D02*
X38080Y-14181D01*
X38204Y-14164D02*
X38280Y-14112D01*
X38147Y-14112D02*
X38223Y-14181D01*
X38100Y-14044D02*
X38090Y-14035D01*
X38080Y-14018D01*
X38080Y-13975D01*
X38090Y-13958D01*
X38100Y-13950D01*
X38119Y-13941D01*
X38138Y-13941D01*
X38166Y-13950D01*
X38280Y-14052D01*
X38280Y-13941D01*
X38100Y-13872D02*
X38090Y-13864D01*
X38080Y-13847D01*
X38080Y-13804D01*
X38090Y-13787D01*
X38100Y-13778D01*
X38119Y-13770D01*
X38138Y-13770D01*
X38166Y-13778D01*
X38280Y-13881D01*
X38280Y-13770D01*
X42990Y-13600D02*
X42930Y-13505D01*
X42887Y-13600D02*
X42887Y-13400D01*
X42955Y-13400D01*
X42972Y-13410D01*
X42981Y-13420D01*
X42990Y-13439D01*
X42990Y-13467D01*
X42981Y-13486D01*
X42972Y-13496D01*
X42955Y-13505D01*
X42887Y-13505D01*
X43144Y-13467D02*
X43144Y-13600D01*
X43101Y-13391D02*
X43058Y-13534D01*
X43170Y-13534D01*
X44675Y-13487D02*
X44675Y-13620D01*
X44632Y-13411D02*
X44590Y-13554D01*
X44701Y-13554D01*
X44770Y-13620D02*
X44770Y-13420D01*
X44787Y-13544D02*
X44838Y-13620D01*
X44838Y-13487D02*
X44770Y-13563D01*
X44898Y-13420D02*
X45018Y-13420D01*
X44941Y-13620D01*
X42990Y-14220D02*
X42930Y-14125D01*
X42887Y-14220D02*
X42887Y-14020D01*
X42955Y-14020D01*
X42972Y-14030D01*
X42981Y-14040D01*
X42990Y-14059D01*
X42990Y-14087D01*
X42981Y-14106D01*
X42972Y-14116D01*
X42955Y-14125D01*
X42887Y-14125D01*
X43152Y-14020D02*
X43067Y-14020D01*
X43058Y-14116D01*
X43067Y-14106D01*
X43084Y-14097D01*
X43127Y-14097D01*
X43144Y-14106D01*
X43152Y-14116D01*
X43161Y-14135D01*
X43161Y-14182D01*
X43152Y-14201D01*
X43144Y-14211D01*
X43127Y-14220D01*
X43084Y-14220D01*
X43067Y-14211D01*
X43058Y-14201D01*
X44675Y-14147D02*
X44675Y-14280D01*
X44632Y-14071D02*
X44590Y-14214D01*
X44701Y-14214D01*
X44770Y-14280D02*
X44770Y-14080D01*
X44787Y-14204D02*
X44838Y-14280D01*
X44838Y-14147D02*
X44770Y-14223D01*
X44898Y-14080D02*
X45018Y-14080D01*
X44941Y-14280D01*
G54D13*
X31543Y-26860D02*
X32191Y-26860D01*
X32267Y-26837D01*
X32305Y-26813D01*
X32343Y-26765D01*
X32343Y-26670D01*
X32305Y-26622D01*
X32267Y-26599D01*
X32191Y-26575D01*
X31543Y-26575D01*
X32343Y-26075D02*
X32343Y-26360D01*
X32343Y-26218D02*
X31543Y-26218D01*
X31658Y-26265D01*
X31734Y-26313D01*
X31772Y-26360D01*
X37423Y-28897D02*
X36623Y-28897D01*
X37195Y-28697D01*
X36623Y-28497D01*
X37423Y-28497D01*
X37347Y-27868D02*
X37385Y-27897D01*
X37423Y-27982D01*
X37423Y-28040D01*
X37385Y-28125D01*
X37309Y-28182D01*
X37233Y-28211D01*
X37080Y-28240D01*
X36966Y-28240D01*
X36814Y-28211D01*
X36738Y-28182D01*
X36661Y-28125D01*
X36623Y-28040D01*
X36623Y-27982D01*
X36661Y-27897D01*
X36700Y-27868D01*
X36623Y-27354D02*
X36623Y-27468D01*
X36661Y-27525D01*
X36700Y-27554D01*
X36814Y-27611D01*
X36966Y-27640D01*
X37271Y-27640D01*
X37347Y-27611D01*
X37385Y-27582D01*
X37423Y-27525D01*
X37423Y-27411D01*
X37385Y-27354D01*
X37347Y-27325D01*
X37271Y-27297D01*
X37080Y-27297D01*
X37004Y-27325D01*
X36966Y-27354D01*
X36928Y-27411D01*
X36928Y-27525D01*
X36966Y-27582D01*
X37004Y-27611D01*
X37080Y-27640D01*
X36966Y-26954D02*
X36928Y-27011D01*
X36890Y-27040D01*
X36814Y-27068D01*
X36776Y-27068D01*
X36700Y-27040D01*
X36661Y-27011D01*
X36623Y-26954D01*
X36623Y-26840D01*
X36661Y-26782D01*
X36700Y-26754D01*
X36776Y-26725D01*
X36814Y-26725D01*
X36890Y-26754D01*
X36928Y-26782D01*
X36966Y-26840D01*
X36966Y-26954D01*
X37004Y-27011D01*
X37042Y-27040D01*
X37119Y-27068D01*
X37271Y-27068D01*
X37347Y-27040D01*
X37385Y-27011D01*
X37423Y-26954D01*
X37423Y-26840D01*
X37385Y-26782D01*
X37347Y-26754D01*
X37271Y-26725D01*
X37119Y-26725D01*
X37042Y-26754D01*
X37004Y-26782D01*
X36966Y-26840D01*
X36623Y-26354D02*
X36623Y-26297D01*
X36661Y-26240D01*
X36700Y-26211D01*
X36776Y-26182D01*
X36928Y-26154D01*
X37119Y-26154D01*
X37271Y-26182D01*
X37347Y-26211D01*
X37385Y-26240D01*
X37423Y-26297D01*
X37423Y-26354D01*
X37385Y-26411D01*
X37347Y-26440D01*
X37271Y-26468D01*
X37119Y-26497D01*
X36928Y-26497D01*
X36776Y-26468D01*
X36700Y-26440D01*
X36661Y-26411D01*
X36623Y-26354D01*
X36623Y-25954D02*
X36623Y-25582D01*
X36928Y-25782D01*
X36928Y-25697D01*
X36966Y-25640D01*
X37004Y-25611D01*
X37080Y-25582D01*
X37271Y-25582D01*
X37347Y-25611D01*
X37385Y-25640D01*
X37423Y-25697D01*
X37423Y-25868D01*
X37385Y-25925D01*
X37347Y-25954D01*
X36623Y-25211D02*
X36623Y-25154D01*
X36661Y-25097D01*
X36700Y-25068D01*
X36776Y-25040D01*
X36928Y-25011D01*
X37119Y-25011D01*
X37271Y-25040D01*
X37347Y-25068D01*
X37385Y-25097D01*
X37423Y-25154D01*
X37423Y-25211D01*
X37385Y-25268D01*
X37347Y-25297D01*
X37271Y-25325D01*
X37119Y-25354D01*
X36928Y-25354D01*
X36776Y-25325D01*
X36700Y-25297D01*
X36661Y-25268D01*
X36623Y-25211D01*
X37004Y-24554D02*
X37004Y-24754D01*
X37423Y-24754D02*
X36623Y-24754D01*
X36623Y-24468D01*
X37004Y-24239D02*
X37004Y-24039D01*
X37423Y-23954D02*
X37423Y-24239D01*
X36623Y-24239D01*
X36623Y-23954D01*
G54D15*
X46526Y-11841D02*
X46526Y-12127D01*
X46507Y-12184D01*
X46469Y-12222D01*
X46412Y-12241D01*
X46374Y-12241D01*
X46907Y-11841D02*
X46717Y-11841D01*
X46698Y-12032D01*
X46717Y-12013D01*
X46755Y-11994D01*
X46850Y-11994D01*
X46888Y-12013D01*
X46907Y-12032D01*
X46926Y-12070D01*
X46926Y-12165D01*
X46907Y-12203D01*
X46888Y-12222D01*
X46850Y-12241D01*
X46755Y-12241D01*
X46717Y-12222D01*
X46698Y-12203D01*
X43412Y-13003D02*
X43393Y-13022D01*
X43336Y-13041D01*
X43298Y-13041D01*
X43240Y-13022D01*
X43202Y-12984D01*
X43183Y-12946D01*
X43164Y-12870D01*
X43164Y-12813D01*
X43183Y-12737D01*
X43202Y-12699D01*
X43240Y-12660D01*
X43298Y-12641D01*
X43336Y-12641D01*
X43393Y-12660D01*
X43412Y-12680D01*
X43660Y-12641D02*
X43736Y-12641D01*
X43774Y-12660D01*
X43812Y-12699D01*
X43831Y-12775D01*
X43831Y-12908D01*
X43812Y-12984D01*
X43774Y-13022D01*
X43736Y-13041D01*
X43660Y-13041D01*
X43621Y-13022D01*
X43583Y-12984D01*
X43564Y-12908D01*
X43564Y-12775D01*
X43583Y-12699D01*
X43621Y-12660D01*
X43660Y-12641D01*
X44002Y-13041D02*
X44002Y-12641D01*
X44231Y-13041D01*
X44231Y-12641D01*
X44421Y-13041D02*
X44421Y-12641D01*
X44650Y-13041D01*
X44650Y-12641D01*
X44745Y-13080D02*
X45050Y-13080D01*
X45317Y-12775D02*
X45317Y-13041D01*
X45221Y-12622D02*
X45126Y-12908D01*
X45374Y-12908D01*
G54D19*
X48270Y-14601D02*
X48270Y-14815D01*
X48256Y-14858D01*
X48227Y-14886D01*
X48185Y-14901D01*
X48156Y-14901D01*
X48413Y-14901D02*
X48413Y-14601D01*
X48527Y-14601D01*
X48555Y-14616D01*
X48569Y-14630D01*
X48584Y-14658D01*
X48584Y-14701D01*
X48569Y-14730D01*
X48555Y-14744D01*
X48527Y-14758D01*
X48413Y-14758D01*
X48698Y-14630D02*
X48712Y-14616D01*
X48740Y-14601D01*
X48812Y-14601D01*
X48840Y-14616D01*
X48854Y-14630D01*
X48869Y-14658D01*
X48869Y-14687D01*
X48854Y-14730D01*
X48683Y-14901D01*
X48869Y-14901D01*
X49270Y-14601D02*
X49270Y-14815D01*
X49256Y-14858D01*
X49227Y-14886D01*
X49185Y-14901D01*
X49156Y-14901D01*
X49413Y-14901D02*
X49413Y-14601D01*
X49527Y-14601D01*
X49555Y-14616D01*
X49569Y-14630D01*
X49584Y-14658D01*
X49584Y-14701D01*
X49569Y-14730D01*
X49555Y-14744D01*
X49527Y-14758D01*
X49413Y-14758D01*
X49869Y-14901D02*
X49698Y-14901D01*
X49783Y-14901D02*
X49783Y-14601D01*
X49755Y-14644D01*
X49726Y-14673D01*
X49698Y-14687D01*
X50190Y-14601D02*
X50190Y-14815D01*
X50176Y-14858D01*
X50147Y-14886D01*
X50105Y-14901D01*
X50076Y-14901D01*
X50333Y-14901D02*
X50333Y-14601D01*
X50447Y-14601D01*
X50475Y-14616D01*
X50489Y-14630D01*
X50504Y-14658D01*
X50504Y-14701D01*
X50489Y-14730D01*
X50475Y-14744D01*
X50447Y-14758D01*
X50333Y-14758D01*
X50603Y-14601D02*
X50789Y-14601D01*
X50689Y-14715D01*
X50732Y-14715D01*
X50760Y-14730D01*
X50774Y-14744D01*
X50789Y-14772D01*
X50789Y-14844D01*
X50774Y-14872D01*
X50760Y-14886D01*
X50732Y-14901D01*
X50646Y-14901D01*
X50618Y-14886D01*
X50603Y-14872D01*
X53400Y-13661D02*
X53400Y-13875D01*
X53385Y-13918D01*
X53357Y-13947D01*
X53314Y-13961D01*
X53285Y-13961D01*
X53671Y-13761D02*
X53671Y-13961D01*
X53600Y-13647D02*
X53528Y-13861D01*
X53714Y-13861D01*
G54D15*
X55066Y-11721D02*
X55066Y-12007D01*
X55047Y-12064D01*
X55009Y-12102D01*
X54952Y-12121D01*
X54914Y-12121D01*
X55219Y-11721D02*
X55466Y-11721D01*
X55333Y-11874D01*
X55390Y-11874D01*
X55428Y-11893D01*
X55447Y-11912D01*
X55466Y-11950D01*
X55466Y-12045D01*
X55447Y-12083D01*
X55428Y-12102D01*
X55390Y-12121D01*
X55276Y-12121D01*
X55238Y-12102D01*
X55219Y-12083D01*
X56880Y-12681D02*
X57113Y-13081D01*
X57113Y-12681D02*
X56880Y-13081D01*
X57246Y-13081D02*
X57246Y-12681D01*
X57580Y-13081D02*
X57413Y-13081D01*
X57413Y-12681D01*
X57696Y-13081D02*
X57696Y-12681D01*
X57863Y-13081D02*
X57863Y-12681D01*
X58063Y-13081D01*
X58063Y-12681D01*
X58196Y-12681D02*
X58430Y-13081D01*
X58430Y-12681D02*
X58196Y-13081D01*
X58480Y-13120D02*
X58746Y-13120D01*
X58930Y-12681D02*
X58930Y-12967D01*
X58913Y-13024D01*
X58880Y-13062D01*
X58830Y-13081D01*
X58796Y-13081D01*
X59046Y-12681D02*
X59246Y-12681D01*
X59146Y-13081D02*
X59146Y-12681D01*
X59346Y-12967D02*
X59513Y-12967D01*
X59313Y-13081D02*
X59430Y-12681D01*
X59546Y-13081D01*
X59846Y-12700D02*
X59813Y-12681D01*
X59763Y-12681D01*
X59713Y-12700D01*
X59680Y-12739D01*
X59663Y-12777D01*
X59646Y-12853D01*
X59646Y-12910D01*
X59663Y-12986D01*
X59680Y-13024D01*
X59713Y-13062D01*
X59763Y-13081D01*
X59796Y-13081D01*
X59846Y-13062D01*
X59863Y-13043D01*
X59863Y-12910D01*
X59796Y-12910D01*
G54D19*
X18272Y-24385D02*
X18272Y-24704D01*
X18290Y-24741D01*
X18309Y-24760D01*
X18347Y-24779D01*
X18422Y-24779D01*
X18459Y-24760D01*
X18478Y-24741D01*
X18497Y-24704D01*
X18497Y-24385D01*
X18891Y-24779D02*
X18666Y-24779D01*
X18778Y-24779D02*
X18778Y-24385D01*
X18741Y-24441D01*
X18703Y-24479D01*
X18666Y-24498D01*
X19041Y-24423D02*
X19060Y-24404D01*
X19097Y-24385D01*
X19191Y-24385D01*
X19229Y-24404D01*
X19247Y-24423D01*
X19266Y-24460D01*
X19266Y-24498D01*
X19247Y-24554D01*
X19022Y-24779D01*
X19266Y-24779D01*
G54D12*
X18675Y-26022D02*
X18675Y-25628D01*
X18806Y-25909D01*
X18937Y-25628D01*
X18937Y-26022D01*
X19350Y-25984D02*
X19331Y-26003D01*
X19275Y-26022D01*
X19238Y-26022D01*
X19181Y-26003D01*
X19144Y-25966D01*
X19125Y-25928D01*
X19106Y-25853D01*
X19106Y-25797D01*
X19125Y-25722D01*
X19144Y-25684D01*
X19181Y-25647D01*
X19238Y-25628D01*
X19275Y-25628D01*
X19331Y-25647D01*
X19350Y-25666D01*
X19519Y-26022D02*
X19519Y-25628D01*
X19669Y-25628D01*
X19707Y-25647D01*
X19725Y-25666D01*
X19744Y-25703D01*
X19744Y-25759D01*
X19725Y-25797D01*
X19707Y-25816D01*
X19669Y-25834D01*
X19519Y-25834D01*
X19932Y-26022D02*
X20007Y-26022D01*
X20044Y-26003D01*
X20063Y-25984D01*
X20101Y-25928D01*
X20119Y-25853D01*
X20119Y-25703D01*
X20101Y-25666D01*
X20082Y-25647D01*
X20044Y-25628D01*
X19969Y-25628D01*
X19932Y-25647D01*
X19913Y-25666D01*
X19894Y-25703D01*
X19894Y-25797D01*
X19913Y-25834D01*
X19932Y-25853D01*
X19969Y-25872D01*
X20044Y-25872D01*
X20082Y-25853D01*
X20101Y-25834D01*
X20119Y-25797D01*
X20345Y-25797D02*
X20307Y-25778D01*
X20288Y-25759D01*
X20269Y-25722D01*
X20269Y-25703D01*
X20288Y-25666D01*
X20307Y-25647D01*
X20345Y-25628D01*
X20420Y-25628D01*
X20457Y-25647D01*
X20476Y-25666D01*
X20495Y-25703D01*
X20495Y-25722D01*
X20476Y-25759D01*
X20457Y-25778D01*
X20420Y-25797D01*
X20345Y-25797D01*
X20307Y-25816D01*
X20288Y-25834D01*
X20269Y-25872D01*
X20269Y-25947D01*
X20288Y-25984D01*
X20307Y-26003D01*
X20345Y-26022D01*
X20420Y-26022D01*
X20457Y-26003D01*
X20476Y-25984D01*
X20495Y-25947D01*
X20495Y-25872D01*
X20476Y-25834D01*
X20457Y-25816D01*
X20420Y-25797D01*
X20739Y-25628D02*
X20776Y-25628D01*
X20814Y-25647D01*
X20832Y-25666D01*
X20851Y-25703D01*
X20870Y-25778D01*
X20870Y-25872D01*
X20851Y-25947D01*
X20832Y-25984D01*
X20814Y-26003D01*
X20776Y-26022D01*
X20739Y-26022D01*
X20701Y-26003D01*
X20682Y-25984D01*
X20663Y-25947D01*
X20645Y-25872D01*
X20645Y-25778D01*
X20663Y-25703D01*
X20682Y-25666D01*
X20701Y-25647D01*
X20739Y-25628D01*
X21245Y-26022D02*
X21020Y-26022D01*
X21133Y-26022D02*
X21133Y-25628D01*
X21095Y-25684D01*
X21057Y-25722D01*
X21020Y-25741D01*
X38371Y-12471D02*
X38071Y-12471D01*
X38071Y-12400D01*
X38085Y-12357D01*
X38114Y-12328D01*
X38142Y-12314D01*
X38200Y-12300D01*
X38242Y-12300D01*
X38300Y-12314D01*
X38328Y-12328D01*
X38357Y-12357D01*
X38371Y-12400D01*
X38371Y-12471D01*
X38071Y-12200D02*
X38071Y-12014D01*
X38185Y-12114D01*
X38185Y-12071D01*
X38200Y-12042D01*
X38214Y-12028D01*
X38242Y-12014D01*
X38314Y-12014D01*
X38342Y-12028D01*
X38357Y-12042D01*
X38371Y-12071D01*
X38371Y-12157D01*
X38357Y-12185D01*
X38342Y-12200D01*
X37371Y-12442D02*
X37371Y-12585D01*
X37071Y-12585D01*
X37214Y-12342D02*
X37214Y-12242D01*
X37371Y-12200D02*
X37371Y-12342D01*
X37071Y-12342D01*
X37071Y-12200D01*
X37371Y-12071D02*
X37071Y-12071D01*
X37071Y-12000D01*
X37085Y-11957D01*
X37114Y-11928D01*
X37142Y-11914D01*
X37200Y-11900D01*
X37242Y-11900D01*
X37300Y-11914D01*
X37328Y-11928D01*
X37357Y-11957D01*
X37371Y-12000D01*
X37371Y-12071D01*
X41621Y-12471D02*
X41321Y-12471D01*
X41321Y-12400D01*
X41335Y-12357D01*
X41364Y-12328D01*
X41392Y-12314D01*
X41450Y-12300D01*
X41492Y-12300D01*
X41550Y-12314D01*
X41578Y-12328D01*
X41607Y-12357D01*
X41621Y-12400D01*
X41621Y-12471D01*
X41350Y-12185D02*
X41335Y-12171D01*
X41321Y-12142D01*
X41321Y-12071D01*
X41335Y-12042D01*
X41350Y-12028D01*
X41378Y-12014D01*
X41407Y-12014D01*
X41450Y-12028D01*
X41621Y-12200D01*
X41621Y-12014D01*
X40621Y-12442D02*
X40621Y-12585D01*
X40321Y-12585D01*
X40464Y-12342D02*
X40464Y-12242D01*
X40621Y-12200D02*
X40621Y-12342D01*
X40321Y-12342D01*
X40321Y-12200D01*
X40621Y-12071D02*
X40321Y-12071D01*
X40321Y-12000D01*
X40335Y-11957D01*
X40364Y-11928D01*
X40392Y-11914D01*
X40450Y-11900D01*
X40492Y-11900D01*
X40550Y-11914D01*
X40578Y-11928D01*
X40607Y-11957D01*
X40621Y-12000D01*
X40621Y-12071D01*
X40121Y-12471D02*
X39821Y-12471D01*
X39821Y-12400D01*
X39835Y-12357D01*
X39864Y-12328D01*
X39892Y-12314D01*
X39950Y-12300D01*
X39992Y-12300D01*
X40050Y-12314D01*
X40078Y-12328D01*
X40107Y-12357D01*
X40121Y-12400D01*
X40121Y-12471D01*
X40121Y-12014D02*
X40121Y-12185D01*
X40121Y-12100D02*
X39821Y-12100D01*
X39864Y-12128D01*
X39892Y-12157D01*
X39907Y-12185D01*
X39121Y-12442D02*
X39121Y-12585D01*
X38821Y-12585D01*
X38964Y-12342D02*
X38964Y-12242D01*
X39121Y-12200D02*
X39121Y-12342D01*
X38821Y-12342D01*
X38821Y-12200D01*
X39121Y-12071D02*
X38821Y-12071D01*
X38821Y-12000D01*
X38835Y-11957D01*
X38864Y-11928D01*
X38892Y-11914D01*
X38950Y-11900D01*
X38992Y-11900D01*
X39050Y-11914D01*
X39078Y-11928D01*
X39107Y-11957D01*
X39121Y-12000D01*
X39121Y-12071D01*
G54D19*
X85995Y-44672D02*
X85995Y-45077D01*
X86018Y-45124D01*
X86042Y-45148D01*
X86090Y-45172D01*
X86185Y-45172D01*
X86233Y-45148D01*
X86257Y-45124D01*
X86280Y-45077D01*
X86280Y-44672D01*
X86780Y-45172D02*
X86495Y-45172D01*
X86637Y-45172D02*
X86637Y-44672D01*
X86590Y-44743D01*
X86542Y-44791D01*
X86495Y-44815D01*
X87233Y-44672D02*
X86995Y-44672D01*
X86971Y-44910D01*
X86995Y-44886D01*
X87042Y-44862D01*
X87161Y-44862D01*
X87209Y-44886D01*
X87233Y-44910D01*
X87257Y-44958D01*
X87257Y-45077D01*
X87233Y-45124D01*
X87209Y-45148D01*
X87161Y-45172D01*
X87042Y-45172D01*
X86995Y-45148D01*
X86971Y-45124D01*
X84757Y-40872D02*
X84757Y-40372D01*
X84923Y-40729D01*
X85090Y-40372D01*
X85090Y-40872D01*
X85614Y-40824D02*
X85590Y-40848D01*
X85518Y-40872D01*
X85471Y-40872D01*
X85399Y-40848D01*
X85352Y-40801D01*
X85328Y-40753D01*
X85304Y-40658D01*
X85304Y-40586D01*
X85328Y-40491D01*
X85352Y-40443D01*
X85399Y-40396D01*
X85471Y-40372D01*
X85518Y-40372D01*
X85590Y-40396D01*
X85614Y-40420D01*
X85828Y-40872D02*
X85828Y-40372D01*
X86018Y-40372D01*
X86066Y-40396D01*
X86090Y-40420D01*
X86114Y-40467D01*
X86114Y-40539D01*
X86090Y-40586D01*
X86066Y-40610D01*
X86018Y-40634D01*
X85828Y-40634D01*
X86590Y-40872D02*
X86304Y-40872D01*
X86447Y-40872D02*
X86447Y-40372D01*
X86399Y-40443D01*
X86352Y-40491D01*
X86304Y-40515D01*
X86876Y-40586D02*
X86828Y-40562D01*
X86804Y-40539D01*
X86780Y-40491D01*
X86780Y-40467D01*
X86804Y-40420D01*
X86828Y-40396D01*
X86876Y-40372D01*
X86971Y-40372D01*
X87018Y-40396D01*
X87042Y-40420D01*
X87066Y-40467D01*
X87066Y-40491D01*
X87042Y-40539D01*
X87018Y-40562D01*
X86971Y-40586D01*
X86876Y-40586D01*
X86828Y-40610D01*
X86804Y-40634D01*
X86780Y-40681D01*
X86780Y-40777D01*
X86804Y-40824D01*
X86828Y-40848D01*
X86876Y-40872D01*
X86971Y-40872D01*
X87018Y-40848D01*
X87042Y-40824D01*
X87066Y-40777D01*
X87066Y-40681D01*
X87042Y-40634D01*
X87018Y-40610D01*
X86971Y-40586D01*
X87257Y-40420D02*
X87280Y-40396D01*
X87328Y-40372D01*
X87447Y-40372D01*
X87495Y-40396D01*
X87518Y-40420D01*
X87542Y-40467D01*
X87542Y-40515D01*
X87518Y-40586D01*
X87233Y-40872D01*
X87542Y-40872D01*
X87971Y-40372D02*
X87876Y-40372D01*
X87828Y-40396D01*
X87804Y-40420D01*
X87757Y-40491D01*
X87733Y-40586D01*
X87733Y-40777D01*
X87757Y-40824D01*
X87780Y-40848D01*
X87828Y-40872D01*
X87923Y-40872D01*
X87971Y-40848D01*
X87995Y-40824D01*
X88018Y-40777D01*
X88018Y-40658D01*
X87995Y-40610D01*
X87971Y-40586D01*
X87923Y-40562D01*
X87828Y-40562D01*
X87780Y-40586D01*
X87757Y-40610D01*
X87733Y-40658D01*
X88209Y-40848D02*
X88280Y-40872D01*
X88399Y-40872D01*
X88447Y-40848D01*
X88471Y-40824D01*
X88495Y-40777D01*
X88495Y-40729D01*
X88471Y-40681D01*
X88447Y-40658D01*
X88399Y-40634D01*
X88304Y-40610D01*
X88257Y-40586D01*
X88233Y-40562D01*
X88209Y-40515D01*
X88209Y-40467D01*
X88233Y-40420D01*
X88257Y-40396D01*
X88304Y-40372D01*
X88423Y-40372D01*
X88495Y-40396D01*
G54D15*
X55892Y-17567D02*
X56297Y-17567D01*
X56344Y-17545D01*
X56368Y-17524D01*
X56392Y-17481D01*
X56392Y-17395D01*
X56368Y-17352D01*
X56344Y-17331D01*
X56297Y-17309D01*
X55892Y-17309D01*
X56392Y-16859D02*
X56392Y-17117D01*
X56392Y-16988D02*
X55892Y-16988D01*
X55963Y-17031D01*
X56011Y-17074D01*
X56035Y-17117D01*
X56059Y-16474D02*
X56392Y-16474D01*
X55868Y-16581D02*
X56225Y-16688D01*
X56225Y-16409D01*
G54D26*
X51950Y-16775D02*
X52160Y-17169D01*
X52160Y-16775D02*
X51950Y-17169D01*
X52235Y-16775D02*
X52415Y-16775D01*
X52325Y-17169D02*
X52325Y-16775D01*
X52505Y-17056D02*
X52655Y-17056D01*
X52475Y-17169D02*
X52580Y-16775D01*
X52685Y-17169D01*
X52940Y-17169D02*
X52790Y-17169D01*
X52790Y-16775D01*
X52970Y-17206D02*
X53210Y-17206D01*
X53345Y-16775D02*
X53405Y-16775D01*
X53435Y-16794D01*
X53465Y-16831D01*
X53480Y-16906D01*
X53480Y-17038D01*
X53465Y-17113D01*
X53435Y-17150D01*
X53405Y-17169D01*
X53345Y-17169D01*
X53315Y-17150D01*
X53285Y-17113D01*
X53270Y-17038D01*
X53270Y-16906D01*
X53285Y-16831D01*
X53315Y-16794D01*
X53345Y-16775D01*
X53600Y-17150D02*
X53645Y-17169D01*
X53719Y-17169D01*
X53749Y-17150D01*
X53764Y-17131D01*
X53779Y-17094D01*
X53779Y-17056D01*
X53764Y-17019D01*
X53749Y-17000D01*
X53719Y-16981D01*
X53660Y-16963D01*
X53630Y-16944D01*
X53615Y-16925D01*
X53600Y-16888D01*
X53600Y-16850D01*
X53615Y-16813D01*
X53630Y-16794D01*
X53660Y-16775D01*
X53734Y-16775D01*
X53779Y-16794D01*
X54094Y-17131D02*
X54079Y-17150D01*
X54034Y-17169D01*
X54004Y-17169D01*
X53959Y-17150D01*
X53929Y-17113D01*
X53914Y-17075D01*
X53899Y-17000D01*
X53899Y-16944D01*
X53914Y-16869D01*
X53929Y-16831D01*
X53959Y-16794D01*
X54004Y-16775D01*
X54034Y-16775D01*
X54079Y-16794D01*
X54094Y-16813D01*
X54154Y-17206D02*
X54394Y-17206D01*
X54469Y-17169D02*
X54469Y-16775D01*
X54544Y-16775D01*
X54589Y-16794D01*
X54619Y-16831D01*
X54634Y-16869D01*
X54649Y-16944D01*
X54649Y-17000D01*
X54634Y-17075D01*
X54619Y-17113D01*
X54589Y-17150D01*
X54544Y-17169D01*
X54469Y-17169D01*
X54784Y-17169D02*
X54784Y-16775D01*
X54934Y-17169D02*
X54934Y-16775D01*
X55054Y-16775D01*
X55084Y-16794D01*
X55099Y-16813D01*
X55114Y-16850D01*
X55114Y-16906D01*
X55099Y-16944D01*
X55084Y-16963D01*
X55054Y-16981D01*
X54934Y-16981D01*
X55294Y-16944D02*
X55264Y-16925D01*
X55249Y-16906D01*
X55234Y-16869D01*
X55234Y-16850D01*
X55249Y-16813D01*
X55264Y-16794D01*
X55294Y-16775D01*
X55354Y-16775D01*
X55384Y-16794D01*
X55399Y-16813D01*
X55414Y-16850D01*
X55414Y-16869D01*
X55399Y-16906D01*
X55384Y-16925D01*
X55354Y-16944D01*
X55294Y-16944D01*
X55264Y-16963D01*
X55249Y-16981D01*
X55234Y-17019D01*
X55234Y-17094D01*
X55249Y-17131D01*
X55264Y-17150D01*
X55294Y-17169D01*
X55354Y-17169D01*
X55384Y-17150D01*
X55399Y-17131D01*
X55414Y-17094D01*
X55414Y-17019D01*
X55399Y-16981D01*
X55384Y-16963D01*
X55354Y-16944D01*
G54D16*
X88062Y-36293D02*
X88052Y-36303D01*
X88024Y-36312D01*
X88006Y-36312D01*
X87977Y-36303D01*
X87959Y-36284D01*
X87949Y-36265D01*
X87940Y-36228D01*
X87940Y-36200D01*
X87949Y-36162D01*
X87959Y-36143D01*
X87977Y-36124D01*
X88006Y-36115D01*
X88024Y-36115D01*
X88052Y-36124D01*
X88062Y-36134D01*
X88137Y-36134D02*
X88146Y-36124D01*
X88165Y-36115D01*
X88212Y-36115D01*
X88231Y-36124D01*
X88240Y-36134D01*
X88249Y-36153D01*
X88249Y-36171D01*
X88240Y-36200D01*
X88128Y-36312D01*
X88249Y-36312D01*
X88371Y-36115D02*
X88390Y-36115D01*
X88409Y-36124D01*
X88418Y-36134D01*
X88428Y-36153D01*
X88437Y-36190D01*
X88437Y-36237D01*
X88428Y-36275D01*
X88418Y-36293D01*
X88409Y-36303D01*
X88390Y-36312D01*
X88371Y-36312D01*
X88353Y-36303D01*
X88343Y-36293D01*
X88334Y-36275D01*
X88325Y-36237D01*
X88325Y-36190D01*
X88334Y-36153D01*
X88343Y-36134D01*
X88353Y-36124D01*
X88371Y-36115D01*
X87912Y-37731D02*
X87912Y-37862D01*
X87865Y-37656D02*
X87818Y-37796D01*
X87940Y-37796D01*
X88024Y-37853D02*
X88024Y-37862D01*
X88015Y-37881D01*
X88006Y-37890D01*
X88090Y-37665D02*
X88221Y-37665D01*
X88137Y-37862D01*
X88381Y-37731D02*
X88381Y-37862D01*
X88296Y-37731D02*
X88296Y-37834D01*
X88306Y-37853D01*
X88325Y-37862D01*
X88353Y-37862D01*
X88371Y-37853D01*
X88381Y-37843D01*
X88540Y-37759D02*
X88475Y-37759D01*
X88475Y-37862D02*
X88475Y-37665D01*
X88568Y-37665D01*
G54D25*
X70450Y-25825D02*
X70441Y-25835D01*
X70416Y-25844D01*
X70398Y-25844D01*
X70373Y-25835D01*
X70356Y-25816D01*
X70347Y-25797D01*
X70338Y-25759D01*
X70338Y-25730D01*
X70347Y-25692D01*
X70356Y-25673D01*
X70373Y-25654D01*
X70398Y-25644D01*
X70416Y-25644D01*
X70441Y-25654D01*
X70450Y-25664D01*
X70518Y-25664D02*
X70527Y-25654D01*
X70544Y-25644D01*
X70587Y-25644D01*
X70604Y-25654D01*
X70613Y-25664D01*
X70621Y-25683D01*
X70621Y-25702D01*
X70613Y-25730D01*
X70510Y-25844D01*
X70621Y-25844D01*
X70776Y-25644D02*
X70741Y-25644D01*
X70724Y-25654D01*
X70716Y-25664D01*
X70698Y-25692D01*
X70690Y-25730D01*
X70690Y-25806D01*
X70698Y-25825D01*
X70707Y-25835D01*
X70724Y-25844D01*
X70758Y-25844D01*
X70776Y-25835D01*
X70784Y-25825D01*
X70793Y-25806D01*
X70793Y-25759D01*
X70784Y-25740D01*
X70776Y-25730D01*
X70758Y-25721D01*
X70724Y-25721D01*
X70707Y-25730D01*
X70698Y-25740D01*
X70690Y-25759D01*
X71080Y-26058D02*
X71080Y-26161D01*
X71080Y-26110D02*
X70880Y-26110D01*
X70909Y-26127D01*
X70928Y-26144D01*
X70938Y-26161D01*
X70880Y-25947D02*
X70880Y-25930D01*
X70890Y-25912D01*
X70900Y-25904D01*
X70919Y-25895D01*
X70957Y-25887D01*
X71004Y-25887D01*
X71042Y-25895D01*
X71061Y-25904D01*
X71071Y-25912D01*
X71080Y-25930D01*
X71080Y-25947D01*
X71071Y-25964D01*
X71061Y-25972D01*
X71042Y-25981D01*
X71004Y-25990D01*
X70957Y-25990D01*
X70919Y-25981D01*
X70900Y-25972D01*
X70890Y-25964D01*
X70880Y-25947D01*
X70880Y-25775D02*
X70880Y-25758D01*
X70890Y-25741D01*
X70900Y-25732D01*
X70919Y-25724D01*
X70957Y-25715D01*
X71004Y-25715D01*
X71042Y-25724D01*
X71061Y-25732D01*
X71071Y-25741D01*
X71080Y-25758D01*
X71080Y-25775D01*
X71071Y-25792D01*
X71061Y-25801D01*
X71042Y-25810D01*
X71004Y-25818D01*
X70957Y-25818D01*
X70919Y-25810D01*
X70900Y-25801D01*
X70890Y-25792D01*
X70880Y-25775D01*
X70947Y-25638D02*
X71080Y-25638D01*
X70966Y-25638D02*
X70957Y-25629D01*
X70947Y-25612D01*
X70947Y-25587D01*
X70957Y-25569D01*
X70976Y-25561D01*
X71080Y-25561D01*
X70976Y-25415D02*
X70976Y-25475D01*
X71080Y-25475D02*
X70880Y-25475D01*
X70880Y-25390D01*
X81724Y-25823D02*
X81715Y-25833D01*
X81690Y-25842D01*
X81672Y-25842D01*
X81647Y-25833D01*
X81630Y-25814D01*
X81621Y-25795D01*
X81612Y-25757D01*
X81612Y-25728D01*
X81621Y-25690D01*
X81630Y-25671D01*
X81647Y-25652D01*
X81672Y-25642D01*
X81690Y-25642D01*
X81715Y-25652D01*
X81724Y-25662D01*
X81792Y-25662D02*
X81801Y-25652D01*
X81818Y-25642D01*
X81861Y-25642D01*
X81878Y-25652D01*
X81887Y-25662D01*
X81895Y-25681D01*
X81895Y-25700D01*
X81887Y-25728D01*
X81784Y-25842D01*
X81895Y-25842D01*
X82058Y-25642D02*
X81972Y-25642D01*
X81964Y-25738D01*
X81972Y-25728D01*
X81990Y-25719D01*
X82032Y-25719D01*
X82050Y-25728D01*
X82058Y-25738D01*
X82067Y-25757D01*
X82067Y-25804D01*
X82058Y-25823D01*
X82050Y-25833D01*
X82032Y-25842D01*
X81990Y-25842D01*
X81972Y-25833D01*
X81964Y-25823D01*
X81561Y-26492D02*
X81458Y-26492D01*
X81509Y-26492D02*
X81509Y-26292D01*
X81492Y-26321D01*
X81475Y-26340D01*
X81458Y-26350D01*
X81672Y-26292D02*
X81690Y-26292D01*
X81707Y-26302D01*
X81715Y-26312D01*
X81724Y-26331D01*
X81732Y-26369D01*
X81732Y-26416D01*
X81724Y-26454D01*
X81715Y-26473D01*
X81707Y-26483D01*
X81690Y-26492D01*
X81672Y-26492D01*
X81655Y-26483D01*
X81647Y-26473D01*
X81638Y-26454D01*
X81630Y-26416D01*
X81630Y-26369D01*
X81638Y-26331D01*
X81647Y-26312D01*
X81655Y-26302D01*
X81672Y-26292D01*
X81844Y-26292D02*
X81861Y-26292D01*
X81878Y-26302D01*
X81887Y-26312D01*
X81895Y-26331D01*
X81904Y-26369D01*
X81904Y-26416D01*
X81895Y-26454D01*
X81887Y-26473D01*
X81878Y-26483D01*
X81861Y-26492D01*
X81844Y-26492D01*
X81827Y-26483D01*
X81818Y-26473D01*
X81810Y-26454D01*
X81801Y-26416D01*
X81801Y-26369D01*
X81810Y-26331D01*
X81818Y-26312D01*
X81827Y-26302D01*
X81844Y-26292D01*
X81981Y-26359D02*
X81981Y-26492D01*
X81981Y-26378D02*
X81990Y-26369D01*
X82007Y-26359D01*
X82032Y-26359D01*
X82050Y-26369D01*
X82058Y-26388D01*
X82058Y-26492D01*
X82204Y-26388D02*
X82144Y-26388D01*
X82144Y-26492D02*
X82144Y-26292D01*
X82230Y-26292D01*
X67174Y-25837D02*
X67165Y-25847D01*
X67140Y-25856D01*
X67122Y-25856D01*
X67097Y-25847D01*
X67080Y-25828D01*
X67071Y-25809D01*
X67062Y-25771D01*
X67062Y-25742D01*
X67071Y-25704D01*
X67080Y-25685D01*
X67097Y-25666D01*
X67122Y-25656D01*
X67140Y-25656D01*
X67165Y-25666D01*
X67174Y-25676D01*
X67242Y-25676D02*
X67251Y-25666D01*
X67268Y-25656D01*
X67311Y-25656D01*
X67328Y-25666D01*
X67337Y-25676D01*
X67345Y-25695D01*
X67345Y-25714D01*
X67337Y-25742D01*
X67234Y-25856D01*
X67345Y-25856D01*
X67500Y-25723D02*
X67500Y-25856D01*
X67457Y-25647D02*
X67414Y-25790D01*
X67525Y-25790D01*
X67011Y-26506D02*
X66908Y-26506D01*
X66959Y-26506D02*
X66959Y-26306D01*
X66942Y-26335D01*
X66925Y-26354D01*
X66908Y-26364D01*
X67122Y-26306D02*
X67140Y-26306D01*
X67157Y-26316D01*
X67165Y-26326D01*
X67174Y-26345D01*
X67182Y-26383D01*
X67182Y-26430D01*
X67174Y-26468D01*
X67165Y-26487D01*
X67157Y-26497D01*
X67140Y-26506D01*
X67122Y-26506D01*
X67105Y-26497D01*
X67097Y-26487D01*
X67088Y-26468D01*
X67080Y-26430D01*
X67080Y-26383D01*
X67088Y-26345D01*
X67097Y-26326D01*
X67105Y-26316D01*
X67122Y-26306D01*
X67294Y-26306D02*
X67311Y-26306D01*
X67328Y-26316D01*
X67337Y-26326D01*
X67345Y-26345D01*
X67354Y-26383D01*
X67354Y-26430D01*
X67345Y-26468D01*
X67337Y-26487D01*
X67328Y-26497D01*
X67311Y-26506D01*
X67294Y-26506D01*
X67277Y-26497D01*
X67268Y-26487D01*
X67260Y-26468D01*
X67251Y-26430D01*
X67251Y-26383D01*
X67260Y-26345D01*
X67268Y-26326D01*
X67277Y-26316D01*
X67294Y-26306D01*
X67431Y-26373D02*
X67431Y-26506D01*
X67431Y-26392D02*
X67440Y-26383D01*
X67457Y-26373D01*
X67482Y-26373D01*
X67500Y-26383D01*
X67508Y-26402D01*
X67508Y-26506D01*
X67654Y-26402D02*
X67594Y-26402D01*
X67594Y-26506D02*
X67594Y-26306D01*
X67680Y-26306D01*
X84871Y-25842D02*
X84862Y-25852D01*
X84837Y-25861D01*
X84819Y-25861D01*
X84794Y-25852D01*
X84777Y-25833D01*
X84768Y-25814D01*
X84759Y-25776D01*
X84759Y-25747D01*
X84768Y-25709D01*
X84777Y-25690D01*
X84794Y-25671D01*
X84819Y-25661D01*
X84837Y-25661D01*
X84862Y-25671D01*
X84871Y-25681D01*
X84939Y-25681D02*
X84948Y-25671D01*
X84965Y-25661D01*
X85008Y-25661D01*
X85025Y-25671D01*
X85034Y-25681D01*
X85042Y-25700D01*
X85042Y-25719D01*
X85034Y-25747D01*
X84931Y-25861D01*
X85042Y-25861D01*
X85102Y-25661D02*
X85214Y-25661D01*
X85154Y-25738D01*
X85179Y-25738D01*
X85197Y-25747D01*
X85205Y-25757D01*
X85214Y-25776D01*
X85214Y-25823D01*
X85205Y-25842D01*
X85197Y-25852D01*
X85179Y-25861D01*
X85128Y-25861D01*
X85111Y-25852D01*
X85102Y-25842D01*
X85580Y-26078D02*
X85580Y-26181D01*
X85580Y-26130D02*
X85380Y-26130D01*
X85409Y-26147D01*
X85428Y-26164D01*
X85438Y-26181D01*
X85380Y-25967D02*
X85380Y-25950D01*
X85390Y-25932D01*
X85400Y-25924D01*
X85419Y-25915D01*
X85457Y-25907D01*
X85504Y-25907D01*
X85542Y-25915D01*
X85561Y-25924D01*
X85571Y-25932D01*
X85580Y-25950D01*
X85580Y-25967D01*
X85571Y-25984D01*
X85561Y-25992D01*
X85542Y-26001D01*
X85504Y-26010D01*
X85457Y-26010D01*
X85419Y-26001D01*
X85400Y-25992D01*
X85390Y-25984D01*
X85380Y-25967D01*
X85380Y-25795D02*
X85380Y-25778D01*
X85390Y-25761D01*
X85400Y-25752D01*
X85419Y-25744D01*
X85457Y-25735D01*
X85504Y-25735D01*
X85542Y-25744D01*
X85561Y-25752D01*
X85571Y-25761D01*
X85580Y-25778D01*
X85580Y-25795D01*
X85571Y-25812D01*
X85561Y-25821D01*
X85542Y-25830D01*
X85504Y-25838D01*
X85457Y-25838D01*
X85419Y-25830D01*
X85400Y-25821D01*
X85390Y-25812D01*
X85380Y-25795D01*
X85447Y-25658D02*
X85580Y-25658D01*
X85466Y-25658D02*
X85457Y-25649D01*
X85447Y-25632D01*
X85447Y-25607D01*
X85457Y-25589D01*
X85476Y-25581D01*
X85580Y-25581D01*
X85476Y-25435D02*
X85476Y-25495D01*
X85580Y-25495D02*
X85380Y-25495D01*
X85380Y-25410D01*
X17594Y-24951D02*
X17585Y-24961D01*
X17560Y-24970D01*
X17542Y-24970D01*
X17517Y-24961D01*
X17500Y-24942D01*
X17491Y-24923D01*
X17482Y-24885D01*
X17482Y-24856D01*
X17491Y-24818D01*
X17500Y-24799D01*
X17517Y-24780D01*
X17542Y-24770D01*
X17560Y-24770D01*
X17585Y-24780D01*
X17594Y-24790D01*
X17662Y-24790D02*
X17671Y-24780D01*
X17688Y-24770D01*
X17731Y-24770D01*
X17748Y-24780D01*
X17757Y-24790D01*
X17765Y-24809D01*
X17765Y-24828D01*
X17757Y-24856D01*
X17654Y-24970D01*
X17765Y-24970D01*
X17825Y-24770D02*
X17945Y-24770D01*
X17868Y-24970D01*
X17328Y-24120D02*
X17345Y-24120D01*
X17362Y-24130D01*
X17371Y-24140D01*
X17379Y-24159D01*
X17388Y-24197D01*
X17388Y-24244D01*
X17379Y-24282D01*
X17371Y-24301D01*
X17362Y-24311D01*
X17345Y-24320D01*
X17328Y-24320D01*
X17311Y-24311D01*
X17302Y-24301D01*
X17294Y-24282D01*
X17285Y-24244D01*
X17285Y-24197D01*
X17294Y-24159D01*
X17302Y-24140D01*
X17311Y-24130D01*
X17328Y-24120D01*
X17465Y-24301D02*
X17474Y-24311D01*
X17465Y-24320D01*
X17457Y-24311D01*
X17465Y-24301D01*
X17465Y-24320D01*
X17542Y-24140D02*
X17551Y-24130D01*
X17568Y-24120D01*
X17611Y-24120D01*
X17628Y-24130D01*
X17637Y-24140D01*
X17645Y-24159D01*
X17645Y-24178D01*
X17637Y-24206D01*
X17534Y-24320D01*
X17645Y-24320D01*
X17714Y-24140D02*
X17722Y-24130D01*
X17740Y-24120D01*
X17782Y-24120D01*
X17800Y-24130D01*
X17808Y-24140D01*
X17817Y-24159D01*
X17817Y-24178D01*
X17808Y-24206D01*
X17705Y-24320D01*
X17817Y-24320D01*
X17971Y-24187D02*
X17971Y-24320D01*
X17894Y-24187D02*
X17894Y-24292D01*
X17902Y-24311D01*
X17920Y-24320D01*
X17945Y-24320D01*
X17962Y-24311D01*
X17971Y-24301D01*
X18117Y-24216D02*
X18057Y-24216D01*
X18057Y-24320D02*
X18057Y-24120D01*
X18142Y-24120D01*
X21292Y-29658D02*
X21302Y-29667D01*
X21311Y-29693D01*
X21311Y-29710D01*
X21302Y-29735D01*
X21283Y-29753D01*
X21264Y-29761D01*
X21226Y-29770D01*
X21197Y-29770D01*
X21159Y-29761D01*
X21140Y-29753D01*
X21121Y-29735D01*
X21111Y-29710D01*
X21111Y-29693D01*
X21121Y-29667D01*
X21131Y-29658D01*
X21131Y-29590D02*
X21121Y-29581D01*
X21111Y-29564D01*
X21111Y-29521D01*
X21121Y-29504D01*
X21131Y-29495D01*
X21150Y-29487D01*
X21169Y-29487D01*
X21197Y-29495D01*
X21311Y-29598D01*
X21311Y-29487D01*
X21311Y-29401D02*
X21311Y-29367D01*
X21302Y-29350D01*
X21292Y-29341D01*
X21264Y-29324D01*
X21226Y-29315D01*
X21150Y-29315D01*
X21131Y-29324D01*
X21121Y-29333D01*
X21111Y-29350D01*
X21111Y-29384D01*
X21121Y-29401D01*
X21131Y-29410D01*
X21150Y-29418D01*
X21197Y-29418D01*
X21216Y-29410D01*
X21226Y-29401D01*
X21235Y-29384D01*
X21235Y-29350D01*
X21226Y-29333D01*
X21216Y-29324D01*
X21197Y-29315D01*
X21781Y-29924D02*
X21771Y-29915D01*
X21761Y-29898D01*
X21761Y-29855D01*
X21771Y-29838D01*
X21781Y-29830D01*
X21800Y-29821D01*
X21819Y-29821D01*
X21847Y-29830D01*
X21961Y-29933D01*
X21961Y-29821D01*
X21781Y-29753D02*
X21771Y-29744D01*
X21761Y-29727D01*
X21761Y-29684D01*
X21771Y-29667D01*
X21781Y-29658D01*
X21800Y-29650D01*
X21819Y-29650D01*
X21847Y-29658D01*
X21961Y-29761D01*
X21961Y-29650D01*
X21761Y-29538D02*
X21761Y-29521D01*
X21771Y-29504D01*
X21781Y-29495D01*
X21800Y-29487D01*
X21838Y-29478D01*
X21885Y-29478D01*
X21923Y-29487D01*
X21942Y-29495D01*
X21952Y-29504D01*
X21961Y-29521D01*
X21961Y-29538D01*
X21952Y-29555D01*
X21942Y-29564D01*
X21923Y-29573D01*
X21885Y-29581D01*
X21838Y-29581D01*
X21800Y-29573D01*
X21781Y-29564D01*
X21771Y-29555D01*
X21761Y-29538D01*
X21828Y-29401D02*
X22028Y-29401D01*
X21838Y-29401D02*
X21828Y-29384D01*
X21828Y-29350D01*
X21838Y-29332D01*
X21847Y-29324D01*
X21866Y-29315D01*
X21923Y-29315D01*
X21942Y-29324D01*
X21952Y-29332D01*
X21961Y-29350D01*
X21961Y-29384D01*
X21952Y-29401D01*
X21857Y-29178D02*
X21857Y-29238D01*
X21961Y-29238D02*
X21761Y-29238D01*
X21761Y-29153D01*
G54D16*
X21873Y-26085D02*
X21863Y-26095D01*
X21835Y-26104D01*
X21817Y-26104D01*
X21788Y-26095D01*
X21770Y-26076D01*
X21760Y-26057D01*
X21751Y-26020D01*
X21751Y-25992D01*
X21760Y-25954D01*
X21770Y-25935D01*
X21788Y-25917D01*
X21817Y-25907D01*
X21835Y-25907D01*
X21863Y-25917D01*
X21873Y-25926D01*
X21948Y-25926D02*
X21957Y-25917D01*
X21976Y-25907D01*
X22023Y-25907D01*
X22042Y-25917D01*
X22051Y-25926D01*
X22060Y-25945D01*
X22060Y-25964D01*
X22051Y-25992D01*
X21939Y-26104D01*
X22060Y-26104D01*
X22173Y-25992D02*
X22154Y-25982D01*
X22145Y-25973D01*
X22136Y-25954D01*
X22136Y-25945D01*
X22145Y-25926D01*
X22154Y-25917D01*
X22173Y-25907D01*
X22211Y-25907D01*
X22229Y-25917D01*
X22239Y-25926D01*
X22248Y-25945D01*
X22248Y-25954D01*
X22239Y-25973D01*
X22229Y-25982D01*
X22211Y-25992D01*
X22173Y-25992D01*
X22154Y-26001D01*
X22145Y-26010D01*
X22136Y-26029D01*
X22136Y-26067D01*
X22145Y-26085D01*
X22154Y-26095D01*
X22173Y-26104D01*
X22211Y-26104D01*
X22229Y-26095D01*
X22239Y-26085D01*
X22248Y-26067D01*
X22248Y-26029D01*
X22239Y-26010D01*
X22229Y-26001D01*
X22211Y-25992D01*
X21676Y-24376D02*
X21685Y-24367D01*
X21704Y-24357D01*
X21751Y-24357D01*
X21770Y-24367D01*
X21779Y-24376D01*
X21788Y-24395D01*
X21788Y-24414D01*
X21779Y-24442D01*
X21666Y-24554D01*
X21788Y-24554D01*
X21863Y-24376D02*
X21873Y-24367D01*
X21892Y-24357D01*
X21939Y-24357D01*
X21957Y-24367D01*
X21967Y-24376D01*
X21976Y-24395D01*
X21976Y-24414D01*
X21967Y-24442D01*
X21854Y-24554D01*
X21976Y-24554D01*
X22145Y-24423D02*
X22145Y-24554D01*
X22060Y-24423D02*
X22060Y-24526D01*
X22070Y-24545D01*
X22089Y-24554D01*
X22117Y-24554D01*
X22136Y-24545D01*
X22145Y-24535D01*
X22304Y-24451D02*
X22239Y-24451D01*
X22239Y-24554D02*
X22239Y-24357D01*
X22333Y-24357D01*
G54D19*
X51290Y-14621D02*
X51290Y-14835D01*
X51276Y-14878D01*
X51247Y-14906D01*
X51205Y-14921D01*
X51176Y-14921D01*
X51433Y-14921D02*
X51433Y-14621D01*
X51547Y-14621D01*
X51575Y-14636D01*
X51589Y-14650D01*
X51604Y-14678D01*
X51604Y-14721D01*
X51589Y-14750D01*
X51575Y-14764D01*
X51547Y-14778D01*
X51433Y-14778D01*
X51860Y-14721D02*
X51860Y-14921D01*
X51789Y-14607D02*
X51718Y-14821D01*
X51903Y-14821D01*
X52270Y-14601D02*
X52270Y-14815D01*
X52256Y-14858D01*
X52227Y-14886D01*
X52185Y-14901D01*
X52156Y-14901D01*
X52413Y-14901D02*
X52413Y-14601D01*
X52527Y-14601D01*
X52555Y-14616D01*
X52569Y-14630D01*
X52584Y-14658D01*
X52584Y-14701D01*
X52569Y-14730D01*
X52555Y-14744D01*
X52527Y-14758D01*
X52413Y-14758D01*
X52854Y-14601D02*
X52712Y-14601D01*
X52698Y-14744D01*
X52712Y-14730D01*
X52740Y-14715D01*
X52812Y-14715D01*
X52840Y-14730D01*
X52854Y-14744D01*
X52869Y-14772D01*
X52869Y-14844D01*
X52854Y-14872D01*
X52840Y-14886D01*
X52812Y-14901D01*
X52740Y-14901D01*
X52712Y-14886D01*
X52698Y-14872D01*
G54D15*
X17964Y-36242D02*
X17964Y-36728D01*
X17983Y-36785D01*
X18002Y-36814D01*
X18040Y-36842D01*
X18117Y-36842D01*
X18155Y-36814D01*
X18174Y-36785D01*
X18193Y-36728D01*
X18193Y-36242D01*
X18593Y-36842D02*
X18364Y-36842D01*
X18479Y-36842D02*
X18479Y-36242D01*
X18440Y-36328D01*
X18402Y-36385D01*
X18364Y-36414D01*
X18783Y-36842D02*
X18860Y-36842D01*
X18898Y-36814D01*
X18917Y-36785D01*
X18955Y-36700D01*
X18974Y-36585D01*
X18974Y-36357D01*
X18955Y-36300D01*
X18936Y-36271D01*
X18898Y-36242D01*
X18821Y-36242D01*
X18783Y-36271D01*
X18764Y-36300D01*
X18745Y-36357D01*
X18745Y-36500D01*
X18764Y-36557D01*
X18783Y-36585D01*
X18821Y-36614D01*
X18898Y-36614D01*
X18936Y-36585D01*
X18955Y-36557D01*
X18974Y-36500D01*
G54D27*
X19120Y-38910D02*
X19288Y-39161D01*
X19288Y-38910D02*
X19120Y-39161D01*
X19528Y-39137D02*
X19516Y-39149D01*
X19480Y-39161D01*
X19456Y-39161D01*
X19420Y-39149D01*
X19396Y-39125D01*
X19384Y-39101D01*
X19372Y-39054D01*
X19372Y-39018D01*
X19384Y-38970D01*
X19396Y-38946D01*
X19420Y-38922D01*
X19456Y-38910D01*
X19480Y-38910D01*
X19516Y-38922D01*
X19528Y-38934D01*
X19648Y-39161D02*
X19696Y-39161D01*
X19720Y-39149D01*
X19732Y-39137D01*
X19756Y-39101D01*
X19768Y-39054D01*
X19768Y-38958D01*
X19756Y-38934D01*
X19744Y-38922D01*
X19720Y-38910D01*
X19672Y-38910D01*
X19648Y-38922D01*
X19636Y-38934D01*
X19624Y-38958D01*
X19624Y-39018D01*
X19636Y-39042D01*
X19648Y-39054D01*
X19672Y-39065D01*
X19720Y-39065D01*
X19744Y-39054D01*
X19756Y-39042D01*
X19768Y-39018D01*
X19996Y-38910D02*
X19876Y-38910D01*
X19864Y-39030D01*
X19876Y-39018D01*
X19900Y-39006D01*
X19960Y-39006D01*
X19984Y-39018D01*
X19996Y-39030D01*
X20008Y-39054D01*
X20008Y-39113D01*
X19996Y-39137D01*
X19984Y-39149D01*
X19960Y-39161D01*
X19900Y-39161D01*
X19876Y-39149D01*
X19864Y-39137D01*
X20092Y-38910D02*
X20248Y-38910D01*
X20164Y-39006D01*
X20200Y-39006D01*
X20224Y-39018D01*
X20236Y-39030D01*
X20248Y-39054D01*
X20248Y-39113D01*
X20236Y-39137D01*
X20224Y-39149D01*
X20200Y-39161D01*
X20128Y-39161D01*
X20104Y-39149D01*
X20092Y-39137D01*
X20464Y-38910D02*
X20416Y-38910D01*
X20392Y-38922D01*
X20380Y-38934D01*
X20356Y-38970D01*
X20344Y-39018D01*
X20344Y-39113D01*
X20356Y-39137D01*
X20368Y-39149D01*
X20392Y-39161D01*
X20440Y-39161D01*
X20464Y-39149D01*
X20476Y-39137D01*
X20488Y-39113D01*
X20488Y-39054D01*
X20476Y-39030D01*
X20464Y-39018D01*
X20440Y-39006D01*
X20392Y-39006D01*
X20368Y-39018D01*
X20356Y-39030D01*
X20344Y-39054D01*
X20572Y-38910D02*
X20740Y-39161D01*
X20740Y-38910D02*
X20572Y-39161D01*
X20956Y-39161D02*
X20836Y-39161D01*
X20836Y-38910D01*
X21040Y-39065D02*
X21231Y-39065D01*
X21471Y-38910D02*
X21351Y-38910D01*
X21339Y-39030D01*
X21351Y-39018D01*
X21375Y-39006D01*
X21435Y-39006D01*
X21459Y-39018D01*
X21471Y-39030D01*
X21483Y-39054D01*
X21483Y-39113D01*
X21471Y-39137D01*
X21459Y-39149D01*
X21435Y-39161D01*
X21375Y-39161D01*
X21351Y-39149D01*
X21339Y-39137D01*
X21555Y-38910D02*
X21639Y-39161D01*
X21723Y-38910D01*
X21975Y-39185D02*
X21951Y-39173D01*
X21927Y-39149D01*
X21891Y-39113D01*
X21867Y-39101D01*
X21843Y-39101D01*
X21855Y-39161D02*
X21831Y-39149D01*
X21807Y-39125D01*
X21795Y-39077D01*
X21795Y-38994D01*
X21807Y-38946D01*
X21831Y-38922D01*
X21855Y-38910D01*
X21903Y-38910D01*
X21927Y-38922D01*
X21951Y-38946D01*
X21963Y-38994D01*
X21963Y-39077D01*
X21951Y-39125D01*
X21927Y-39149D01*
X21903Y-39161D01*
X21855Y-39161D01*
X22203Y-38922D02*
X22179Y-38910D01*
X22143Y-38910D01*
X22107Y-38922D01*
X22083Y-38946D01*
X22071Y-38970D01*
X22059Y-39018D01*
X22059Y-39054D01*
X22071Y-39101D01*
X22083Y-39125D01*
X22107Y-39149D01*
X22143Y-39161D01*
X22167Y-39161D01*
X22203Y-39149D01*
X22215Y-39137D01*
X22215Y-39054D01*
X22167Y-39054D01*
X22431Y-38994D02*
X22431Y-39161D01*
X22371Y-38898D02*
X22311Y-39077D01*
X22467Y-39077D01*
X22671Y-38994D02*
X22671Y-39161D01*
X22611Y-38898D02*
X22551Y-39077D01*
X22707Y-39077D01*
X22947Y-39137D02*
X22935Y-39149D01*
X22899Y-39161D01*
X22875Y-39161D01*
X22839Y-39149D01*
X22815Y-39125D01*
X22803Y-39101D01*
X22791Y-39054D01*
X22791Y-39018D01*
X22803Y-38970D01*
X22815Y-38946D01*
X22839Y-38922D01*
X22875Y-38910D01*
X22899Y-38910D01*
X22935Y-38922D01*
X22947Y-38934D01*
G54D25*
X21388Y-36433D02*
X21398Y-36442D01*
X21407Y-36468D01*
X21407Y-36485D01*
X21398Y-36510D01*
X21379Y-36528D01*
X21360Y-36536D01*
X21322Y-36545D01*
X21293Y-36545D01*
X21255Y-36536D01*
X21236Y-36528D01*
X21217Y-36510D01*
X21207Y-36485D01*
X21207Y-36468D01*
X21217Y-36442D01*
X21227Y-36433D01*
X21207Y-36373D02*
X21207Y-36262D01*
X21284Y-36322D01*
X21284Y-36296D01*
X21293Y-36279D01*
X21303Y-36270D01*
X21322Y-36262D01*
X21369Y-36262D01*
X21388Y-36270D01*
X21398Y-36279D01*
X21407Y-36296D01*
X21407Y-36348D01*
X21398Y-36365D01*
X21388Y-36373D01*
X21227Y-36193D02*
X21217Y-36185D01*
X21207Y-36168D01*
X21207Y-36125D01*
X21217Y-36108D01*
X21227Y-36099D01*
X21246Y-36090D01*
X21265Y-36090D01*
X21293Y-36099D01*
X21407Y-36202D01*
X21407Y-36090D01*
X22057Y-36596D02*
X22057Y-36699D01*
X22057Y-36648D02*
X21857Y-36648D01*
X21886Y-36665D01*
X21905Y-36682D01*
X21915Y-36699D01*
X21857Y-36485D02*
X21857Y-36468D01*
X21867Y-36450D01*
X21877Y-36442D01*
X21896Y-36433D01*
X21934Y-36425D01*
X21981Y-36425D01*
X22019Y-36433D01*
X22038Y-36442D01*
X22048Y-36450D01*
X22057Y-36468D01*
X22057Y-36485D01*
X22048Y-36502D01*
X22038Y-36510D01*
X22019Y-36519D01*
X21981Y-36528D01*
X21934Y-36528D01*
X21896Y-36519D01*
X21877Y-36510D01*
X21867Y-36502D01*
X21857Y-36485D01*
X21857Y-36313D02*
X21857Y-36296D01*
X21867Y-36279D01*
X21877Y-36270D01*
X21896Y-36262D01*
X21934Y-36253D01*
X21981Y-36253D01*
X22019Y-36262D01*
X22038Y-36270D01*
X22048Y-36279D01*
X22057Y-36296D01*
X22057Y-36313D01*
X22048Y-36330D01*
X22038Y-36339D01*
X22019Y-36348D01*
X21981Y-36356D01*
X21934Y-36356D01*
X21896Y-36348D01*
X21877Y-36339D01*
X21867Y-36330D01*
X21857Y-36313D01*
X21924Y-36176D02*
X22057Y-36176D01*
X21943Y-36176D02*
X21934Y-36167D01*
X21924Y-36150D01*
X21924Y-36125D01*
X21934Y-36107D01*
X21953Y-36099D01*
X22057Y-36099D01*
X21953Y-35953D02*
X21953Y-36013D01*
X22057Y-36013D02*
X21857Y-36013D01*
X21857Y-35928D01*
X17785Y-37992D02*
X17776Y-38002D01*
X17751Y-38011D01*
X17733Y-38011D01*
X17708Y-38002D01*
X17691Y-37983D01*
X17682Y-37964D01*
X17673Y-37926D01*
X17673Y-37897D01*
X17682Y-37859D01*
X17691Y-37840D01*
X17708Y-37821D01*
X17733Y-37811D01*
X17751Y-37811D01*
X17776Y-37821D01*
X17785Y-37831D01*
X17845Y-37811D02*
X17956Y-37811D01*
X17896Y-37888D01*
X17922Y-37888D01*
X17939Y-37897D01*
X17948Y-37907D01*
X17956Y-37926D01*
X17956Y-37973D01*
X17948Y-37992D01*
X17939Y-38002D01*
X17922Y-38011D01*
X17871Y-38011D01*
X17853Y-38002D01*
X17845Y-37992D01*
X18128Y-38011D02*
X18025Y-38011D01*
X18076Y-38011D02*
X18076Y-37811D01*
X18059Y-37840D01*
X18042Y-37859D01*
X18025Y-37869D01*
X17616Y-37310D02*
X17513Y-37310D01*
X17564Y-37310D02*
X17564Y-37110D01*
X17547Y-37139D01*
X17530Y-37158D01*
X17513Y-37168D01*
X17727Y-37110D02*
X17745Y-37110D01*
X17762Y-37120D01*
X17770Y-37130D01*
X17779Y-37149D01*
X17787Y-37187D01*
X17787Y-37234D01*
X17779Y-37272D01*
X17770Y-37291D01*
X17762Y-37301D01*
X17745Y-37310D01*
X17727Y-37310D01*
X17710Y-37301D01*
X17702Y-37291D01*
X17693Y-37272D01*
X17685Y-37234D01*
X17685Y-37187D01*
X17693Y-37149D01*
X17702Y-37130D01*
X17710Y-37120D01*
X17727Y-37110D01*
X17899Y-37110D02*
X17916Y-37110D01*
X17933Y-37120D01*
X17942Y-37130D01*
X17950Y-37149D01*
X17959Y-37187D01*
X17959Y-37234D01*
X17950Y-37272D01*
X17942Y-37291D01*
X17933Y-37301D01*
X17916Y-37310D01*
X17899Y-37310D01*
X17882Y-37301D01*
X17873Y-37291D01*
X17865Y-37272D01*
X17856Y-37234D01*
X17856Y-37187D01*
X17865Y-37149D01*
X17873Y-37130D01*
X17882Y-37120D01*
X17899Y-37110D01*
X18036Y-37177D02*
X18036Y-37310D01*
X18036Y-37196D02*
X18045Y-37187D01*
X18062Y-37177D01*
X18087Y-37177D01*
X18105Y-37187D01*
X18113Y-37206D01*
X18113Y-37310D01*
X18259Y-37206D02*
X18199Y-37206D01*
X18199Y-37310D02*
X18199Y-37110D01*
X18285Y-37110D01*
X19519Y-42519D02*
X19529Y-42528D01*
X19538Y-42554D01*
X19538Y-42571D01*
X19529Y-42596D01*
X19510Y-42614D01*
X19491Y-42622D01*
X19453Y-42631D01*
X19424Y-42631D01*
X19386Y-42622D01*
X19367Y-42614D01*
X19348Y-42596D01*
X19338Y-42571D01*
X19338Y-42554D01*
X19348Y-42528D01*
X19358Y-42519D01*
X19338Y-42459D02*
X19338Y-42348D01*
X19415Y-42408D01*
X19415Y-42382D01*
X19424Y-42365D01*
X19434Y-42356D01*
X19453Y-42348D01*
X19500Y-42348D01*
X19519Y-42356D01*
X19529Y-42365D01*
X19538Y-42382D01*
X19538Y-42434D01*
X19529Y-42451D01*
X19519Y-42459D01*
X19338Y-42236D02*
X19338Y-42219D01*
X19348Y-42202D01*
X19358Y-42194D01*
X19377Y-42185D01*
X19415Y-42176D01*
X19462Y-42176D01*
X19500Y-42185D01*
X19519Y-42194D01*
X19529Y-42202D01*
X19538Y-42219D01*
X19538Y-42236D01*
X19529Y-42254D01*
X19519Y-42262D01*
X19500Y-42271D01*
X19462Y-42279D01*
X19415Y-42279D01*
X19377Y-42271D01*
X19358Y-42262D01*
X19348Y-42254D01*
X19338Y-42236D01*
X20188Y-42682D02*
X20188Y-42785D01*
X20188Y-42734D02*
X19988Y-42734D01*
X20017Y-42751D01*
X20036Y-42768D01*
X20046Y-42785D01*
X19988Y-42571D02*
X19988Y-42554D01*
X19998Y-42536D01*
X20008Y-42528D01*
X20027Y-42519D01*
X20065Y-42511D01*
X20112Y-42511D01*
X20150Y-42519D01*
X20169Y-42528D01*
X20179Y-42536D01*
X20188Y-42554D01*
X20188Y-42571D01*
X20179Y-42588D01*
X20169Y-42596D01*
X20150Y-42605D01*
X20112Y-42614D01*
X20065Y-42614D01*
X20027Y-42605D01*
X20008Y-42596D01*
X19998Y-42588D01*
X19988Y-42571D01*
X19988Y-42399D02*
X19988Y-42382D01*
X19998Y-42365D01*
X20008Y-42356D01*
X20027Y-42348D01*
X20065Y-42339D01*
X20112Y-42339D01*
X20150Y-42348D01*
X20169Y-42356D01*
X20179Y-42365D01*
X20188Y-42382D01*
X20188Y-42399D01*
X20179Y-42416D01*
X20169Y-42425D01*
X20150Y-42434D01*
X20112Y-42442D01*
X20065Y-42442D01*
X20027Y-42434D01*
X20008Y-42425D01*
X19998Y-42416D01*
X19988Y-42399D01*
X20055Y-42262D02*
X20188Y-42262D01*
X20074Y-42262D02*
X20065Y-42253D01*
X20055Y-42236D01*
X20055Y-42211D01*
X20065Y-42193D01*
X20084Y-42185D01*
X20188Y-42185D01*
X20084Y-42039D02*
X20084Y-42099D01*
X20188Y-42099D02*
X19988Y-42099D01*
X19988Y-42014D01*
X51895Y-21298D02*
X51905Y-21307D01*
X51914Y-21333D01*
X51914Y-21350D01*
X51905Y-21375D01*
X51886Y-21393D01*
X51867Y-21401D01*
X51829Y-21410D01*
X51800Y-21410D01*
X51762Y-21401D01*
X51743Y-21393D01*
X51724Y-21375D01*
X51714Y-21350D01*
X51714Y-21333D01*
X51724Y-21307D01*
X51734Y-21298D01*
X51714Y-21238D02*
X51714Y-21127D01*
X51791Y-21187D01*
X51791Y-21161D01*
X51800Y-21144D01*
X51810Y-21135D01*
X51829Y-21127D01*
X51876Y-21127D01*
X51895Y-21135D01*
X51905Y-21144D01*
X51914Y-21161D01*
X51914Y-21213D01*
X51905Y-21230D01*
X51895Y-21238D01*
X51781Y-20973D02*
X51914Y-20973D01*
X51705Y-21015D02*
X51848Y-21058D01*
X51848Y-20947D01*
X52564Y-21461D02*
X52564Y-21564D01*
X52564Y-21513D02*
X52364Y-21513D01*
X52393Y-21530D01*
X52412Y-21547D01*
X52422Y-21564D01*
X52364Y-21350D02*
X52364Y-21333D01*
X52374Y-21315D01*
X52384Y-21307D01*
X52403Y-21298D01*
X52441Y-21290D01*
X52488Y-21290D01*
X52526Y-21298D01*
X52545Y-21307D01*
X52555Y-21315D01*
X52564Y-21333D01*
X52564Y-21350D01*
X52555Y-21367D01*
X52545Y-21375D01*
X52526Y-21384D01*
X52488Y-21393D01*
X52441Y-21393D01*
X52403Y-21384D01*
X52384Y-21375D01*
X52374Y-21367D01*
X52364Y-21350D01*
X52364Y-21178D02*
X52364Y-21161D01*
X52374Y-21144D01*
X52384Y-21135D01*
X52403Y-21127D01*
X52441Y-21118D01*
X52488Y-21118D01*
X52526Y-21127D01*
X52545Y-21135D01*
X52555Y-21144D01*
X52564Y-21161D01*
X52564Y-21178D01*
X52555Y-21195D01*
X52545Y-21204D01*
X52526Y-21213D01*
X52488Y-21221D01*
X52441Y-21221D01*
X52403Y-21213D01*
X52384Y-21204D01*
X52374Y-21195D01*
X52364Y-21178D01*
X52431Y-21041D02*
X52564Y-21041D01*
X52450Y-21041D02*
X52441Y-21032D01*
X52431Y-21015D01*
X52431Y-20990D01*
X52441Y-20972D01*
X52460Y-20964D01*
X52564Y-20964D01*
X52460Y-20818D02*
X52460Y-20878D01*
X52564Y-20878D02*
X52364Y-20878D01*
X52364Y-20793D01*
X58318Y-21247D02*
X58328Y-21256D01*
X58337Y-21282D01*
X58337Y-21299D01*
X58328Y-21324D01*
X58309Y-21342D01*
X58290Y-21350D01*
X58252Y-21359D01*
X58223Y-21359D01*
X58185Y-21350D01*
X58166Y-21342D01*
X58147Y-21324D01*
X58137Y-21299D01*
X58137Y-21282D01*
X58147Y-21256D01*
X58157Y-21247D01*
X58137Y-21187D02*
X58137Y-21076D01*
X58214Y-21136D01*
X58214Y-21110D01*
X58223Y-21093D01*
X58233Y-21084D01*
X58252Y-21076D01*
X58299Y-21076D01*
X58318Y-21084D01*
X58328Y-21093D01*
X58337Y-21110D01*
X58337Y-21162D01*
X58328Y-21179D01*
X58318Y-21187D01*
X58137Y-20913D02*
X58137Y-20999D01*
X58233Y-21007D01*
X58223Y-20999D01*
X58214Y-20982D01*
X58214Y-20939D01*
X58223Y-20922D01*
X58233Y-20913D01*
X58252Y-20904D01*
X58299Y-20904D01*
X58318Y-20913D01*
X58328Y-20922D01*
X58337Y-20939D01*
X58337Y-20982D01*
X58328Y-20999D01*
X58318Y-21007D01*
X58987Y-21410D02*
X58987Y-21513D01*
X58987Y-21462D02*
X58787Y-21462D01*
X58816Y-21479D01*
X58835Y-21496D01*
X58845Y-21513D01*
X58787Y-21299D02*
X58787Y-21282D01*
X58797Y-21264D01*
X58807Y-21256D01*
X58826Y-21247D01*
X58864Y-21239D01*
X58911Y-21239D01*
X58949Y-21247D01*
X58968Y-21256D01*
X58978Y-21264D01*
X58987Y-21282D01*
X58987Y-21299D01*
X58978Y-21316D01*
X58968Y-21324D01*
X58949Y-21333D01*
X58911Y-21342D01*
X58864Y-21342D01*
X58826Y-21333D01*
X58807Y-21324D01*
X58797Y-21316D01*
X58787Y-21299D01*
X58787Y-21127D02*
X58787Y-21110D01*
X58797Y-21093D01*
X58807Y-21084D01*
X58826Y-21076D01*
X58864Y-21067D01*
X58911Y-21067D01*
X58949Y-21076D01*
X58968Y-21084D01*
X58978Y-21093D01*
X58987Y-21110D01*
X58987Y-21127D01*
X58978Y-21144D01*
X58968Y-21153D01*
X58949Y-21162D01*
X58911Y-21170D01*
X58864Y-21170D01*
X58826Y-21162D01*
X58807Y-21153D01*
X58797Y-21144D01*
X58787Y-21127D01*
X58854Y-20990D02*
X58987Y-20990D01*
X58873Y-20990D02*
X58864Y-20981D01*
X58854Y-20964D01*
X58854Y-20939D01*
X58864Y-20921D01*
X58883Y-20913D01*
X58987Y-20913D01*
X58883Y-20767D02*
X58883Y-20827D01*
X58987Y-20827D02*
X58787Y-20827D01*
X58787Y-20742D01*
X50783Y-32042D02*
X50793Y-32051D01*
X50802Y-32077D01*
X50802Y-32094D01*
X50793Y-32119D01*
X50774Y-32137D01*
X50755Y-32145D01*
X50717Y-32154D01*
X50688Y-32154D01*
X50650Y-32145D01*
X50631Y-32137D01*
X50612Y-32119D01*
X50602Y-32094D01*
X50602Y-32077D01*
X50612Y-32051D01*
X50622Y-32042D01*
X50602Y-31982D02*
X50602Y-31871D01*
X50679Y-31931D01*
X50679Y-31905D01*
X50688Y-31888D01*
X50698Y-31879D01*
X50717Y-31871D01*
X50764Y-31871D01*
X50783Y-31879D01*
X50793Y-31888D01*
X50802Y-31905D01*
X50802Y-31957D01*
X50793Y-31974D01*
X50783Y-31982D01*
X50602Y-31717D02*
X50602Y-31751D01*
X50612Y-31768D01*
X50622Y-31777D01*
X50650Y-31794D01*
X50688Y-31802D01*
X50764Y-31802D01*
X50783Y-31794D01*
X50793Y-31785D01*
X50802Y-31768D01*
X50802Y-31734D01*
X50793Y-31717D01*
X50783Y-31708D01*
X50764Y-31699D01*
X50717Y-31699D01*
X50698Y-31708D01*
X50688Y-31717D01*
X50679Y-31734D01*
X50679Y-31768D01*
X50688Y-31785D01*
X50698Y-31794D01*
X50717Y-31802D01*
X51452Y-32205D02*
X51452Y-32308D01*
X51452Y-32257D02*
X51252Y-32257D01*
X51281Y-32274D01*
X51300Y-32291D01*
X51310Y-32308D01*
X51252Y-32094D02*
X51252Y-32077D01*
X51262Y-32059D01*
X51272Y-32051D01*
X51291Y-32042D01*
X51329Y-32034D01*
X51376Y-32034D01*
X51414Y-32042D01*
X51433Y-32051D01*
X51443Y-32059D01*
X51452Y-32077D01*
X51452Y-32094D01*
X51443Y-32111D01*
X51433Y-32119D01*
X51414Y-32128D01*
X51376Y-32137D01*
X51329Y-32137D01*
X51291Y-32128D01*
X51272Y-32119D01*
X51262Y-32111D01*
X51252Y-32094D01*
X51252Y-31922D02*
X51252Y-31905D01*
X51262Y-31888D01*
X51272Y-31879D01*
X51291Y-31871D01*
X51329Y-31862D01*
X51376Y-31862D01*
X51414Y-31871D01*
X51433Y-31879D01*
X51443Y-31888D01*
X51452Y-31905D01*
X51452Y-31922D01*
X51443Y-31939D01*
X51433Y-31948D01*
X51414Y-31957D01*
X51376Y-31965D01*
X51329Y-31965D01*
X51291Y-31957D01*
X51272Y-31948D01*
X51262Y-31939D01*
X51252Y-31922D01*
X51319Y-31785D02*
X51452Y-31785D01*
X51338Y-31785D02*
X51329Y-31776D01*
X51319Y-31759D01*
X51319Y-31734D01*
X51329Y-31716D01*
X51348Y-31708D01*
X51452Y-31708D01*
X51348Y-31562D02*
X51348Y-31622D01*
X51452Y-31622D02*
X51252Y-31622D01*
X51252Y-31537D01*
X49560Y-22876D02*
X49551Y-22886D01*
X49526Y-22895D01*
X49508Y-22895D01*
X49483Y-22886D01*
X49466Y-22867D01*
X49457Y-22848D01*
X49448Y-22810D01*
X49448Y-22781D01*
X49457Y-22743D01*
X49466Y-22724D01*
X49483Y-22705D01*
X49508Y-22695D01*
X49526Y-22695D01*
X49551Y-22705D01*
X49560Y-22715D01*
X49620Y-22695D02*
X49731Y-22695D01*
X49671Y-22772D01*
X49697Y-22772D01*
X49714Y-22781D01*
X49723Y-22791D01*
X49731Y-22810D01*
X49731Y-22857D01*
X49723Y-22876D01*
X49714Y-22886D01*
X49697Y-22895D01*
X49646Y-22895D01*
X49628Y-22886D01*
X49620Y-22876D01*
X49817Y-22895D02*
X49851Y-22895D01*
X49868Y-22886D01*
X49877Y-22876D01*
X49894Y-22848D01*
X49903Y-22810D01*
X49903Y-22734D01*
X49894Y-22715D01*
X49886Y-22705D01*
X49868Y-22695D01*
X49834Y-22695D01*
X49817Y-22705D01*
X49808Y-22715D01*
X49800Y-22734D01*
X49800Y-22781D01*
X49808Y-22800D01*
X49817Y-22810D01*
X49834Y-22819D01*
X49868Y-22819D01*
X49886Y-22810D01*
X49894Y-22800D01*
X49903Y-22781D01*
X49397Y-23545D02*
X49294Y-23545D01*
X49345Y-23545D02*
X49345Y-23345D01*
X49328Y-23374D01*
X49311Y-23393D01*
X49294Y-23403D01*
X49508Y-23345D02*
X49526Y-23345D01*
X49543Y-23355D01*
X49551Y-23365D01*
X49560Y-23384D01*
X49568Y-23422D01*
X49568Y-23469D01*
X49560Y-23507D01*
X49551Y-23526D01*
X49543Y-23536D01*
X49526Y-23545D01*
X49508Y-23545D01*
X49491Y-23536D01*
X49483Y-23526D01*
X49474Y-23507D01*
X49466Y-23469D01*
X49466Y-23422D01*
X49474Y-23384D01*
X49483Y-23365D01*
X49491Y-23355D01*
X49508Y-23345D01*
X49680Y-23345D02*
X49697Y-23345D01*
X49714Y-23355D01*
X49723Y-23365D01*
X49731Y-23384D01*
X49740Y-23422D01*
X49740Y-23469D01*
X49731Y-23507D01*
X49723Y-23526D01*
X49714Y-23536D01*
X49697Y-23545D01*
X49680Y-23545D01*
X49663Y-23536D01*
X49654Y-23526D01*
X49646Y-23507D01*
X49637Y-23469D01*
X49637Y-23422D01*
X49646Y-23384D01*
X49654Y-23365D01*
X49663Y-23355D01*
X49680Y-23345D01*
X49817Y-23412D02*
X49817Y-23545D01*
X49817Y-23431D02*
X49826Y-23422D01*
X49843Y-23412D01*
X49868Y-23412D01*
X49886Y-23422D01*
X49894Y-23441D01*
X49894Y-23545D01*
X50040Y-23441D02*
X49980Y-23441D01*
X49980Y-23545D02*
X49980Y-23345D01*
X50066Y-23345D01*
G54D12*
%LPC*%
G54D28*
X84178Y-24761D03*
X83882Y-24761D03*
X83587Y-24761D03*
X83292Y-24761D03*
X82997Y-24761D03*
X82701Y-24761D03*
X84178Y-25056D03*
X83882Y-25056D03*
X83587Y-25056D03*
X83292Y-25056D03*
X82997Y-25056D03*
X82701Y-25056D03*
X84178Y-25352D03*
X84178Y-25647D03*
X84178Y-25942D03*
X84178Y-26237D03*
X84178Y-26533D03*
X84178Y-26828D03*
X83882Y-25352D03*
X83587Y-25352D03*
X83292Y-25352D03*
X82997Y-25352D03*
X82701Y-25352D03*
X83882Y-25647D03*
X83587Y-25647D03*
X83292Y-25647D03*
X82997Y-25647D03*
X82701Y-25647D03*
X83882Y-25942D03*
X83587Y-25942D03*
X83292Y-25942D03*
X82997Y-25942D03*
X82701Y-25942D03*
X83882Y-26237D03*
X83587Y-26237D03*
X83292Y-26237D03*
X82997Y-26237D03*
X82701Y-26237D03*
X83882Y-26533D03*
X83587Y-26533D03*
X83292Y-26533D03*
X82997Y-26533D03*
X82701Y-26533D03*
X83882Y-26828D03*
X83587Y-26828D03*
X83292Y-26828D03*
X82997Y-26828D03*
X82701Y-26828D03*
X69685Y-24751D03*
X69389Y-24751D03*
X69094Y-24751D03*
X68799Y-24751D03*
X68504Y-24751D03*
X68208Y-24751D03*
X69685Y-25046D03*
X69389Y-25046D03*
X69094Y-25046D03*
X68799Y-25046D03*
X68504Y-25046D03*
X68208Y-25046D03*
X69685Y-25342D03*
X69685Y-25637D03*
X69685Y-25932D03*
X69685Y-26227D03*
X69685Y-26523D03*
X69685Y-26818D03*
X69389Y-25342D03*
X69094Y-25342D03*
X68799Y-25342D03*
X68504Y-25342D03*
X68208Y-25342D03*
X69389Y-25637D03*
X69094Y-25637D03*
X68799Y-25637D03*
X68504Y-25637D03*
X68208Y-25637D03*
X69389Y-25932D03*
X69094Y-25932D03*
X68799Y-25932D03*
X68504Y-25932D03*
X68208Y-25932D03*
X69389Y-26227D03*
X69094Y-26227D03*
X68799Y-26227D03*
X68504Y-26227D03*
X68208Y-26227D03*
X69389Y-26523D03*
X69094Y-26523D03*
X68799Y-26523D03*
X68504Y-26523D03*
X68208Y-26523D03*
X69389Y-26818D03*
X69094Y-26818D03*
X68799Y-26818D03*
X68504Y-26818D03*
X68208Y-26818D03*
G54D29*
X26702Y-20728D03*
X25702Y-20728D03*
X24702Y-20728D03*
X26702Y-21728D03*
X25702Y-21728D03*
X24702Y-21728D03*
X26702Y-22728D03*
X25702Y-22728D03*
X24702Y-22728D03*
X26702Y-23728D03*
X25702Y-23728D03*
X24702Y-23728D03*
X26702Y-24728D03*
X25702Y-24728D03*
X24702Y-24728D03*
X26702Y-25728D03*
X25702Y-25728D03*
X24702Y-25728D03*
X26702Y-26728D03*
X25702Y-26728D03*
X24702Y-26728D03*
X26702Y-27728D03*
X25702Y-27728D03*
X24702Y-27728D03*
X26702Y-28728D03*
X25702Y-28728D03*
X24702Y-28728D03*
X26702Y-29728D03*
X25702Y-29728D03*
X24702Y-29728D03*
X26702Y-30728D03*
X25702Y-30728D03*
X24702Y-30728D03*
X23702Y-30728D03*
X22702Y-30728D03*
X21702Y-30728D03*
X20702Y-30728D03*
X19702Y-30728D03*
X18702Y-30728D03*
X17702Y-30728D03*
X16702Y-30728D03*
X15702Y-30728D03*
X14702Y-30728D03*
X26702Y-31728D03*
X25702Y-31728D03*
X24702Y-31728D03*
X23702Y-31728D03*
X22702Y-31728D03*
X21702Y-31728D03*
X20702Y-31728D03*
X19702Y-31728D03*
X18702Y-31728D03*
X17702Y-31728D03*
X16702Y-31728D03*
X15702Y-31728D03*
X14702Y-31728D03*
G54D30*
X26702Y-32728D03*
G54D29*
X25702Y-32728D03*
X24702Y-32728D03*
X23702Y-32728D03*
X22702Y-32728D03*
X21702Y-32728D03*
X20702Y-32728D03*
X19702Y-32728D03*
X18702Y-32728D03*
X17702Y-32728D03*
X16702Y-32728D03*
X15702Y-32728D03*
X14702Y-32728D03*
X23702Y-20728D03*
X22702Y-20728D03*
X21702Y-20728D03*
X20702Y-20728D03*
X19702Y-20728D03*
X18702Y-20728D03*
X17702Y-20728D03*
X16702Y-20728D03*
X15702Y-20728D03*
X14702Y-20728D03*
X23702Y-21728D03*
X22702Y-21728D03*
X21702Y-21728D03*
X20702Y-21728D03*
X19702Y-21728D03*
X18702Y-21728D03*
X17702Y-21728D03*
X16702Y-21728D03*
X15702Y-21728D03*
X14702Y-21728D03*
X23702Y-22728D03*
X22702Y-22728D03*
X21702Y-22728D03*
X20702Y-22728D03*
X19702Y-22728D03*
X18702Y-22728D03*
X17702Y-22728D03*
X16702Y-22728D03*
X15702Y-22728D03*
X14702Y-22728D03*
X16702Y-23728D03*
X15702Y-23728D03*
X14702Y-23728D03*
X16702Y-24728D03*
X15702Y-24728D03*
X14702Y-24728D03*
X16702Y-25728D03*
X15702Y-25728D03*
X14702Y-25728D03*
X16702Y-26728D03*
X15702Y-26728D03*
X14702Y-26728D03*
X16702Y-27728D03*
X15702Y-27728D03*
X14702Y-27728D03*
X16702Y-28728D03*
X15702Y-28728D03*
X14702Y-28728D03*
X16702Y-29728D03*
X15702Y-29728D03*
X14702Y-29728D03*
X23702Y-29728D03*
X23702Y-23728D03*
X17702Y-23728D03*
X17702Y-29728D03*
X22702Y-29728D03*
X22702Y-23728D03*
X23702Y-27728D03*
X17702Y-27728D03*
G54D31*
X48122Y-17856D03*
X48322Y-17856D03*
X48522Y-17856D03*
X48722Y-17856D03*
X48722Y-16156D03*
X48522Y-16156D03*
X48322Y-16156D03*
X48122Y-16156D03*
G54D32*
X60528Y-37148D03*
X60272Y-37148D03*
X60016Y-37148D03*
X59760Y-37148D03*
X61292Y-39350D03*
X61296Y-37148D03*
X61040Y-37148D03*
X60784Y-37148D03*
X59504Y-39352D03*
X59760Y-39352D03*
X60016Y-39352D03*
X60272Y-39352D03*
X60528Y-39352D03*
X60784Y-39352D03*
X59504Y-37148D03*
X61040Y-39350D03*
X61552Y-37148D03*
X59248Y-37148D03*
X59248Y-39352D03*
X61552Y-39352D03*
X68631Y-37146D03*
X68375Y-37146D03*
X68119Y-37146D03*
X67863Y-37146D03*
X69395Y-39348D03*
X69399Y-37146D03*
X69143Y-37146D03*
X68887Y-37146D03*
X67607Y-39350D03*
X67863Y-39350D03*
X68119Y-39350D03*
X68375Y-39350D03*
X68631Y-39350D03*
X68887Y-39350D03*
X67607Y-37146D03*
X69143Y-39348D03*
X69655Y-37146D03*
X67351Y-37146D03*
X67351Y-39350D03*
X69655Y-39350D03*
X64628Y-37148D03*
X64372Y-37148D03*
X64116Y-37148D03*
X63860Y-37148D03*
X65392Y-39350D03*
X65396Y-37148D03*
X65140Y-37148D03*
X64884Y-37148D03*
X63604Y-39352D03*
X63860Y-39352D03*
X64116Y-39352D03*
X64372Y-39352D03*
X64628Y-39352D03*
X64884Y-39352D03*
X63604Y-37148D03*
X65140Y-39350D03*
X65652Y-37148D03*
X63348Y-37148D03*
X63348Y-39352D03*
X65652Y-39352D03*
X72628Y-37146D03*
X72372Y-37146D03*
X72116Y-37146D03*
X71860Y-37146D03*
X73392Y-39348D03*
X73396Y-37146D03*
X73140Y-37146D03*
X72884Y-37146D03*
X71604Y-39350D03*
X71860Y-39350D03*
X72116Y-39350D03*
X72372Y-39350D03*
X72628Y-39350D03*
X72884Y-39350D03*
X71604Y-37146D03*
X73140Y-39348D03*
X73652Y-37146D03*
X71348Y-37146D03*
X71348Y-39350D03*
X73652Y-39350D03*
X44372Y-18102D03*
X44628Y-18102D03*
X44884Y-18102D03*
X45140Y-18102D03*
X43608Y-15900D03*
X43604Y-18102D03*
X43860Y-18102D03*
X44116Y-18102D03*
X45396Y-15898D03*
X45140Y-15898D03*
X44884Y-15898D03*
X44628Y-15898D03*
X44372Y-15898D03*
X44116Y-15898D03*
X45396Y-18102D03*
X43860Y-15900D03*
X43348Y-18102D03*
X45652Y-18102D03*
X45652Y-15898D03*
X43348Y-15898D03*
G54D33*
X86381Y-20965D03*
X86381Y-20768D03*
X86381Y-20572D03*
X86381Y-20375D03*
X86381Y-20178D03*
X86381Y-19981D03*
X86381Y-19784D03*
X86381Y-19587D03*
X86381Y-19390D03*
X86381Y-19194D03*
X86381Y-18997D03*
X86381Y-18800D03*
X86381Y-18604D03*
X86381Y-18407D03*
X86381Y-18210D03*
X86381Y-18014D03*
X86381Y-17817D03*
X86381Y-17620D03*
X86381Y-17423D03*
X86381Y-17226D03*
X86381Y-17029D03*
X86381Y-16832D03*
X86381Y-16636D03*
X86381Y-16439D03*
X78507Y-16439D03*
X78507Y-16636D03*
X78507Y-16832D03*
X78507Y-17029D03*
X78507Y-17226D03*
X78507Y-17423D03*
X78507Y-17620D03*
X78507Y-17817D03*
X78507Y-18014D03*
X78507Y-18210D03*
X78507Y-18407D03*
X78507Y-18604D03*
X78507Y-18800D03*
X78507Y-18997D03*
X78507Y-19194D03*
X78507Y-19390D03*
X78507Y-19587D03*
X78507Y-19784D03*
X78507Y-19981D03*
X78507Y-20178D03*
X78507Y-20375D03*
X78507Y-20572D03*
X78507Y-20768D03*
X78507Y-20965D03*
X71627Y-20963D03*
X71627Y-20766D03*
X71627Y-20570D03*
X71627Y-20373D03*
X71627Y-20176D03*
X71627Y-19979D03*
X71627Y-19782D03*
X71627Y-19585D03*
X71627Y-19388D03*
X71627Y-19192D03*
X71627Y-18995D03*
X71627Y-18798D03*
X71627Y-18602D03*
X71627Y-18405D03*
X71627Y-18208D03*
X71627Y-18012D03*
X71627Y-17815D03*
X71627Y-17618D03*
X71627Y-17421D03*
X71627Y-17224D03*
X71627Y-17027D03*
X71627Y-16830D03*
X71627Y-16634D03*
X71627Y-16437D03*
X63753Y-16437D03*
X63753Y-16634D03*
X63753Y-16830D03*
X63753Y-17027D03*
X63753Y-17224D03*
X63753Y-17421D03*
X63753Y-17618D03*
X63753Y-17815D03*
X63753Y-18012D03*
X63753Y-18208D03*
X63753Y-18405D03*
X63753Y-18602D03*
X63753Y-18798D03*
X63753Y-18995D03*
X63753Y-19192D03*
X63753Y-19388D03*
X63753Y-19585D03*
X63753Y-19782D03*
X63753Y-19979D03*
X63753Y-20176D03*
X63753Y-20373D03*
X63753Y-20570D03*
X63753Y-20766D03*
X63753Y-20963D03*
X71609Y-28340D03*
X71609Y-28143D03*
X71609Y-27947D03*
X71609Y-27750D03*
X71609Y-27553D03*
X71609Y-27356D03*
X71609Y-27159D03*
X71609Y-26962D03*
X71609Y-26765D03*
X71609Y-26569D03*
X71609Y-26372D03*
X71609Y-26175D03*
X71609Y-25979D03*
X71609Y-25782D03*
X71609Y-25585D03*
X71609Y-25389D03*
X71609Y-25192D03*
X71609Y-24995D03*
X71609Y-24798D03*
X71609Y-24601D03*
X71609Y-24404D03*
X71609Y-24207D03*
X71609Y-24011D03*
X71609Y-23814D03*
X63735Y-23814D03*
X63735Y-24011D03*
X63735Y-24207D03*
X63735Y-24404D03*
X63735Y-24601D03*
X63735Y-24798D03*
X63735Y-24995D03*
X63735Y-25192D03*
X63735Y-25389D03*
X63735Y-25585D03*
X63735Y-25782D03*
X63735Y-25979D03*
X63735Y-26175D03*
X63735Y-26372D03*
X63735Y-26569D03*
X63735Y-26765D03*
X63735Y-26962D03*
X63735Y-27159D03*
X63735Y-27356D03*
X63735Y-27553D03*
X63735Y-27750D03*
X63735Y-27947D03*
X63735Y-28143D03*
X63735Y-28340D03*
X86381Y-28344D03*
X86381Y-28147D03*
X86381Y-27951D03*
X86381Y-27754D03*
X86381Y-27557D03*
X86381Y-27360D03*
X86381Y-27163D03*
X86381Y-26966D03*
X86381Y-26769D03*
X86381Y-26573D03*
X86381Y-26376D03*
X86381Y-26179D03*
X86381Y-25983D03*
X86381Y-25786D03*
X86381Y-25589D03*
X86381Y-25393D03*
X86381Y-25196D03*
X86381Y-24999D03*
X86381Y-24802D03*
X86381Y-24605D03*
X86381Y-24408D03*
X86381Y-24211D03*
X86381Y-24015D03*
X86381Y-23818D03*
X78507Y-23818D03*
X78507Y-24015D03*
X78507Y-24211D03*
X78507Y-24408D03*
X78507Y-24605D03*
X78507Y-24802D03*
X78507Y-24999D03*
X78507Y-25196D03*
X78507Y-25393D03*
X78507Y-25589D03*
X78507Y-25786D03*
X78507Y-25983D03*
X78507Y-26179D03*
X78507Y-26376D03*
X78507Y-26573D03*
X78507Y-26769D03*
X78507Y-26966D03*
X78507Y-27163D03*
X78507Y-27360D03*
X78507Y-27557D03*
X78507Y-27754D03*
X78507Y-27951D03*
X78507Y-28147D03*
X78507Y-28344D03*
G54D34*
X50800Y-23180D03*
X50800Y-23380D03*
X50800Y-23575D03*
X50800Y-23770D03*
X50800Y-23970D03*
X50800Y-24165D03*
X50800Y-24360D03*
X50800Y-24560D03*
X50800Y-24755D03*
X50800Y-24950D03*
X50800Y-25150D03*
X50800Y-25345D03*
X50800Y-25540D03*
X50800Y-25740D03*
X50800Y-25935D03*
X50800Y-26130D03*
X50800Y-26330D03*
X50800Y-26525D03*
X50800Y-26725D03*
X50800Y-26920D03*
X50800Y-27120D03*
X50800Y-27315D03*
X50800Y-27510D03*
X50800Y-27710D03*
X50800Y-27905D03*
X50800Y-28100D03*
X50800Y-28300D03*
X50800Y-28495D03*
X50800Y-28690D03*
X50800Y-28890D03*
X50800Y-29085D03*
X50800Y-29280D03*
X50800Y-29480D03*
X50800Y-29675D03*
X50800Y-29870D03*
X50800Y-30070D03*
G54D35*
X57390Y-30950D03*
X57585Y-30950D03*
X57780Y-30950D03*
X57980Y-30950D03*
X58175Y-30950D03*
X58370Y-30950D03*
X58570Y-30950D03*
X57585Y-22300D03*
X57390Y-22300D03*
X57190Y-22300D03*
X56995Y-22300D03*
X56800Y-22300D03*
X56600Y-22300D03*
X56405Y-22300D03*
X56210Y-22300D03*
X56010Y-22300D03*
X55815Y-22300D03*
X55620Y-22300D03*
X55420Y-22300D03*
X55225Y-22300D03*
X55025Y-22300D03*
X54830Y-22300D03*
X54630Y-22300D03*
X54435Y-22300D03*
X54240Y-22300D03*
X54040Y-22300D03*
X53845Y-22300D03*
X53650Y-22300D03*
X53450Y-22300D03*
X53255Y-22300D03*
X53060Y-22300D03*
X52860Y-22300D03*
X52665Y-22300D03*
X52470Y-22300D03*
X52270Y-22300D03*
X52075Y-22300D03*
X51880Y-22300D03*
X51680Y-22300D03*
X51680Y-30950D03*
X51880Y-30950D03*
X52075Y-30950D03*
X52270Y-30950D03*
X52470Y-30950D03*
X52665Y-30950D03*
X52860Y-30950D03*
X53060Y-30950D03*
X53255Y-30950D03*
X53450Y-30950D03*
X53650Y-30950D03*
X53845Y-30950D03*
X54040Y-30950D03*
X54240Y-30950D03*
X54435Y-30950D03*
X54630Y-30950D03*
X54830Y-30950D03*
X55025Y-30950D03*
X55225Y-30950D03*
X55420Y-30950D03*
X55620Y-30950D03*
X55815Y-30950D03*
X56010Y-30950D03*
X56210Y-30950D03*
X56405Y-30950D03*
X56600Y-30950D03*
X56800Y-30950D03*
X56995Y-30950D03*
X57190Y-30950D03*
G54D34*
X59450Y-29085D03*
X59450Y-28890D03*
X59450Y-28690D03*
X59450Y-28495D03*
X59450Y-28300D03*
X59450Y-28100D03*
X59450Y-27905D03*
X59450Y-27710D03*
X59450Y-27510D03*
X59450Y-27315D03*
X59450Y-27120D03*
X59450Y-26920D03*
X59450Y-26725D03*
X59450Y-26525D03*
X59450Y-26330D03*
X59450Y-26130D03*
X59450Y-25935D03*
X59450Y-25740D03*
X59450Y-25540D03*
X59450Y-25345D03*
X59450Y-25150D03*
X59450Y-24950D03*
X59450Y-24755D03*
X59450Y-24560D03*
X59450Y-24360D03*
X59450Y-24165D03*
X59450Y-23970D03*
X59450Y-23770D03*
X59450Y-23575D03*
X59450Y-23380D03*
X59450Y-23180D03*
X59450Y-30070D03*
X59450Y-29870D03*
X59450Y-29675D03*
X59450Y-29480D03*
X59450Y-29280D03*
G54D35*
X58570Y-22300D03*
X58370Y-22300D03*
X58175Y-22300D03*
X57980Y-22300D03*
X57780Y-22300D03*
G54D36*
X86133Y-37007D03*
X84733Y-37007D03*
G54D37*
X54946Y-14686D03*
X54346Y-14686D03*
G54D38*
X42500Y-16550D03*
X42500Y-15950D03*
X50050Y-16750D03*
X50050Y-17350D03*
G54D37*
X19651Y-27313D03*
X20251Y-27313D03*
G54D38*
X49400Y-16750D03*
X49400Y-17350D03*
X77553Y-18810D03*
X77553Y-19410D03*
X62865Y-18812D03*
X62865Y-19412D03*
X60520Y-27900D03*
X60520Y-27300D03*
G54D37*
X55075Y-21125D03*
X55675Y-21125D03*
G54D38*
X34500Y-20090D03*
X34500Y-19490D03*
X62330Y-39450D03*
X62330Y-38850D03*
X70400Y-39430D03*
X70400Y-38830D03*
X74350Y-39420D03*
X74350Y-38820D03*
X66380Y-39430D03*
X66380Y-38830D03*
G54D37*
X55170Y-32030D03*
X55770Y-32030D03*
X49644Y-24552D03*
X49044Y-24552D03*
X27930Y-41170D03*
X28530Y-41170D03*
X60040Y-18340D03*
X60640Y-18340D03*
X44050Y-14774D03*
X43450Y-14774D03*
G54D38*
X41000Y-14300D03*
X41000Y-13700D03*
X39500Y-14300D03*
X39500Y-13700D03*
X37750Y-14300D03*
X37750Y-13700D03*
G54D37*
X43450Y-13500D03*
X44050Y-13500D03*
X43450Y-14140D03*
X44050Y-14140D03*
G54D39*
X33500Y-26500D03*
X33500Y-26750D03*
X33500Y-27000D03*
X33500Y-27250D03*
X33500Y-27500D03*
X33500Y-27750D03*
X33500Y-28000D03*
X33500Y-28250D03*
X33500Y-28500D03*
X33500Y-28750D03*
X33500Y-29000D03*
X33500Y-29250D03*
X33500Y-29500D03*
X33500Y-29750D03*
X33500Y-30000D03*
X33500Y-30250D03*
X33500Y-30500D03*
G54D40*
X34500Y-31500D03*
X34750Y-31500D03*
X35000Y-31500D03*
X35250Y-31500D03*
X35500Y-31500D03*
X35750Y-31500D03*
X36000Y-31500D03*
X36250Y-31500D03*
X36500Y-31500D03*
X36750Y-31500D03*
X37000Y-31500D03*
X37250Y-31500D03*
X37500Y-31500D03*
X37750Y-31500D03*
X38000Y-31500D03*
X38250Y-31500D03*
X38500Y-31500D03*
X38750Y-31500D03*
X39000Y-31500D03*
X39250Y-31500D03*
X39500Y-31500D03*
X39750Y-31500D03*
X40000Y-31500D03*
X40250Y-31500D03*
X40500Y-31500D03*
X40750Y-31500D03*
X41000Y-31500D03*
X41250Y-31500D03*
X41500Y-31500D03*
X41750Y-31500D03*
X42000Y-31500D03*
X42250Y-31500D03*
X42500Y-31500D03*
X42500Y-21500D03*
X42250Y-21500D03*
X42000Y-21500D03*
X41750Y-21500D03*
X41500Y-21500D03*
X41250Y-21500D03*
X41000Y-21500D03*
X40750Y-21500D03*
X40500Y-21500D03*
X40250Y-21500D03*
X40000Y-21500D03*
X39750Y-21500D03*
X39500Y-21500D03*
X39250Y-21500D03*
X39000Y-21500D03*
X38750Y-21500D03*
X38500Y-21500D03*
X38250Y-21500D03*
X38000Y-21500D03*
X37750Y-21500D03*
X37500Y-21500D03*
X37250Y-21500D03*
X37000Y-21500D03*
X36750Y-21500D03*
X36500Y-21500D03*
X36250Y-21500D03*
X36000Y-21500D03*
X35750Y-21500D03*
X35500Y-21500D03*
X35250Y-21500D03*
X35000Y-21500D03*
X34750Y-21500D03*
X34500Y-21500D03*
G54D39*
X33500Y-22500D03*
X33500Y-22750D03*
X33500Y-23000D03*
X33500Y-23250D03*
X33500Y-23500D03*
X33500Y-23750D03*
X33500Y-24000D03*
X33500Y-24250D03*
X33500Y-24500D03*
X33500Y-24750D03*
X33500Y-25000D03*
X33500Y-25250D03*
X33500Y-25500D03*
X33500Y-25750D03*
X33500Y-26000D03*
X33500Y-26250D03*
X43500Y-30500D03*
X43500Y-30250D03*
X43500Y-30000D03*
X43500Y-29750D03*
X43500Y-29500D03*
X43500Y-29250D03*
X43500Y-29000D03*
X43500Y-28750D03*
X43500Y-28500D03*
X43500Y-28250D03*
X43500Y-28000D03*
X43500Y-27750D03*
X43500Y-27500D03*
X43500Y-27250D03*
X43500Y-27000D03*
X43500Y-26750D03*
X43500Y-26500D03*
X43500Y-26250D03*
X43500Y-25750D03*
X43500Y-25500D03*
X43500Y-25250D03*
X43500Y-25000D03*
X43500Y-24750D03*
X43500Y-24500D03*
X43500Y-24250D03*
X43500Y-24000D03*
X43500Y-23750D03*
X43500Y-23500D03*
X43500Y-23250D03*
X43500Y-23000D03*
X43500Y-22750D03*
X43500Y-22500D03*
X43500Y-26000D03*
G54D41*
X42750Y-12000D03*
G54D42*
X43750Y-12000D03*
X44750Y-12000D03*
X45750Y-12000D03*
G54D41*
X48480Y-14020D03*
G54D42*
X48480Y-13020D03*
X48480Y-12020D03*
G54D41*
X49480Y-14020D03*
G54D42*
X49480Y-13020D03*
X49480Y-12020D03*
G54D41*
X50480Y-14020D03*
G54D42*
X50480Y-13020D03*
X50480Y-12020D03*
G54D41*
X53480Y-12020D03*
G54D42*
X53480Y-13020D03*
G54D41*
X61152Y-12012D03*
G54D42*
X60152Y-12012D03*
X59152Y-12012D03*
X58152Y-12012D03*
X57152Y-12012D03*
X56152Y-12012D03*
G54D43*
X20335Y-24713D03*
X20079Y-24713D03*
X19823Y-24713D03*
X19567Y-24713D03*
X19567Y-26413D03*
X19823Y-26413D03*
X20079Y-26413D03*
X20335Y-26413D03*
G54D44*
X37750Y-11837D03*
X37750Y-12663D03*
X41000Y-11837D03*
X41000Y-12663D03*
X39500Y-11837D03*
X39500Y-12663D03*
G54D45*
X86614Y-42820D03*
G54D46*
X86614Y-39370D03*
X87614Y-39370D03*
X85614Y-39370D03*
G54D30*
X55190Y-15510D03*
G54D29*
X54190Y-15510D03*
X53190Y-15510D03*
X52190Y-15510D03*
X52190Y-18510D03*
X53190Y-18510D03*
X54190Y-18510D03*
X55190Y-18510D03*
G54D47*
X88788Y-37007D03*
X87588Y-37007D03*
G54D38*
X70566Y-25464D03*
X70566Y-26064D03*
X81840Y-26062D03*
X81840Y-25462D03*
X67290Y-26076D03*
X67290Y-25476D03*
X84987Y-25481D03*
X84987Y-26081D03*
X17710Y-24590D03*
X17710Y-25190D03*
G54D37*
X21531Y-29543D03*
X20931Y-29543D03*
G54D47*
X21400Y-25250D03*
X22600Y-25250D03*
G54D41*
X51480Y-14020D03*
G54D42*
X51480Y-13020D03*
X51480Y-12020D03*
G54D41*
X52490Y-14020D03*
G54D42*
X52490Y-13020D03*
X52490Y-12020D03*
G54D48*
X21020Y-41510D03*
X21335Y-41510D03*
X21650Y-41510D03*
X21965Y-41510D03*
X22280Y-41510D03*
X22595Y-41510D03*
X20705Y-41510D03*
X20390Y-41510D03*
X20075Y-41510D03*
X19760Y-41510D03*
X19445Y-41510D03*
X21020Y-37010D03*
X21335Y-37010D03*
X21650Y-37010D03*
X21965Y-37010D03*
X22280Y-37010D03*
X22595Y-37010D03*
X20705Y-37010D03*
X20390Y-37010D03*
X20075Y-37010D03*
X19760Y-37010D03*
X19445Y-37010D03*
G54D49*
X23270Y-39260D03*
X18770Y-39260D03*
X23270Y-38945D03*
X18770Y-38945D03*
X18770Y-38630D03*
X23270Y-38630D03*
X23270Y-38315D03*
X18770Y-38315D03*
X18770Y-38000D03*
X23270Y-38000D03*
X23270Y-37685D03*
X18770Y-37685D03*
X18770Y-39575D03*
X23270Y-39575D03*
X23270Y-39890D03*
X18770Y-39890D03*
X18770Y-40205D03*
X23270Y-40205D03*
X23270Y-40520D03*
X18770Y-40520D03*
X18770Y-40835D03*
X23270Y-40835D03*
G54D37*
X21627Y-36318D03*
X21027Y-36318D03*
G54D38*
X17901Y-38231D03*
X17901Y-37631D03*
G54D37*
X19758Y-42404D03*
X19158Y-42404D03*
G54D50*
X51750Y-44400D03*
X51750Y-42900D03*
X51250Y-43650D03*
X51250Y-42150D03*
X52250Y-42150D03*
X52250Y-43650D03*
X52750Y-42900D03*
X52750Y-44400D03*
X54750Y-44400D03*
X54750Y-42900D03*
X54250Y-43650D03*
X54250Y-42150D03*
X53250Y-42150D03*
X53250Y-43650D03*
X53750Y-42900D03*
X53750Y-44400D03*
X57750Y-44400D03*
X57750Y-42900D03*
X57250Y-43650D03*
X57250Y-42150D03*
X58250Y-42150D03*
X58250Y-43650D03*
X58750Y-42900D03*
X58750Y-44400D03*
X56750Y-44400D03*
X56750Y-42900D03*
X56250Y-43650D03*
X56250Y-42150D03*
X55250Y-42150D03*
X55250Y-43650D03*
X55750Y-42900D03*
X55750Y-44400D03*
X63750Y-44400D03*
X63750Y-42900D03*
X63250Y-43650D03*
X63250Y-42150D03*
X64250Y-42150D03*
X64250Y-43650D03*
X64750Y-42900D03*
X64750Y-44400D03*
X66750Y-44400D03*
X66750Y-42900D03*
X66250Y-43650D03*
X66250Y-42150D03*
X65250Y-42150D03*
X65250Y-43650D03*
X65750Y-42900D03*
X65750Y-44400D03*
X61750Y-44400D03*
X61750Y-42900D03*
X61250Y-43650D03*
X61250Y-42150D03*
X62250Y-42150D03*
X62250Y-43650D03*
X62750Y-42900D03*
X62750Y-44400D03*
X60750Y-44400D03*
X60750Y-42900D03*
X60250Y-43650D03*
X60250Y-42150D03*
X59250Y-42150D03*
X59250Y-43650D03*
X59750Y-42900D03*
X59750Y-44400D03*
X68750Y-44400D03*
X68750Y-42900D03*
X68250Y-43650D03*
X68250Y-42150D03*
X69250Y-42150D03*
X69250Y-43650D03*
X69750Y-42900D03*
X69750Y-44400D03*
X71750Y-44400D03*
X71750Y-42900D03*
X71250Y-43650D03*
X71250Y-42150D03*
X70250Y-42150D03*
X70250Y-43650D03*
X70750Y-42900D03*
X70750Y-44400D03*
X74750Y-44400D03*
X74750Y-42900D03*
X74250Y-43650D03*
X74250Y-42150D03*
X75250Y-42150D03*
X75250Y-43650D03*
X75750Y-42900D03*
X75750Y-44400D03*
X73750Y-44400D03*
X73750Y-42900D03*
X73250Y-43650D03*
X73250Y-42150D03*
X72250Y-42150D03*
X72250Y-43650D03*
X72750Y-42900D03*
X72750Y-44400D03*
X67750Y-44400D03*
X67750Y-42900D03*
X67250Y-43650D03*
X67250Y-42150D03*
X41250Y-42150D03*
X41250Y-43650D03*
X41750Y-42900D03*
X41750Y-44400D03*
X46750Y-44400D03*
X46750Y-42900D03*
X46250Y-43650D03*
X46250Y-42150D03*
X47250Y-42150D03*
X47250Y-43650D03*
X47750Y-42900D03*
X47750Y-44400D03*
X49750Y-44400D03*
X49750Y-42900D03*
X49250Y-43650D03*
X49250Y-42150D03*
X48250Y-42150D03*
X48250Y-43650D03*
X48750Y-42900D03*
X48750Y-44400D03*
X44750Y-44400D03*
X44750Y-42900D03*
X44250Y-43650D03*
X44250Y-42150D03*
X45250Y-42150D03*
X45250Y-43650D03*
X45750Y-42900D03*
X45750Y-44400D03*
X43750Y-44400D03*
X43750Y-42900D03*
X43250Y-43650D03*
X43250Y-42150D03*
X42250Y-42150D03*
X42250Y-43650D03*
X42750Y-42900D03*
X42750Y-44400D03*
X33750Y-44400D03*
X33750Y-42900D03*
X33250Y-43650D03*
X33250Y-42150D03*
X34250Y-42150D03*
X34250Y-43650D03*
X34750Y-42900D03*
X34750Y-44400D03*
X36750Y-44400D03*
X36750Y-42900D03*
X36250Y-43650D03*
X36250Y-42150D03*
X35250Y-42150D03*
X35250Y-43650D03*
X35750Y-42900D03*
X35750Y-44400D03*
X39750Y-44400D03*
X39750Y-42900D03*
X39250Y-43650D03*
X39250Y-42150D03*
X40250Y-42150D03*
X40250Y-43650D03*
X40750Y-42900D03*
X40750Y-44400D03*
X38750Y-44400D03*
X38750Y-42900D03*
X38250Y-43650D03*
X38250Y-42150D03*
X37250Y-42150D03*
X37250Y-43650D03*
X37750Y-42900D03*
X37750Y-44400D03*
X29750Y-44400D03*
X29750Y-42900D03*
X29250Y-43650D03*
X29250Y-42150D03*
X30250Y-42150D03*
X30250Y-43650D03*
X30750Y-42900D03*
X30750Y-44400D03*
X32750Y-44400D03*
X32750Y-42900D03*
X32250Y-43650D03*
X32250Y-42150D03*
X31250Y-42150D03*
X31250Y-43650D03*
X31750Y-42900D03*
X31750Y-44400D03*
X27750Y-44400D03*
X27750Y-42900D03*
X27250Y-43650D03*
X27250Y-42150D03*
X28250Y-42150D03*
X28250Y-43650D03*
X28750Y-42900D03*
X28750Y-44400D03*
X26750Y-44400D03*
X26750Y-42900D03*
X26250Y-43650D03*
X26250Y-42150D03*
X25250Y-42150D03*
X25250Y-43650D03*
G54D51*
X25750Y-42900D03*
G54D50*
X25750Y-44400D03*
G54D52*
X77000Y-43250D03*
X24000Y-43250D03*
G54D37*
X52134Y-21183D03*
X51534Y-21183D03*
X58557Y-21132D03*
X57957Y-21132D03*
X51022Y-31927D03*
X50422Y-31927D03*
G54D38*
X49676Y-23115D03*
X49676Y-22515D03*
G54D53*
X81697Y-39928D03*
X81697Y-14294D03*
X16772Y-14175D03*
X16737Y-39928D03*
G54D54*
X63603Y-31946D03*
X63860Y-32445D03*
X64120Y-32945D03*
X64370Y-33445D03*
X64625Y-33945D03*
X64885Y-34450D03*
X65140Y-34950D03*
X65395Y-35455D03*
X65650Y-35955D03*
X65910Y-36455D03*
X68890Y-35460D03*
X68695Y-34945D03*
X68550Y-34450D03*
X68420Y-33945D03*
X68290Y-33445D03*
X68155Y-32945D03*
X67960Y-32435D03*
X67760Y-31945D03*
X70880Y-35950D03*
X71105Y-34945D03*
X72350Y-34945D03*
X72700Y-34445D03*
X73060Y-33945D03*
X73450Y-33440D03*
X73835Y-32950D03*
X74265Y-33440D03*
X74620Y-33950D03*
X75040Y-34440D03*
X61690Y-31320D03*
X61690Y-31885D03*
X61690Y-32430D03*
X61690Y-33110D03*
X61690Y-33770D03*
X61690Y-34355D03*
X61690Y-34960D03*
X61690Y-35510D03*
X59395Y-35505D03*
X82580Y-22295D03*
X82075Y-22295D03*
X79060Y-22295D03*
X78060Y-15725D03*
X88110Y-16440D03*
X88265Y-16930D03*
X87785Y-16840D03*
X88075Y-17435D03*
X87505Y-17255D03*
X87875Y-17965D03*
X87220Y-17685D03*
X87715Y-18555D03*
X87100Y-18310D03*
X87110Y-25555D03*
X87440Y-25160D03*
X87030Y-24820D03*
X85825Y-21845D03*
X86710Y-21330D03*
X86585Y-22010D03*
X87135Y-22050D03*
X87135Y-22735D03*
X77165Y-16500D03*
X77155Y-15070D03*
X77620Y-23980D03*
X77045Y-24435D03*
X86300Y-28840D03*
X85060Y-22295D03*
X84400Y-22295D03*
X85795Y-15595D03*
X62490Y-16520D03*
X62850Y-24090D03*
X44605Y-14485D03*
X44960Y-14980D03*
X45390Y-15330D03*
X45780Y-14980D03*
X50110Y-28815D03*
X49075Y-29315D03*
X33745Y-31515D03*
X33100Y-31790D03*
X54115Y-21605D03*
X54390Y-21015D03*
X45205Y-32580D03*
X45450Y-32055D03*
X45730Y-31575D03*
X21330Y-35565D03*
X21960Y-34845D03*
X22275Y-34105D03*
X22615Y-42155D03*
X20705Y-42155D03*
X32450Y-29850D03*
X32485Y-25755D03*
X87425Y-26095D03*
M02*
