G04 (created by PCBNEW (2013-07-07 BZR 4022)-stable) date 2015-08-26 18:09:03*
%MOIN*%
G04 Gerber Fmt 3.4, Leading zero omitted, Abs format*
%FSLAX34Y34*%
G01*
G70*
G90*
G04 APERTURE LIST*
%ADD10C,0.00590551*%
%ADD11C,0.0161417*%
%ADD12C,0.055*%
%ADD13R,0.055X0.055*%
%ADD14R,0.0098X0.075*%
%ADD15R,0.0165X0.0579*%
%ADD16R,0.0787X0.0078*%
%ADD17R,0.06X0.01*%
%ADD18R,0.01X0.06*%
%ADD19R,0.07X0.11*%
%ADD20R,0.025X0.045*%
%ADD21R,0.045X0.025*%
%ADD22R,0.1X0.015*%
%ADD23R,0.015X0.1*%
%ADD24R,0.06X0.06*%
%ADD25C,0.06*%
%ADD26R,0.015X0.05*%
%ADD27R,0.0472X0.0472*%
%ADD28R,0.42X0.35*%
%ADD29R,0.07X0.09*%
%ADD30R,0.0768X0.0984*%
%ADD31R,0.016X0.05*%
%ADD32R,0.05X0.016*%
%ADD33C,0.0472441*%
%ADD34R,0.0472441X0.0472441*%
%ADD35C,0.11811*%
%ADD36C,0.28189*%
%ADD37C,0.019685*%
G04 APERTURE END LIST*
G54D10*
G54D11*
X84178Y-24761D03*
X83882Y-24761D03*
X83587Y-24761D03*
X83292Y-24761D03*
X82997Y-24761D03*
X82701Y-24761D03*
X84178Y-25056D03*
X83882Y-25056D03*
X83587Y-25056D03*
X83292Y-25056D03*
X82997Y-25056D03*
X82701Y-25056D03*
X84178Y-25352D03*
X84178Y-25647D03*
X84178Y-25942D03*
X84178Y-26237D03*
X84178Y-26533D03*
X84178Y-26828D03*
X83882Y-25352D03*
X83587Y-25352D03*
X83292Y-25352D03*
X82997Y-25352D03*
X82701Y-25352D03*
X83882Y-25647D03*
X83587Y-25647D03*
X83292Y-25647D03*
X82997Y-25647D03*
X82701Y-25647D03*
X83882Y-25942D03*
X83587Y-25942D03*
X83292Y-25942D03*
X82997Y-25942D03*
X82701Y-25942D03*
X83882Y-26237D03*
X83587Y-26237D03*
X83292Y-26237D03*
X82997Y-26237D03*
X82701Y-26237D03*
X83882Y-26533D03*
X83587Y-26533D03*
X83292Y-26533D03*
X82997Y-26533D03*
X82701Y-26533D03*
X83882Y-26828D03*
X83587Y-26828D03*
X83292Y-26828D03*
X82997Y-26828D03*
X82701Y-26828D03*
X69685Y-24751D03*
X69389Y-24751D03*
X69094Y-24751D03*
X68799Y-24751D03*
X68504Y-24751D03*
X68208Y-24751D03*
X69685Y-25046D03*
X69389Y-25046D03*
X69094Y-25046D03*
X68799Y-25046D03*
X68504Y-25046D03*
X68208Y-25046D03*
X69685Y-25342D03*
X69685Y-25637D03*
X69685Y-25932D03*
X69685Y-26227D03*
X69685Y-26523D03*
X69685Y-26818D03*
X69389Y-25342D03*
X69094Y-25342D03*
X68799Y-25342D03*
X68504Y-25342D03*
X68208Y-25342D03*
X69389Y-25637D03*
X69094Y-25637D03*
X68799Y-25637D03*
X68504Y-25637D03*
X68208Y-25637D03*
X69389Y-25932D03*
X69094Y-25932D03*
X68799Y-25932D03*
X68504Y-25932D03*
X68208Y-25932D03*
X69389Y-26227D03*
X69094Y-26227D03*
X68799Y-26227D03*
X68504Y-26227D03*
X68208Y-26227D03*
X69389Y-26523D03*
X69094Y-26523D03*
X68799Y-26523D03*
X68504Y-26523D03*
X68208Y-26523D03*
X69389Y-26818D03*
X69094Y-26818D03*
X68799Y-26818D03*
X68504Y-26818D03*
X68208Y-26818D03*
G54D12*
X26702Y-20728D03*
X25702Y-20728D03*
X24702Y-20728D03*
X26702Y-21728D03*
X25702Y-21728D03*
X24702Y-21728D03*
X26702Y-22728D03*
X25702Y-22728D03*
X24702Y-22728D03*
X26702Y-23728D03*
X25702Y-23728D03*
X24702Y-23728D03*
X26702Y-24728D03*
X25702Y-24728D03*
X24702Y-24728D03*
X26702Y-25728D03*
X25702Y-25728D03*
X24702Y-25728D03*
X26702Y-26728D03*
X25702Y-26728D03*
X24702Y-26728D03*
X26702Y-27728D03*
X25702Y-27728D03*
X24702Y-27728D03*
X26702Y-28728D03*
X25702Y-28728D03*
X24702Y-28728D03*
X26702Y-29728D03*
X25702Y-29728D03*
X24702Y-29728D03*
X26702Y-30728D03*
X25702Y-30728D03*
X24702Y-30728D03*
X23702Y-30728D03*
X22702Y-30728D03*
X21702Y-30728D03*
X20702Y-30728D03*
X19702Y-30728D03*
X18702Y-30728D03*
X17702Y-30728D03*
X16702Y-30728D03*
X15702Y-30728D03*
X14702Y-30728D03*
X26702Y-31728D03*
X25702Y-31728D03*
X24702Y-31728D03*
X23702Y-31728D03*
X22702Y-31728D03*
X21702Y-31728D03*
X20702Y-31728D03*
X19702Y-31728D03*
X18702Y-31728D03*
X17702Y-31728D03*
X16702Y-31728D03*
X15702Y-31728D03*
X14702Y-31728D03*
G54D13*
X26702Y-32728D03*
G54D12*
X25702Y-32728D03*
X24702Y-32728D03*
X23702Y-32728D03*
X22702Y-32728D03*
X21702Y-32728D03*
X20702Y-32728D03*
X19702Y-32728D03*
X18702Y-32728D03*
X17702Y-32728D03*
X16702Y-32728D03*
X15702Y-32728D03*
X14702Y-32728D03*
X23702Y-20728D03*
X22702Y-20728D03*
X21702Y-20728D03*
X20702Y-20728D03*
X19702Y-20728D03*
X18702Y-20728D03*
X17702Y-20728D03*
X16702Y-20728D03*
X15702Y-20728D03*
X14702Y-20728D03*
X23702Y-21728D03*
X22702Y-21728D03*
X21702Y-21728D03*
X20702Y-21728D03*
X19702Y-21728D03*
X18702Y-21728D03*
X17702Y-21728D03*
X16702Y-21728D03*
X15702Y-21728D03*
X14702Y-21728D03*
X23702Y-22728D03*
X22702Y-22728D03*
X21702Y-22728D03*
X20702Y-22728D03*
X19702Y-22728D03*
X18702Y-22728D03*
X17702Y-22728D03*
X16702Y-22728D03*
X15702Y-22728D03*
X14702Y-22728D03*
X16702Y-23728D03*
X15702Y-23728D03*
X14702Y-23728D03*
X16702Y-24728D03*
X15702Y-24728D03*
X14702Y-24728D03*
X16702Y-25728D03*
X15702Y-25728D03*
X14702Y-25728D03*
X16702Y-26728D03*
X15702Y-26728D03*
X14702Y-26728D03*
X16702Y-27728D03*
X15702Y-27728D03*
X14702Y-27728D03*
X16702Y-28728D03*
X15702Y-28728D03*
X14702Y-28728D03*
X16702Y-29728D03*
X15702Y-29728D03*
X14702Y-29728D03*
X23702Y-29728D03*
X23702Y-23728D03*
X17702Y-23728D03*
X17702Y-29728D03*
X22702Y-29728D03*
X22702Y-23728D03*
X23702Y-27728D03*
X17702Y-27728D03*
G54D14*
X48122Y-17856D03*
X48322Y-17856D03*
X48522Y-17856D03*
X48722Y-17856D03*
X48722Y-16156D03*
X48522Y-16156D03*
X48322Y-16156D03*
X48122Y-16156D03*
G54D15*
X60528Y-37148D03*
X60272Y-37148D03*
X60016Y-37148D03*
X59760Y-37148D03*
X61292Y-39350D03*
X61296Y-37148D03*
X61040Y-37148D03*
X60784Y-37148D03*
X59504Y-39352D03*
X59760Y-39352D03*
X60016Y-39352D03*
X60272Y-39352D03*
X60528Y-39352D03*
X60784Y-39352D03*
X59504Y-37148D03*
X61040Y-39350D03*
X61552Y-37148D03*
X59248Y-37148D03*
X59248Y-39352D03*
X61552Y-39352D03*
X68631Y-37146D03*
X68375Y-37146D03*
X68119Y-37146D03*
X67863Y-37146D03*
X69395Y-39348D03*
X69399Y-37146D03*
X69143Y-37146D03*
X68887Y-37146D03*
X67607Y-39350D03*
X67863Y-39350D03*
X68119Y-39350D03*
X68375Y-39350D03*
X68631Y-39350D03*
X68887Y-39350D03*
X67607Y-37146D03*
X69143Y-39348D03*
X69655Y-37146D03*
X67351Y-37146D03*
X67351Y-39350D03*
X69655Y-39350D03*
X64628Y-37148D03*
X64372Y-37148D03*
X64116Y-37148D03*
X63860Y-37148D03*
X65392Y-39350D03*
X65396Y-37148D03*
X65140Y-37148D03*
X64884Y-37148D03*
X63604Y-39352D03*
X63860Y-39352D03*
X64116Y-39352D03*
X64372Y-39352D03*
X64628Y-39352D03*
X64884Y-39352D03*
X63604Y-37148D03*
X65140Y-39350D03*
X65652Y-37148D03*
X63348Y-37148D03*
X63348Y-39352D03*
X65652Y-39352D03*
X72628Y-37146D03*
X72372Y-37146D03*
X72116Y-37146D03*
X71860Y-37146D03*
X73392Y-39348D03*
X73396Y-37146D03*
X73140Y-37146D03*
X72884Y-37146D03*
X71604Y-39350D03*
X71860Y-39350D03*
X72116Y-39350D03*
X72372Y-39350D03*
X72628Y-39350D03*
X72884Y-39350D03*
X71604Y-37146D03*
X73140Y-39348D03*
X73652Y-37146D03*
X71348Y-37146D03*
X71348Y-39350D03*
X73652Y-39350D03*
X44372Y-18102D03*
X44628Y-18102D03*
X44884Y-18102D03*
X45140Y-18102D03*
X43608Y-15900D03*
X43604Y-18102D03*
X43860Y-18102D03*
X44116Y-18102D03*
X45396Y-15898D03*
X45140Y-15898D03*
X44884Y-15898D03*
X44628Y-15898D03*
X44372Y-15898D03*
X44116Y-15898D03*
X45396Y-18102D03*
X43860Y-15900D03*
X43348Y-18102D03*
X45652Y-18102D03*
X45652Y-15898D03*
X43348Y-15898D03*
G54D16*
X86381Y-20965D03*
X86381Y-20768D03*
X86381Y-20572D03*
X86381Y-20375D03*
X86381Y-20178D03*
X86381Y-19981D03*
X86381Y-19784D03*
X86381Y-19587D03*
X86381Y-19390D03*
X86381Y-19194D03*
X86381Y-18997D03*
X86381Y-18800D03*
X86381Y-18604D03*
X86381Y-18407D03*
X86381Y-18210D03*
X86381Y-18014D03*
X86381Y-17817D03*
X86381Y-17620D03*
X86381Y-17423D03*
X86381Y-17226D03*
X86381Y-17029D03*
X86381Y-16832D03*
X86381Y-16636D03*
X86381Y-16439D03*
X78507Y-16439D03*
X78507Y-16636D03*
X78507Y-16832D03*
X78507Y-17029D03*
X78507Y-17226D03*
X78507Y-17423D03*
X78507Y-17620D03*
X78507Y-17817D03*
X78507Y-18014D03*
X78507Y-18210D03*
X78507Y-18407D03*
X78507Y-18604D03*
X78507Y-18800D03*
X78507Y-18997D03*
X78507Y-19194D03*
X78507Y-19390D03*
X78507Y-19587D03*
X78507Y-19784D03*
X78507Y-19981D03*
X78507Y-20178D03*
X78507Y-20375D03*
X78507Y-20572D03*
X78507Y-20768D03*
X78507Y-20965D03*
X71627Y-20963D03*
X71627Y-20766D03*
X71627Y-20570D03*
X71627Y-20373D03*
X71627Y-20176D03*
X71627Y-19979D03*
X71627Y-19782D03*
X71627Y-19585D03*
X71627Y-19388D03*
X71627Y-19192D03*
X71627Y-18995D03*
X71627Y-18798D03*
X71627Y-18602D03*
X71627Y-18405D03*
X71627Y-18208D03*
X71627Y-18012D03*
X71627Y-17815D03*
X71627Y-17618D03*
X71627Y-17421D03*
X71627Y-17224D03*
X71627Y-17027D03*
X71627Y-16830D03*
X71627Y-16634D03*
X71627Y-16437D03*
X63753Y-16437D03*
X63753Y-16634D03*
X63753Y-16830D03*
X63753Y-17027D03*
X63753Y-17224D03*
X63753Y-17421D03*
X63753Y-17618D03*
X63753Y-17815D03*
X63753Y-18012D03*
X63753Y-18208D03*
X63753Y-18405D03*
X63753Y-18602D03*
X63753Y-18798D03*
X63753Y-18995D03*
X63753Y-19192D03*
X63753Y-19388D03*
X63753Y-19585D03*
X63753Y-19782D03*
X63753Y-19979D03*
X63753Y-20176D03*
X63753Y-20373D03*
X63753Y-20570D03*
X63753Y-20766D03*
X63753Y-20963D03*
X71609Y-28340D03*
X71609Y-28143D03*
X71609Y-27947D03*
X71609Y-27750D03*
X71609Y-27553D03*
X71609Y-27356D03*
X71609Y-27159D03*
X71609Y-26962D03*
X71609Y-26765D03*
X71609Y-26569D03*
X71609Y-26372D03*
X71609Y-26175D03*
X71609Y-25979D03*
X71609Y-25782D03*
X71609Y-25585D03*
X71609Y-25389D03*
X71609Y-25192D03*
X71609Y-24995D03*
X71609Y-24798D03*
X71609Y-24601D03*
X71609Y-24404D03*
X71609Y-24207D03*
X71609Y-24011D03*
X71609Y-23814D03*
X63735Y-23814D03*
X63735Y-24011D03*
X63735Y-24207D03*
X63735Y-24404D03*
X63735Y-24601D03*
X63735Y-24798D03*
X63735Y-24995D03*
X63735Y-25192D03*
X63735Y-25389D03*
X63735Y-25585D03*
X63735Y-25782D03*
X63735Y-25979D03*
X63735Y-26175D03*
X63735Y-26372D03*
X63735Y-26569D03*
X63735Y-26765D03*
X63735Y-26962D03*
X63735Y-27159D03*
X63735Y-27356D03*
X63735Y-27553D03*
X63735Y-27750D03*
X63735Y-27947D03*
X63735Y-28143D03*
X63735Y-28340D03*
X86381Y-28344D03*
X86381Y-28147D03*
X86381Y-27951D03*
X86381Y-27754D03*
X86381Y-27557D03*
X86381Y-27360D03*
X86381Y-27163D03*
X86381Y-26966D03*
X86381Y-26769D03*
X86381Y-26573D03*
X86381Y-26376D03*
X86381Y-26179D03*
X86381Y-25983D03*
X86381Y-25786D03*
X86381Y-25589D03*
X86381Y-25393D03*
X86381Y-25196D03*
X86381Y-24999D03*
X86381Y-24802D03*
X86381Y-24605D03*
X86381Y-24408D03*
X86381Y-24211D03*
X86381Y-24015D03*
X86381Y-23818D03*
X78507Y-23818D03*
X78507Y-24015D03*
X78507Y-24211D03*
X78507Y-24408D03*
X78507Y-24605D03*
X78507Y-24802D03*
X78507Y-24999D03*
X78507Y-25196D03*
X78507Y-25393D03*
X78507Y-25589D03*
X78507Y-25786D03*
X78507Y-25983D03*
X78507Y-26179D03*
X78507Y-26376D03*
X78507Y-26573D03*
X78507Y-26769D03*
X78507Y-26966D03*
X78507Y-27163D03*
X78507Y-27360D03*
X78507Y-27557D03*
X78507Y-27754D03*
X78507Y-27951D03*
X78507Y-28147D03*
X78507Y-28344D03*
G54D17*
X50800Y-23180D03*
X50800Y-23380D03*
X50800Y-23575D03*
X50800Y-23770D03*
X50800Y-23970D03*
X50800Y-24165D03*
X50800Y-24360D03*
X50800Y-24560D03*
X50800Y-24755D03*
X50800Y-24950D03*
X50800Y-25150D03*
X50800Y-25345D03*
X50800Y-25540D03*
X50800Y-25740D03*
X50800Y-25935D03*
X50800Y-26130D03*
X50800Y-26330D03*
X50800Y-26525D03*
X50800Y-26725D03*
X50800Y-26920D03*
X50800Y-27120D03*
X50800Y-27315D03*
X50800Y-27510D03*
X50800Y-27710D03*
X50800Y-27905D03*
X50800Y-28100D03*
X50800Y-28300D03*
X50800Y-28495D03*
X50800Y-28690D03*
X50800Y-28890D03*
X50800Y-29085D03*
X50800Y-29280D03*
X50800Y-29480D03*
X50800Y-29675D03*
X50800Y-29870D03*
X50800Y-30070D03*
G54D18*
X57390Y-30950D03*
X57585Y-30950D03*
X57780Y-30950D03*
X57980Y-30950D03*
X58175Y-30950D03*
X58370Y-30950D03*
X58570Y-30950D03*
X57585Y-22300D03*
X57390Y-22300D03*
X57190Y-22300D03*
X56995Y-22300D03*
X56800Y-22300D03*
X56600Y-22300D03*
X56405Y-22300D03*
X56210Y-22300D03*
X56010Y-22300D03*
X55815Y-22300D03*
X55620Y-22300D03*
X55420Y-22300D03*
X55225Y-22300D03*
X55025Y-22300D03*
X54830Y-22300D03*
X54630Y-22300D03*
X54435Y-22300D03*
X54240Y-22300D03*
X54040Y-22300D03*
X53845Y-22300D03*
X53650Y-22300D03*
X53450Y-22300D03*
X53255Y-22300D03*
X53060Y-22300D03*
X52860Y-22300D03*
X52665Y-22300D03*
X52470Y-22300D03*
X52270Y-22300D03*
X52075Y-22300D03*
X51880Y-22300D03*
X51680Y-22300D03*
X51680Y-30950D03*
X51880Y-30950D03*
X52075Y-30950D03*
X52270Y-30950D03*
X52470Y-30950D03*
X52665Y-30950D03*
X52860Y-30950D03*
X53060Y-30950D03*
X53255Y-30950D03*
X53450Y-30950D03*
X53650Y-30950D03*
X53845Y-30950D03*
X54040Y-30950D03*
X54240Y-30950D03*
X54435Y-30950D03*
X54630Y-30950D03*
X54830Y-30950D03*
X55025Y-30950D03*
X55225Y-30950D03*
X55420Y-30950D03*
X55620Y-30950D03*
X55815Y-30950D03*
X56010Y-30950D03*
X56210Y-30950D03*
X56405Y-30950D03*
X56600Y-30950D03*
X56800Y-30950D03*
X56995Y-30950D03*
X57190Y-30950D03*
G54D17*
X59450Y-29085D03*
X59450Y-28890D03*
X59450Y-28690D03*
X59450Y-28495D03*
X59450Y-28300D03*
X59450Y-28100D03*
X59450Y-27905D03*
X59450Y-27710D03*
X59450Y-27510D03*
X59450Y-27315D03*
X59450Y-27120D03*
X59450Y-26920D03*
X59450Y-26725D03*
X59450Y-26525D03*
X59450Y-26330D03*
X59450Y-26130D03*
X59450Y-25935D03*
X59450Y-25740D03*
X59450Y-25540D03*
X59450Y-25345D03*
X59450Y-25150D03*
X59450Y-24950D03*
X59450Y-24755D03*
X59450Y-24560D03*
X59450Y-24360D03*
X59450Y-24165D03*
X59450Y-23970D03*
X59450Y-23770D03*
X59450Y-23575D03*
X59450Y-23380D03*
X59450Y-23180D03*
X59450Y-30070D03*
X59450Y-29870D03*
X59450Y-29675D03*
X59450Y-29480D03*
X59450Y-29280D03*
G54D18*
X58570Y-22300D03*
X58370Y-22300D03*
X58175Y-22300D03*
X57980Y-22300D03*
X57780Y-22300D03*
G54D19*
X86133Y-37007D03*
X84733Y-37007D03*
G54D20*
X54946Y-14686D03*
X54346Y-14686D03*
G54D21*
X42500Y-16550D03*
X42500Y-15950D03*
X50050Y-16750D03*
X50050Y-17350D03*
G54D20*
X19651Y-27313D03*
X20251Y-27313D03*
G54D21*
X49400Y-16750D03*
X49400Y-17350D03*
X77553Y-18810D03*
X77553Y-19410D03*
X62865Y-18812D03*
X62865Y-19412D03*
X60520Y-27900D03*
X60520Y-27300D03*
G54D20*
X55075Y-21125D03*
X55675Y-21125D03*
G54D21*
X34500Y-20090D03*
X34500Y-19490D03*
X62330Y-39450D03*
X62330Y-38850D03*
X70400Y-39430D03*
X70400Y-38830D03*
X74350Y-39420D03*
X74350Y-38820D03*
X66380Y-39430D03*
X66380Y-38830D03*
G54D20*
X55170Y-32030D03*
X55770Y-32030D03*
X49644Y-24552D03*
X49044Y-24552D03*
X27930Y-41170D03*
X28530Y-41170D03*
X60040Y-18340D03*
X60640Y-18340D03*
X44050Y-14774D03*
X43450Y-14774D03*
G54D21*
X41000Y-14300D03*
X41000Y-13700D03*
X39500Y-14300D03*
X39500Y-13700D03*
X37750Y-14300D03*
X37750Y-13700D03*
G54D20*
X43450Y-13500D03*
X44050Y-13500D03*
X43450Y-14140D03*
X44050Y-14140D03*
G54D22*
X33500Y-26500D03*
X33500Y-26750D03*
X33500Y-27000D03*
X33500Y-27250D03*
X33500Y-27500D03*
X33500Y-27750D03*
X33500Y-28000D03*
X33500Y-28250D03*
X33500Y-28500D03*
X33500Y-28750D03*
X33500Y-29000D03*
X33500Y-29250D03*
X33500Y-29500D03*
X33500Y-29750D03*
X33500Y-30000D03*
X33500Y-30250D03*
X33500Y-30500D03*
G54D23*
X34500Y-31500D03*
X34750Y-31500D03*
X35000Y-31500D03*
X35250Y-31500D03*
X35500Y-31500D03*
X35750Y-31500D03*
X36000Y-31500D03*
X36250Y-31500D03*
X36500Y-31500D03*
X36750Y-31500D03*
X37000Y-31500D03*
X37250Y-31500D03*
X37500Y-31500D03*
X37750Y-31500D03*
X38000Y-31500D03*
X38250Y-31500D03*
X38500Y-31500D03*
X38750Y-31500D03*
X39000Y-31500D03*
X39250Y-31500D03*
X39500Y-31500D03*
X39750Y-31500D03*
X40000Y-31500D03*
X40250Y-31500D03*
X40500Y-31500D03*
X40750Y-31500D03*
X41000Y-31500D03*
X41250Y-31500D03*
X41500Y-31500D03*
X41750Y-31500D03*
X42000Y-31500D03*
X42250Y-31500D03*
X42500Y-31500D03*
X42500Y-21500D03*
X42250Y-21500D03*
X42000Y-21500D03*
X41750Y-21500D03*
X41500Y-21500D03*
X41250Y-21500D03*
X41000Y-21500D03*
X40750Y-21500D03*
X40500Y-21500D03*
X40250Y-21500D03*
X40000Y-21500D03*
X39750Y-21500D03*
X39500Y-21500D03*
X39250Y-21500D03*
X39000Y-21500D03*
X38750Y-21500D03*
X38500Y-21500D03*
X38250Y-21500D03*
X38000Y-21500D03*
X37750Y-21500D03*
X37500Y-21500D03*
X37250Y-21500D03*
X37000Y-21500D03*
X36750Y-21500D03*
X36500Y-21500D03*
X36250Y-21500D03*
X36000Y-21500D03*
X35750Y-21500D03*
X35500Y-21500D03*
X35250Y-21500D03*
X35000Y-21500D03*
X34750Y-21500D03*
X34500Y-21500D03*
G54D22*
X33500Y-22500D03*
X33500Y-22750D03*
X33500Y-23000D03*
X33500Y-23250D03*
X33500Y-23500D03*
X33500Y-23750D03*
X33500Y-24000D03*
X33500Y-24250D03*
X33500Y-24500D03*
X33500Y-24750D03*
X33500Y-25000D03*
X33500Y-25250D03*
X33500Y-25500D03*
X33500Y-25750D03*
X33500Y-26000D03*
X33500Y-26250D03*
X43500Y-30500D03*
X43500Y-30250D03*
X43500Y-30000D03*
X43500Y-29750D03*
X43500Y-29500D03*
X43500Y-29250D03*
X43500Y-29000D03*
X43500Y-28750D03*
X43500Y-28500D03*
X43500Y-28250D03*
X43500Y-28000D03*
X43500Y-27750D03*
X43500Y-27500D03*
X43500Y-27250D03*
X43500Y-27000D03*
X43500Y-26750D03*
X43500Y-26500D03*
X43500Y-26250D03*
X43500Y-25750D03*
X43500Y-25500D03*
X43500Y-25250D03*
X43500Y-25000D03*
X43500Y-24750D03*
X43500Y-24500D03*
X43500Y-24250D03*
X43500Y-24000D03*
X43500Y-23750D03*
X43500Y-23500D03*
X43500Y-23250D03*
X43500Y-23000D03*
X43500Y-22750D03*
X43500Y-22500D03*
X43500Y-26000D03*
G54D24*
X42750Y-12000D03*
G54D25*
X43750Y-12000D03*
X44750Y-12000D03*
X45750Y-12000D03*
G54D24*
X48480Y-14020D03*
G54D25*
X48480Y-13020D03*
X48480Y-12020D03*
G54D24*
X49480Y-14020D03*
G54D25*
X49480Y-13020D03*
X49480Y-12020D03*
G54D24*
X50480Y-14020D03*
G54D25*
X50480Y-13020D03*
X50480Y-12020D03*
G54D24*
X53480Y-12020D03*
G54D25*
X53480Y-13020D03*
G54D24*
X61152Y-12012D03*
G54D25*
X60152Y-12012D03*
X59152Y-12012D03*
X58152Y-12012D03*
X57152Y-12012D03*
X56152Y-12012D03*
G54D26*
X20335Y-24713D03*
X20079Y-24713D03*
X19823Y-24713D03*
X19567Y-24713D03*
X19567Y-26413D03*
X19823Y-26413D03*
X20079Y-26413D03*
X20335Y-26413D03*
G54D27*
X37750Y-11837D03*
X37750Y-12663D03*
X41000Y-11837D03*
X41000Y-12663D03*
X39500Y-11837D03*
X39500Y-12663D03*
G54D28*
X86614Y-42820D03*
G54D29*
X86614Y-39370D03*
X87614Y-39370D03*
X85614Y-39370D03*
G54D13*
X55190Y-15510D03*
G54D12*
X54190Y-15510D03*
X53190Y-15510D03*
X52190Y-15510D03*
X52190Y-18510D03*
X53190Y-18510D03*
X54190Y-18510D03*
X55190Y-18510D03*
G54D30*
X88788Y-37007D03*
X87588Y-37007D03*
G54D21*
X70566Y-25464D03*
X70566Y-26064D03*
X81840Y-26062D03*
X81840Y-25462D03*
X67290Y-26076D03*
X67290Y-25476D03*
X84987Y-25481D03*
X84987Y-26081D03*
X17710Y-24590D03*
X17710Y-25190D03*
G54D20*
X21531Y-29543D03*
X20931Y-29543D03*
G54D30*
X21400Y-25250D03*
X22600Y-25250D03*
G54D24*
X51480Y-14020D03*
G54D25*
X51480Y-13020D03*
X51480Y-12020D03*
G54D24*
X52490Y-14020D03*
G54D25*
X52490Y-13020D03*
X52490Y-12020D03*
G54D31*
X21020Y-41510D03*
X21335Y-41510D03*
X21650Y-41510D03*
X21965Y-41510D03*
X22280Y-41510D03*
X22595Y-41510D03*
X20705Y-41510D03*
X20390Y-41510D03*
X20075Y-41510D03*
X19760Y-41510D03*
X19445Y-41510D03*
X21020Y-37010D03*
X21335Y-37010D03*
X21650Y-37010D03*
X21965Y-37010D03*
X22280Y-37010D03*
X22595Y-37010D03*
X20705Y-37010D03*
X20390Y-37010D03*
X20075Y-37010D03*
X19760Y-37010D03*
X19445Y-37010D03*
G54D32*
X23270Y-39260D03*
X18770Y-39260D03*
X23270Y-38945D03*
X18770Y-38945D03*
X18770Y-38630D03*
X23270Y-38630D03*
X23270Y-38315D03*
X18770Y-38315D03*
X18770Y-38000D03*
X23270Y-38000D03*
X23270Y-37685D03*
X18770Y-37685D03*
X18770Y-39575D03*
X23270Y-39575D03*
X23270Y-39890D03*
X18770Y-39890D03*
X18770Y-40205D03*
X23270Y-40205D03*
X23270Y-40520D03*
X18770Y-40520D03*
X18770Y-40835D03*
X23270Y-40835D03*
G54D20*
X21627Y-36318D03*
X21027Y-36318D03*
G54D21*
X17901Y-38231D03*
X17901Y-37631D03*
G54D20*
X19758Y-42404D03*
X19158Y-42404D03*
G54D33*
X51750Y-44400D03*
X51750Y-42900D03*
X51250Y-43650D03*
X51250Y-42150D03*
X52250Y-42150D03*
X52250Y-43650D03*
X52750Y-42900D03*
X52750Y-44400D03*
X54750Y-44400D03*
X54750Y-42900D03*
X54250Y-43650D03*
X54250Y-42150D03*
X53250Y-42150D03*
X53250Y-43650D03*
X53750Y-42900D03*
X53750Y-44400D03*
X57750Y-44400D03*
X57750Y-42900D03*
X57250Y-43650D03*
X57250Y-42150D03*
X58250Y-42150D03*
X58250Y-43650D03*
X58750Y-42900D03*
X58750Y-44400D03*
X56750Y-44400D03*
X56750Y-42900D03*
X56250Y-43650D03*
X56250Y-42150D03*
X55250Y-42150D03*
X55250Y-43650D03*
X55750Y-42900D03*
X55750Y-44400D03*
X63750Y-44400D03*
X63750Y-42900D03*
X63250Y-43650D03*
X63250Y-42150D03*
X64250Y-42150D03*
X64250Y-43650D03*
X64750Y-42900D03*
X64750Y-44400D03*
X66750Y-44400D03*
X66750Y-42900D03*
X66250Y-43650D03*
X66250Y-42150D03*
X65250Y-42150D03*
X65250Y-43650D03*
X65750Y-42900D03*
X65750Y-44400D03*
X61750Y-44400D03*
X61750Y-42900D03*
X61250Y-43650D03*
X61250Y-42150D03*
X62250Y-42150D03*
X62250Y-43650D03*
X62750Y-42900D03*
X62750Y-44400D03*
X60750Y-44400D03*
X60750Y-42900D03*
X60250Y-43650D03*
X60250Y-42150D03*
X59250Y-42150D03*
X59250Y-43650D03*
X59750Y-42900D03*
X59750Y-44400D03*
X68750Y-44400D03*
X68750Y-42900D03*
X68250Y-43650D03*
X68250Y-42150D03*
X69250Y-42150D03*
X69250Y-43650D03*
X69750Y-42900D03*
X69750Y-44400D03*
X71750Y-44400D03*
X71750Y-42900D03*
X71250Y-43650D03*
X71250Y-42150D03*
X70250Y-42150D03*
X70250Y-43650D03*
X70750Y-42900D03*
X70750Y-44400D03*
X74750Y-44400D03*
X74750Y-42900D03*
X74250Y-43650D03*
X74250Y-42150D03*
X75250Y-42150D03*
X75250Y-43650D03*
X75750Y-42900D03*
X75750Y-44400D03*
X73750Y-44400D03*
X73750Y-42900D03*
X73250Y-43650D03*
X73250Y-42150D03*
X72250Y-42150D03*
X72250Y-43650D03*
X72750Y-42900D03*
X72750Y-44400D03*
X67750Y-44400D03*
X67750Y-42900D03*
X67250Y-43650D03*
X67250Y-42150D03*
X41250Y-42150D03*
X41250Y-43650D03*
X41750Y-42900D03*
X41750Y-44400D03*
X46750Y-44400D03*
X46750Y-42900D03*
X46250Y-43650D03*
X46250Y-42150D03*
X47250Y-42150D03*
X47250Y-43650D03*
X47750Y-42900D03*
X47750Y-44400D03*
X49750Y-44400D03*
X49750Y-42900D03*
X49250Y-43650D03*
X49250Y-42150D03*
X48250Y-42150D03*
X48250Y-43650D03*
X48750Y-42900D03*
X48750Y-44400D03*
X44750Y-44400D03*
X44750Y-42900D03*
X44250Y-43650D03*
X44250Y-42150D03*
X45250Y-42150D03*
X45250Y-43650D03*
X45750Y-42900D03*
X45750Y-44400D03*
X43750Y-44400D03*
X43750Y-42900D03*
X43250Y-43650D03*
X43250Y-42150D03*
X42250Y-42150D03*
X42250Y-43650D03*
X42750Y-42900D03*
X42750Y-44400D03*
X33750Y-44400D03*
X33750Y-42900D03*
X33250Y-43650D03*
X33250Y-42150D03*
X34250Y-42150D03*
X34250Y-43650D03*
X34750Y-42900D03*
X34750Y-44400D03*
X36750Y-44400D03*
X36750Y-42900D03*
X36250Y-43650D03*
X36250Y-42150D03*
X35250Y-42150D03*
X35250Y-43650D03*
X35750Y-42900D03*
X35750Y-44400D03*
X39750Y-44400D03*
X39750Y-42900D03*
X39250Y-43650D03*
X39250Y-42150D03*
X40250Y-42150D03*
X40250Y-43650D03*
X40750Y-42900D03*
X40750Y-44400D03*
X38750Y-44400D03*
X38750Y-42900D03*
X38250Y-43650D03*
X38250Y-42150D03*
X37250Y-42150D03*
X37250Y-43650D03*
X37750Y-42900D03*
X37750Y-44400D03*
X29750Y-44400D03*
X29750Y-42900D03*
X29250Y-43650D03*
X29250Y-42150D03*
X30250Y-42150D03*
X30250Y-43650D03*
X30750Y-42900D03*
X30750Y-44400D03*
X32750Y-44400D03*
X32750Y-42900D03*
X32250Y-43650D03*
X32250Y-42150D03*
X31250Y-42150D03*
X31250Y-43650D03*
X31750Y-42900D03*
X31750Y-44400D03*
X27750Y-44400D03*
X27750Y-42900D03*
X27250Y-43650D03*
X27250Y-42150D03*
X28250Y-42150D03*
X28250Y-43650D03*
X28750Y-42900D03*
X28750Y-44400D03*
X26750Y-44400D03*
X26750Y-42900D03*
X26250Y-43650D03*
X26250Y-42150D03*
X25250Y-42150D03*
X25250Y-43650D03*
G54D34*
X25750Y-42900D03*
G54D33*
X25750Y-44400D03*
G54D35*
X77000Y-43250D03*
X24000Y-43250D03*
G54D20*
X52134Y-21183D03*
X51534Y-21183D03*
X58557Y-21132D03*
X57957Y-21132D03*
X51022Y-31927D03*
X50422Y-31927D03*
G54D21*
X49676Y-23115D03*
X49676Y-22515D03*
G54D36*
X81697Y-39928D03*
X81697Y-14294D03*
X16772Y-14175D03*
X16737Y-39928D03*
G54D37*
X63603Y-31946D03*
X63860Y-32445D03*
X64120Y-32945D03*
X64370Y-33445D03*
X64625Y-33945D03*
X64885Y-34450D03*
X65140Y-34950D03*
X65395Y-35455D03*
X65650Y-35955D03*
X65910Y-36455D03*
X68890Y-35460D03*
X68695Y-34945D03*
X68550Y-34450D03*
X68420Y-33945D03*
X68290Y-33445D03*
X68155Y-32945D03*
X67960Y-32435D03*
X67760Y-31945D03*
X70880Y-35950D03*
X71105Y-34945D03*
X72350Y-34945D03*
X72700Y-34445D03*
X73060Y-33945D03*
X73450Y-33440D03*
X73835Y-32950D03*
X74265Y-33440D03*
X74620Y-33950D03*
X75040Y-34440D03*
X61690Y-31320D03*
X61690Y-31885D03*
X61690Y-32430D03*
X61690Y-33110D03*
X61690Y-33770D03*
X61690Y-34355D03*
X61690Y-34960D03*
X61690Y-35510D03*
X59395Y-35505D03*
X82580Y-22295D03*
X82075Y-22295D03*
X79060Y-22295D03*
X78060Y-15725D03*
X88110Y-16440D03*
X88265Y-16930D03*
X87785Y-16840D03*
X88075Y-17435D03*
X87505Y-17255D03*
X87875Y-17965D03*
X87220Y-17685D03*
X87715Y-18555D03*
X87100Y-18310D03*
X87110Y-25555D03*
X87440Y-25160D03*
X87030Y-24820D03*
X85825Y-21845D03*
X86710Y-21330D03*
X86585Y-22010D03*
X87135Y-22050D03*
X87135Y-22735D03*
X77165Y-16500D03*
X77155Y-15070D03*
X77620Y-23980D03*
X77045Y-24435D03*
X86300Y-28840D03*
X85060Y-22295D03*
X84400Y-22295D03*
X85795Y-15595D03*
X62490Y-16520D03*
X62850Y-24090D03*
X44605Y-14485D03*
X44960Y-14980D03*
X45390Y-15330D03*
X45780Y-14980D03*
X50110Y-28815D03*
X49075Y-29315D03*
X33745Y-31515D03*
X33100Y-31790D03*
X54115Y-21605D03*
X54390Y-21015D03*
X45205Y-32580D03*
X45450Y-32055D03*
X45730Y-31575D03*
X21330Y-35565D03*
X21960Y-34845D03*
X22275Y-34105D03*
X22615Y-42155D03*
X20705Y-42155D03*
X32450Y-29850D03*
X32485Y-25755D03*
X87425Y-26095D03*
M02*
