M48
;DRILL file {Pcbnew (2013-07-07 BZR 4022)-stable} date 2015-08-26 18:09:46
;FORMAT={-:-/ absolute / metric / decimal}
FMAT,2
METRIC,TZ
T1C0.250
T2C0.500
T3C0.787
T4C0.800
T5C0.813
T6C1.016
T7C2.300
T8C4.096
%
G90
G05
M71
T1
X49.149Y-103.723
X49.687Y-61.471
X52.324Y-97.155
X53.386Y-106.695
X54.994Y-106.695
X55.794Y-106.703
X56.601Y-104.364
X57.287Y-40.95
X57.386Y-40.226
X57.963Y-40.894
X60.67Y-95.722
X60.681Y-96.515
X60.693Y-97.315
X60.772Y-103.718
X60.775Y-99.715
X60.775Y-100.505
X60.777Y-102.116
X60.777Y-102.911
X62.705Y-99.705
X63.04Y-103.876
X64.922Y-100.515
X65.278Y-84.841
X68.021Y-91.846
X69.182Y-84.384
X69.418Y-51.486
X70.028Y-51.765
X70.51Y-52.222
X70.968Y-50.825
X71.255Y-65.354
X71.285Y-70.241
X71.399Y-51.587
X71.547Y-74.836
X71.603Y-50.597
X71.666Y-92.075
X72.238Y-50.851
X72.825Y-101.6
X73.406Y-48.463
X73.736Y-49.327
X73.807Y-45.258
X74.346Y-49.555
X74.524Y-47.371
X74.646Y-45.949
X74.955Y-49.784
X74.955Y-97.815
X75.044Y-98.59
X75.159Y-99.365
X75.209Y-106.045
X75.357Y-46.782
X75.514Y-97.053
X75.565Y-48.26
X75.565Y-50.013
X75.667Y-97.892
X76.073Y-96.317
X76.175Y-50.241
X76.225Y-97.13
X76.606Y-95.479
X76.619Y-48.057
X76.784Y-50.47
X76.784Y-96.393
X77.076Y-94.374
X77.102Y-95.034
X77.419Y-50.648
X77.508Y-47.854
X77.686Y-93.764
X77.775Y-94.463
X77.841Y-103.393
X78.323Y-103.891
X78.486Y-93.345
X78.562Y-94.031
X78.778Y-49.212
X79.172Y-93.408
X79.233Y-45.364
X79.913Y-45.552
X80.203Y-47.32
X80.528Y-45.766
X80.569Y-101.651
X81.102Y-102.032
X81.356Y-46.164
X81.471Y-48.184
X81.737Y-69.037
X81.763Y-102.184
X81.788Y-65.888
X81.991Y-46.355
X82.357Y-105.595
X82.423Y-47.561
X82.423Y-102.337
X82.791Y-97.031
X82.829Y-97.688
X83.058Y-102.489
X83.198Y-56.286
X83.21Y-58.191
X83.223Y-61.471
X83.223Y-66.662
X83.248Y-71.12
X83.248Y-74.295
X83.248Y-75.476
X83.248Y-76.721
X83.271Y-96.294
X83.459Y-97.084
X83.718Y-102.641
X84.12Y-95.91
X84.16Y-96.566
X84.259Y-56.256
X84.379Y-102.794
X84.704Y-38.885
X84.77Y-95.91
X85.039Y-102.946
X85.085Y-80.742
X85.153Y-55.814
X85.242Y-93.218
X85.382Y-55.197
X85.413Y-38.039
X85.42Y-95.905
X86.274Y-37.81
X86.375Y-105.608
X86.906Y-73.038
X86.944Y-68.58
X86.995Y-75.575
X87.015Y-66.045
X87.066Y-58.415
X87.066Y-61.57
X87.066Y-62.865
X87.066Y-76.835
X87.071Y-57.15
X87.076Y-64.765
X87.315Y-74.935
X87.325Y-70.485
X87.417Y-57.79
X87.417Y-59.055
X87.49Y-76.187
X87.498Y-65.39
X87.503Y-66.67
X87.503Y-72.377
X87.508Y-63.5
X87.518Y-62.235
X88.351Y-90.622
X88.544Y-78.135
X88.864Y-83.124
X88.875Y-52.654
X89.329Y-84.651
X89.535Y-51.791
X89.71Y-77.732
X89.769Y-89.403
X90.134Y-85.369
X90.17Y-51.994
X90.805Y-52.197
X90.838Y-84.826
X91.166Y-91.12
X91.47Y-85.039
X91.813Y-92.072
X92.075Y-51.359
X92.08Y-78.011
X92.243Y-85.476
X92.71Y-51.587
X92.789Y-88.765
X92.883Y-85.639
X93.233Y-90.648
X93.513Y-85.847
X93.523Y-51.181
X94.145Y-86.037
X94.158Y-50.978
X94.8Y-86.058
X95.118Y-37.907
X95.25Y-50.775
X95.43Y-56.706
X95.476Y-86.058
X95.91Y-50.749
X96.081Y-56.556
X96.149Y-86.076
X96.584Y-59.741
X96.596Y-50.749
X96.812Y-86.258
X96.926Y-56.624
X97.257Y-50.749
X97.257Y-59.487
X97.521Y-89.591
X97.587Y-65.532
X97.612Y-86.675
X97.899Y-59.837
X97.917Y-50.775
X97.978Y-91.912
X98.237Y-86.86
X98.489Y-90.434
X98.958Y-50.775
X99.065Y-87.269
X99.593Y-49.804
X99.619Y-50.775
X99.644Y-92.324
X99.685Y-90.457
X100.03Y-88.135
X100.279Y-104.902
X100.95Y-86.449
X101.034Y-89.2
X101.036Y-49.703
X101.468Y-50.775
X101.966Y-49.083
X102.047Y-88.331
X102.344Y-87.064
X102.405Y-50.178
X102.9Y-88.976
X103.177Y-90.891
X103.497Y-87.691
X103.703Y-49.296
X103.753Y-78.099
X104.155Y-50.78
X104.264Y-89.581
X104.43Y-48.473
X104.584Y-50.002
X104.8Y-105.054
X104.849Y-87.074
X105.354Y-47.831
X105.415Y-88.781
X105.842Y-87.485
X105.852Y-49.586
X105.857Y-48.288
X105.865Y-102.733
X106.126Y-39.248
X106.662Y-75.458
X106.665Y-90.678
X106.749Y-49.385
X106.825Y-48.486
X106.843Y-39.025
X107.099Y-71.026
X107.122Y-50.231
X107.376Y-69.22
X107.909Y-70.007
X108.013Y-49.812
X108.102Y-74.925
X108.186Y-87.909
X108.369Y-50.772
X108.539Y-70.912
X108.56Y-78.334
X108.595Y-67.711
X108.598Y-66.683
X108.61Y-65.405
X108.61Y-69.977
X108.621Y-68.595
X108.654Y-89.954
X108.882Y-102.974
X109.017Y-32.817
X109.568Y-88.072
X109.596Y-90.515
X109.964Y-50.97
X110.391Y-90.081
X110.393Y-88.819
X110.642Y-51.128
X110.802Y-38.565
X111.237Y-102.961
X111.298Y-90.701
X111.404Y-51.587
X111.465Y-38.603
X111.917Y-51.161
X112.136Y-86.568
X112.484Y-89.464
X112.522Y-73.162
X112.7Y-52.222
X112.738Y-71.717
X112.776Y-36.007
X112.776Y-105.156
X112.817Y-34.3
X113.309Y-73.152
X113.335Y-52.019
X113.563Y-84.633
X113.568Y-72.39
X113.911Y-90.721
X113.944Y-51.791
X114.64Y-90.719
X114.656Y-52.654
X114.767Y-65.405
X114.77Y-83.299
X114.973Y-67.704
X115.011Y-67.005
X115.1Y-84.239
X115.24Y-85.331
X115.275Y-63.652
X115.468Y-83.388
X115.499Y-64.872
X116.18Y-83.477
X116.246Y-71.714
X116.482Y-87.671
X117.17Y-104.63
X117.282Y-85.766
X117.323Y-87.259
X117.607Y-46.294
X117.937Y-85.568
X118.196Y-87.051
X118.252Y-46.452
X118.466Y-64.872
X118.562Y-85.329
X118.948Y-63.657
X119.024Y-74.879
X119.197Y-85.126
X119.395Y-86.629
X119.428Y-47.031
X119.825Y-84.933
X119.946Y-46.314
X120.122Y-47.102
X120.254Y-86.426
X120.747Y-74.958
X121.183Y-74.239
X121.356Y-104.447
X121.463Y-75.123
X121.488Y-73.279
X121.691Y-37.338
X121.691Y-38.1
X121.92Y-72.517
X121.981Y-104.196
X122.156Y-103.327
X122.428Y-76.53
X122.606Y-90.564
X122.779Y-74.198
X123.307Y-89.852
X123.408Y-74.442
X123.85Y-74.935
X124.099Y-90.515
X124.201Y-89.24
X124.211Y-70.942
X125.146Y-73.665
X125.146Y-91.008
X125.158Y-83.845
X125.512Y-71.211
X125.527Y-40.234
X125.654Y-60.467
X125.811Y-77.13
X126.274Y-76.347
X126.294Y-63.673
X126.324Y-60.747
X126.36Y-80.467
X126.886Y-84.48
X126.919Y-63.414
X126.975Y-80.086
X126.98Y-64.872
X127.071Y-59.878
X127.081Y-60.884
X127.411Y-102.21
X127.605Y-67.874
X127.615Y-63.439
X127.615Y-67.127
X127.62Y-64.374
X127.63Y-59.38
X127.63Y-60.376
X127.63Y-66.365
X128.1Y-102.306
X128.565Y-56.926
X128.763Y-102.245
X129.184Y-57.16
X129.189Y-84.648
X129.845Y-84.628
X130.302Y-67.376
X130.505Y-84.635
X130.614Y-72.459
X130.962Y-75.489
X131.125Y-85.298
X131.161Y-84.633
X131.496Y-74.371
X131.724Y-50.19
X131.803Y-85.222
X131.953Y-70.485
X132.273Y-57.917
X132.41Y-85.829
X132.456Y-85.176
X132.461Y-58.877
X133.035Y-86.441
X133.071Y-85.786
X133.274Y-53.975
X133.286Y-75.428
X133.69Y-86.393
X133.777Y-52.593
X134.247Y-53.711
X134.772Y-54.841
X135.27Y-52.852
X135.331Y-86.157
X135.768Y-53.99
X136.268Y-53.203
X136.5Y-76.855
X136.743Y-85.903
X136.756Y-52.715
X137.262Y-75.987
X137.328Y-86.954
X137.363Y-102.87
X137.475Y-85.806
X137.81Y-76.545
X138.085Y-87.427
X138.128Y-86.766
X138.242Y-75.992
X138.684Y-88.067
X138.76Y-87.371
X139.243Y-67.361
X139.319Y-77.025
X139.349Y-88.016
X139.73Y-49.997
X139.979Y-88.595
X140.03Y-87.94
X140.35Y-49.769
X140.64Y-89.162
X140.67Y-88.511
X141.366Y-49.56
X141.529Y-80.213
X141.6Y-103.075
X141.605Y-88.824
X141.976Y-49.306
X142.265Y-88.862
X142.687Y-49.129
X143.22Y-48.671
X143.713Y-75.54
X144.221Y-58.852
X144.282Y-81.133
X144.775Y-103.525
X144.78Y-58.42
X145.232Y-47.722
X145.252Y-80.65
X145.263Y-58.948
X145.43Y-102.565
X145.771Y-58.517
X146.268Y-80.066
X146.761Y-58.308
X147.381Y-58.09
X147.716Y-59.4
X148.011Y-57.892
X148.107Y-102.514
X148.209Y-60.376
X148.351Y-66.97
X148.717Y-74.397
X148.793Y-102.514
X148.946Y-80.112
X149.809Y-102.768
X150.495Y-101.6
X151.13Y-102.362
X151.765Y-101.6
X152.151Y-62.387
X152.156Y-59.385
X152.156Y-63.881
X152.156Y-64.872
X152.166Y-65.877
X152.171Y-60.376
X152.171Y-61.382
X152.171Y-66.883
X152.349Y-71.882
X152.349Y-72.873
X152.349Y-73.873
X152.354Y-74.884
X152.364Y-75.875
X152.4Y-102.362
X152.608Y-62.88
X152.613Y-64.374
X152.624Y-65.375
X152.629Y-59.878
X152.629Y-60.884
X152.629Y-61.874
X152.629Y-66.365
X152.629Y-67.361
X152.883Y-73.381
X152.888Y-74.366
X152.898Y-75.377
X152.908Y-72.39
X153.035Y-101.473
X153.797Y-102.235
X154.076Y-44.27
X154.432Y-101.6
X154.445Y-79.045
X154.879Y-79.553
X155.042Y-48.26
X155.042Y-102.286
X155.245Y-46.584
X155.308Y-79.045
X155.74Y-79.553
X155.804Y-72.873
X156.261Y-72.39
X156.279Y-43.038
X156.538Y-43.762
X156.812Y-44.371
X159.118Y-73.876
X159.723Y-62.408
X160.106Y-71.958
X160.274Y-76.556
X160.294Y-43.249
X160.904Y-102.26
X161.493Y-101.6
X161.544Y-80.188
X162.179Y-80.62
X162.204Y-102.286
X162.855Y-101.549
X162.865Y-81.077
X163.398Y-62.489
X163.411Y-64.488
X163.413Y-65.486
X163.419Y-63.49
X163.424Y-67.986
X163.426Y-66.987
X163.429Y-68.986
X163.441Y-69.99
X163.444Y-54.366
X163.474Y-60.363
X163.49Y-53.289
X163.49Y-81.534
X163.505Y-102.26
X163.54Y-41.747
X163.556Y-71.958
X163.868Y-62.979
X163.871Y-68.504
X163.876Y-63.97
X163.876Y-64.999
X163.881Y-67.488
X163.883Y-65.989
X163.906Y-69.494
X163.906Y-70.485
X163.929Y-72.502
X164.155Y-101.524
X164.175Y-82.032
X164.805Y-102.235
X164.821Y-82.489
X165.456Y-101.6
X165.461Y-82.926
X166.075Y-83.652
X166.761Y-73.858
X167.416Y-74.376
X167.815Y-53.934
X167.869Y-73.861
X167.922Y-61.943
X168.151Y-62.979
X168.341Y-63.988
X168.544Y-64.999
X168.753Y-65.989
X168.953Y-67.483
X169.164Y-68.489
X169.372Y-69.494
X169.481Y-53.823
X169.586Y-70.495
X169.682Y-64.927
X170.124Y-62.454
X171.069Y-69.334
X171.069Y-102.87
X171.399Y-71.323
X171.521Y-96.368
X171.704Y-101.981
X171.892Y-73.136
X171.907Y-76.606
X172.283Y-59.888
X172.283Y-62.581
X172.303Y-66.279
X172.339Y-102.997
X172.75Y-72.06
X172.847Y-101.854
X173.104Y-69.334
X173.406Y-59.449
X173.609Y-102.997
X173.995Y-71.984
X174.371Y-101.6
X174.384Y-65.502
X174.44Y-71.488
X174.808Y-70.942
X175.006Y-102.362
X175.468Y-70.98
X175.544Y-70.333
X175.641Y-101.473
X175.875Y-65.494
X176.205Y-70.371
X176.637Y-72.939
X177.15Y-69.779
X177.221Y-70.472
X177.648Y-75.87
X177.759Y-64.516
X177.792Y-62.001
X178.003Y-66.142
X178.018Y-65.263
X178.095Y-75.372
X178.125Y-68.313
X178.133Y-63.978
X178.26Y-62.842
X178.272Y-67.33
X178.427Y-62.205
X178.595Y-63.426
X178.643Y-67.879
X178.674Y-68.707
X178.925Y-67.145
X179.512Y-67.955
X179.672Y-70.043
X179.771Y-47.742
X180.289Y-46.228
X180.289Y-48.209
X180.696Y-72.542
X180.965Y-74.874
X181.224Y-102.235
X181.874Y-101.854
X182.499Y-102.255
X182.87Y-73.878
X183.063Y-53.823
X183.175Y-101.844
X183.312Y-80.188
X183.49Y-73.406
X183.566Y-59.436
X183.632Y-46.264
X183.632Y-48.255
X183.652Y-42.245
X183.652Y-43.241
X183.652Y-44.257
X183.652Y-45.253
X183.652Y-49.251
X183.667Y-50.246
X183.688Y-51.242
X183.693Y-52.273
X183.706Y-67.488
X183.706Y-68.478
X183.706Y-69.482
X183.706Y-70.485
X183.706Y-71.488
X183.718Y-53.228
X183.825Y-102.271
X184.252Y-80.62
X184.272Y-41.747
X184.292Y-42.743
X184.292Y-44.755
X184.292Y-47.742
X184.307Y-43.759
X184.307Y-45.75
X184.307Y-49.748
X184.328Y-50.744
X184.353Y-51.74
X184.366Y-68.986
X184.366Y-69.99
X184.366Y-70.993
X184.366Y-71.984
X184.368Y-52.771
X184.374Y-73.066
X184.379Y-67.983
X184.475Y-101.854
X185.11Y-102.271
X185.141Y-81.026
X185.776Y-101.844
X186.045Y-81.575
X187.071Y-82.032
X188.026Y-82.489
X188.986Y-82.87
X190.048Y-83.541
X196.002Y-40.828
X196.505Y-60.457
X196.51Y-61.544
X197.267Y-62.499
X197.673Y-71.643
X197.808Y-63.002
X197.815Y-60.498
X197.841Y-41.27
X197.947Y-53.823
X201.112Y-69.996
X201.127Y-68.995
X201.13Y-63.5
X201.138Y-64.503
X201.138Y-65.509
X201.138Y-66.996
X201.138Y-67.995
X201.214Y-71.674
X201.625Y-70.493
X201.63Y-67.493
X201.63Y-69.494
X201.635Y-68.499
X201.64Y-64.997
X201.64Y-65.998
X201.644Y-63.999
X201.808Y-72.217
X203.408Y-70.5
X204.414Y-69.494
X205.268Y-62.126
X205.466Y-68.499
X205.501Y-63.002
X205.501Y-65.997
X205.511Y-64.981
X205.524Y-63.998
X205.72Y-67.493
X206.177Y-60.559
X207.698Y-62.301
X208.336Y-73.32
X208.473Y-59.883
X208.94Y-62.464
X209.245Y-66.091
X209.245Y-68.123
X209.626Y-72.106
X209.763Y-59.426
X210.932Y-72.106
X211.125Y-60.198
X211.188Y-65.529
X211.242Y-71.526
X211.988Y-71.018
X212.004Y-71.679
X212.654Y-71.074
X212.689Y-65.522
X212.745Y-70.429
X212.806Y-72.969
X214.145Y-70.493
X214.701Y-64.531
X214.701Y-65.288
X214.732Y-66.751
X214.854Y-61.417
X214.884Y-67.666
X214.892Y-63.884
X214.93Y-62.995
X215.392Y-67.208
X215.392Y-68.123
X215.428Y-63.449
X215.443Y-61.702
X216.126Y-68.45
X216.332Y-69.357
X216.332Y-70.231
X216.769Y-74.884
X216.901Y-46.248
X216.916Y-43.261
X216.916Y-44.257
X216.916Y-45.253
X216.936Y-42.266
X216.936Y-49.251
X216.936Y-50.246
X216.936Y-51.262
X216.941Y-52.248
X216.941Y-53.264
X216.952Y-47.742
X217.272Y-74.351
X217.282Y-69.352
X217.399Y-51.765
X217.399Y-52.73
X217.414Y-50.744
X217.434Y-45.75
X217.434Y-49.748
X217.449Y-42.763
X217.449Y-43.759
X217.449Y-44.755
X217.449Y-48.255
X217.485Y-41.747
X217.825Y-66.497
X218.034Y-72.542
X220.919Y-67.996
X220.924Y-68.997
X220.934Y-69.997
X220.939Y-70.998
X220.944Y-71.994
X221.402Y-71.496
X221.407Y-70.495
X221.412Y-68.494
X221.412Y-69.494
X221.417Y-67.498
T2
X34.061Y-61.544
X44.232Y-107.706
X44.965Y-73.558
X46.619Y-72.614
X48.384Y-69.38
X49.812Y-97.224
X50.099Y-75.588
X53.386Y-95.677
X53.856Y-82.001
X53.858Y-85.534
X54.694Y-73.553
X56.098Y-101.316
X57.401Y-66.764
X59.284Y-93.665
X59.868Y-73.025
X77.953Y-100.515
X78.753Y-96.652
X80.62Y-75.59
X81.686Y-79.35
X81.737Y-60.3
X81.737Y-71.323
X81.788Y-62.687
X89.916Y-71.222
X94.234Y-75.844
X94.437Y-65.532
X100.533Y-61.773
X101.605Y-65.258
X101.648Y-72.845
X102.565Y-77.023
X103.327Y-66.599
X107.315Y-56.431
X107.638Y-104.78
X112.674Y-66.497
X114.935Y-115.849
X115.062Y-61.011
X115.926Y-48.158
X116.738Y-92.862
X116.84Y-66.243
X123.647Y-92.862
X124.562Y-66.142
X126.187Y-55.677
X127.102Y-45.669
X127.508Y-55.677
X127.536Y-41.239
X127.813Y-82.906
X128.88Y-79.197
X129.794Y-53.797
X130.36Y-41.239
X130.632Y-44.704
X131.041Y-76.832
X132.497Y-55.082
X132.977Y-67.351
X133.721Y-76.832
X135.331Y-44.78
X140.03Y-55.128
X140.406Y-76.947
X141.478Y-52.172
X142.489Y-33.188
X145.847Y-53.696
X146.304Y-63.398
X148.763Y-55.001
X149.347Y-68.377
X149.39Y-34.099
X149.451Y-63.376
X149.527Y-70.782
X151.277Y-77.61
X151.536Y-50.597
X151.587Y-92.1
X152.375Y-42.708
X152.397Y-49.103
X152.74Y-79.301
X154.579Y-40.467
X154.584Y-68.174
X157.429Y-50.597
X158.191Y-49.103
X158.229Y-102.603
X159.664Y-50.546
X159.995Y-66.586
X160.071Y-70.714
X160.274Y-92.1
X164.236Y-43.485
X167.45Y-43.47
X168.605Y-102.349
X169.659Y-50.444
X171.094Y-92.456
X178.816Y-102.235
X180.594Y-57.556
X181.458Y-92.456
X184.389Y-66.49
X188.138Y-102.667
X190.5Y-98.501
X191.455Y-50.566
X192.54Y-61.181
X192.557Y-58.212
X195.237Y-60.66
X196.024Y-39.685
X196.07Y-71.46
X196.489Y-58.224
X196.949Y-50.744
X197.442Y-66.49
X197.67Y-76.448
X206.187Y-58.1
X206.692Y-65.471
X209.733Y-70.693
X210.106Y-50.46
X210.922Y-108.763
X218.846Y-89.687
T3
X37.345Y-52.65
X37.345Y-55.19
X37.345Y-57.73
X37.345Y-60.27
X37.345Y-62.81
X37.345Y-65.35
X37.345Y-67.89
X37.345Y-70.43
X37.345Y-72.97
X37.345Y-75.51
X37.345Y-78.05
X37.345Y-80.59
X37.345Y-83.13
X39.885Y-52.65
X39.885Y-55.19
X39.885Y-57.73
X39.885Y-60.27
X39.885Y-62.81
X39.885Y-65.35
X39.885Y-67.89
X39.885Y-70.43
X39.885Y-72.97
X39.885Y-75.51
X39.885Y-78.05
X39.885Y-80.59
X39.885Y-83.13
X42.425Y-52.65
X42.425Y-55.19
X42.425Y-57.73
X42.425Y-60.27
X42.425Y-62.81
X42.425Y-65.35
X42.425Y-67.89
X42.425Y-70.43
X42.425Y-72.97
X42.425Y-75.51
X42.425Y-78.05
X42.425Y-80.59
X42.425Y-83.13
X44.965Y-52.65
X44.965Y-55.19
X44.965Y-57.73
X44.965Y-60.27
X44.965Y-70.43
X44.965Y-75.51
X44.965Y-78.05
X44.965Y-80.59
X44.965Y-83.13
X47.505Y-52.65
X47.505Y-55.19
X47.505Y-57.73
X47.505Y-78.05
X47.505Y-80.59
X47.505Y-83.13
X50.045Y-52.65
X50.045Y-55.19
X50.045Y-57.73
X50.045Y-78.05
X50.045Y-80.59
X50.045Y-83.13
X52.585Y-52.65
X52.585Y-55.19
X52.585Y-57.73
X52.585Y-78.05
X52.585Y-80.59
X52.585Y-83.13
X55.125Y-52.65
X55.125Y-55.19
X55.125Y-57.73
X55.125Y-78.05
X55.125Y-80.59
X55.125Y-83.13
X57.665Y-52.65
X57.665Y-55.19
X57.665Y-57.73
X57.665Y-60.27
X57.665Y-75.51
X57.665Y-78.05
X57.665Y-80.59
X57.665Y-83.13
X60.205Y-52.65
X60.205Y-55.19
X60.205Y-57.73
X60.205Y-60.27
X60.205Y-70.43
X60.205Y-75.51
X60.205Y-78.05
X60.205Y-80.59
X60.205Y-83.13
X62.745Y-52.65
X62.745Y-55.19
X62.745Y-57.73
X62.745Y-60.27
X62.745Y-62.81
X62.745Y-65.35
X62.745Y-67.89
X62.745Y-70.43
X62.745Y-72.97
X62.745Y-75.51
X62.745Y-78.05
X62.745Y-80.59
X62.745Y-83.13
X65.285Y-52.65
X65.285Y-55.19
X65.285Y-57.73
X65.285Y-60.27
X65.285Y-62.81
X65.285Y-65.35
X65.285Y-67.89
X65.285Y-70.43
X65.285Y-72.97
X65.285Y-75.51
X65.285Y-78.05
X65.285Y-80.59
X65.285Y-83.13
X67.825Y-52.65
X67.825Y-55.19
X67.825Y-57.73
X67.825Y-60.27
X67.825Y-62.81
X67.825Y-65.35
X67.825Y-67.89
X67.825Y-70.43
X67.825Y-72.97
X67.825Y-75.51
X67.825Y-78.05
X67.825Y-80.59
X67.825Y-83.13
T4
X64.135Y-107.061
X64.135Y-110.871
X65.405Y-108.966
X65.405Y-112.776
X66.675Y-107.061
X66.675Y-110.871
X67.945Y-108.966
X67.945Y-112.776
X69.215Y-107.061
X69.215Y-110.871
X70.485Y-108.966
X70.485Y-112.776
X71.755Y-107.061
X71.755Y-110.871
X73.025Y-108.966
X73.025Y-112.776
X74.295Y-107.061
X74.295Y-110.871
X75.565Y-108.966
X75.565Y-112.776
X76.835Y-107.061
X76.835Y-110.871
X78.105Y-108.966
X78.105Y-112.776
X79.375Y-107.061
X79.375Y-110.871
X80.645Y-108.966
X80.645Y-112.776
X81.915Y-107.061
X81.915Y-110.871
X83.185Y-108.966
X83.185Y-112.776
X84.455Y-107.061
X84.455Y-110.871
X85.725Y-108.966
X85.725Y-112.776
X86.995Y-107.061
X86.995Y-110.871
X88.265Y-108.966
X88.265Y-112.776
X89.535Y-107.061
X89.535Y-110.871
X90.805Y-108.966
X90.805Y-112.776
X92.075Y-107.061
X92.075Y-110.871
X93.345Y-108.966
X93.345Y-112.776
X94.615Y-107.061
X94.615Y-110.871
X95.885Y-108.966
X95.885Y-112.776
X97.155Y-107.061
X97.155Y-110.871
X98.425Y-108.966
X98.425Y-112.776
X99.695Y-107.061
X99.695Y-110.871
X100.965Y-108.966
X100.965Y-112.776
X102.235Y-107.061
X102.235Y-110.871
X103.505Y-108.966
X103.505Y-112.776
X104.775Y-107.061
X104.775Y-110.871
X106.045Y-108.966
X106.045Y-112.776
X107.315Y-107.061
X107.315Y-110.871
X108.585Y-108.966
X108.585Y-112.776
X109.855Y-107.061
X109.855Y-110.871
X111.125Y-108.966
X111.125Y-112.776
X112.395Y-107.061
X112.395Y-110.871
X113.665Y-108.966
X113.665Y-112.776
X114.935Y-107.061
X114.935Y-110.871
X116.205Y-108.966
X116.205Y-112.776
X117.475Y-107.061
X117.475Y-110.871
X118.745Y-108.966
X118.745Y-112.776
X120.015Y-107.061
X120.015Y-110.871
X121.285Y-108.966
X121.285Y-112.776
X122.555Y-107.061
X122.555Y-110.871
X123.825Y-108.966
X123.825Y-112.776
X125.095Y-107.061
X125.095Y-110.871
X126.365Y-108.966
X126.365Y-112.776
X130.175Y-107.061
X130.175Y-110.871
X131.445Y-108.966
X131.445Y-112.776
X132.715Y-107.061
X132.715Y-110.871
X133.985Y-108.966
X133.985Y-112.776
X135.255Y-107.061
X135.255Y-110.871
X136.525Y-108.966
X136.525Y-112.776
X137.795Y-107.061
X137.795Y-110.871
X139.065Y-108.966
X139.065Y-112.776
X140.335Y-107.061
X140.335Y-110.871
X141.605Y-108.966
X141.605Y-112.776
X142.875Y-107.061
X142.875Y-110.871
X144.145Y-108.966
X144.145Y-112.776
X145.415Y-107.061
X145.415Y-110.871
X146.685Y-108.966
X146.685Y-112.776
X147.955Y-107.061
X147.955Y-110.871
X149.225Y-108.966
X149.225Y-112.776
X150.495Y-107.061
X150.495Y-110.871
X151.765Y-108.966
X151.765Y-112.776
X153.035Y-107.061
X153.035Y-110.871
X154.305Y-108.966
X154.305Y-112.776
X155.575Y-107.061
X155.575Y-110.871
X156.845Y-108.966
X156.845Y-112.776
X158.115Y-107.061
X158.115Y-110.871
X159.385Y-108.966
X159.385Y-112.776
X160.655Y-107.061
X160.655Y-110.871
X161.925Y-108.966
X161.925Y-112.776
X163.195Y-107.061
X163.195Y-110.871
X164.465Y-108.966
X164.465Y-112.776
X165.735Y-107.061
X165.735Y-110.871
X167.005Y-108.966
X167.005Y-112.776
X168.275Y-107.061
X168.275Y-110.871
X169.545Y-108.966
X169.545Y-112.776
X170.815Y-107.061
X170.815Y-110.871
X172.085Y-108.966
X172.085Y-112.776
X173.355Y-107.061
X173.355Y-110.871
X174.625Y-108.966
X174.625Y-112.776
X175.895Y-107.061
X175.895Y-110.871
X177.165Y-108.966
X177.165Y-112.776
X178.435Y-107.061
X178.435Y-110.871
X179.705Y-108.966
X179.705Y-112.776
X180.975Y-107.061
X180.975Y-110.871
X182.245Y-108.966
X182.245Y-112.776
X183.515Y-107.061
X183.515Y-110.871
X184.785Y-108.966
X184.785Y-112.776
X186.055Y-107.061
X186.055Y-110.871
X187.325Y-108.966
X187.325Y-112.776
X188.595Y-107.061
X188.595Y-110.871
X189.865Y-108.966
X189.865Y-112.776
X191.135Y-107.061
X191.135Y-110.871
X192.405Y-108.966
X192.405Y-112.776
T5
X132.563Y-39.395
X132.563Y-47.015
X135.103Y-39.395
X135.103Y-47.015
X137.643Y-39.395
X137.643Y-47.015
X140.183Y-39.395
X140.183Y-47.015
T6
X108.585Y-30.48
X111.125Y-30.48
X113.665Y-30.48
X116.205Y-30.48
X123.139Y-30.531
X123.139Y-33.071
X123.139Y-35.611
X125.679Y-30.531
X125.679Y-33.071
X125.679Y-35.611
X128.219Y-30.531
X128.219Y-33.071
X128.219Y-35.611
X130.759Y-30.531
X130.759Y-33.071
X130.759Y-35.611
X133.325Y-30.531
X133.325Y-33.071
X133.325Y-35.611
X135.839Y-30.531
X135.839Y-33.071
X142.626Y-30.51
X145.166Y-30.51
X147.706Y-30.51
X150.246Y-30.51
X152.786Y-30.51
X155.326Y-30.51
T7
X60.96Y-109.855
X195.58Y-109.855
T8
X42.512Y-101.417
X42.601Y-36.005
X207.51Y-36.307
X207.51Y-101.417
T0
M30
