G04 (created by PCBNEW (2013-07-07 BZR 4022)-stable) date 2015-08-26 18:09:03*
%MOIN*%
G04 Gerber Fmt 3.4, Leading zero omitted, Abs format*
%FSLAX34Y34*%
G01*
G70*
G90*
G04 APERTURE LIST*
%ADD10C,0.00590551*%
%ADD11C,0.055*%
%ADD12R,0.055X0.055*%
%ADD13R,0.045X0.025*%
%ADD14R,0.025X0.045*%
%ADD15R,0.06X0.06*%
%ADD16C,0.06*%
%ADD17R,0.0768X0.0984*%
%ADD18C,0.0472441*%
%ADD19R,0.0472441X0.0472441*%
%ADD20C,0.11811*%
%ADD21R,0.0161X0.0402*%
%ADD22C,0.28189*%
%ADD23R,0.11X0.07*%
%ADD24R,0.07X0.11*%
G04 APERTURE END LIST*
G54D10*
G54D11*
X26702Y-20728D03*
X25702Y-20728D03*
X24702Y-20728D03*
X26702Y-21728D03*
X25702Y-21728D03*
X24702Y-21728D03*
X26702Y-22728D03*
X25702Y-22728D03*
X24702Y-22728D03*
X26702Y-23728D03*
X25702Y-23728D03*
X24702Y-23728D03*
X26702Y-24728D03*
X25702Y-24728D03*
X24702Y-24728D03*
X26702Y-25728D03*
X25702Y-25728D03*
X24702Y-25728D03*
X26702Y-26728D03*
X25702Y-26728D03*
X24702Y-26728D03*
X26702Y-27728D03*
X25702Y-27728D03*
X24702Y-27728D03*
X26702Y-28728D03*
X25702Y-28728D03*
X24702Y-28728D03*
X26702Y-29728D03*
X25702Y-29728D03*
X24702Y-29728D03*
X26702Y-30728D03*
X25702Y-30728D03*
X24702Y-30728D03*
X23702Y-30728D03*
X22702Y-30728D03*
X21702Y-30728D03*
X20702Y-30728D03*
X19702Y-30728D03*
X18702Y-30728D03*
X17702Y-30728D03*
X16702Y-30728D03*
X15702Y-30728D03*
X14702Y-30728D03*
X26702Y-31728D03*
X25702Y-31728D03*
X24702Y-31728D03*
X23702Y-31728D03*
X22702Y-31728D03*
X21702Y-31728D03*
X20702Y-31728D03*
X19702Y-31728D03*
X18702Y-31728D03*
X17702Y-31728D03*
X16702Y-31728D03*
X15702Y-31728D03*
X14702Y-31728D03*
G54D12*
X26702Y-32728D03*
G54D11*
X25702Y-32728D03*
X24702Y-32728D03*
X23702Y-32728D03*
X22702Y-32728D03*
X21702Y-32728D03*
X20702Y-32728D03*
X19702Y-32728D03*
X18702Y-32728D03*
X17702Y-32728D03*
X16702Y-32728D03*
X15702Y-32728D03*
X14702Y-32728D03*
X23702Y-20728D03*
X22702Y-20728D03*
X21702Y-20728D03*
X20702Y-20728D03*
X19702Y-20728D03*
X18702Y-20728D03*
X17702Y-20728D03*
X16702Y-20728D03*
X15702Y-20728D03*
X14702Y-20728D03*
X23702Y-21728D03*
X22702Y-21728D03*
X21702Y-21728D03*
X20702Y-21728D03*
X19702Y-21728D03*
X18702Y-21728D03*
X17702Y-21728D03*
X16702Y-21728D03*
X15702Y-21728D03*
X14702Y-21728D03*
X23702Y-22728D03*
X22702Y-22728D03*
X21702Y-22728D03*
X20702Y-22728D03*
X19702Y-22728D03*
X18702Y-22728D03*
X17702Y-22728D03*
X16702Y-22728D03*
X15702Y-22728D03*
X14702Y-22728D03*
X16702Y-23728D03*
X15702Y-23728D03*
X14702Y-23728D03*
X16702Y-24728D03*
X15702Y-24728D03*
X14702Y-24728D03*
X16702Y-25728D03*
X15702Y-25728D03*
X14702Y-25728D03*
X16702Y-26728D03*
X15702Y-26728D03*
X14702Y-26728D03*
X16702Y-27728D03*
X15702Y-27728D03*
X14702Y-27728D03*
X16702Y-28728D03*
X15702Y-28728D03*
X14702Y-28728D03*
X16702Y-29728D03*
X15702Y-29728D03*
X14702Y-29728D03*
X23702Y-29728D03*
X23702Y-23728D03*
X17702Y-23728D03*
X17702Y-29728D03*
X22702Y-29728D03*
X22702Y-23728D03*
X23702Y-27728D03*
X17702Y-27728D03*
G54D13*
X78503Y-26126D03*
X78503Y-25526D03*
X63580Y-26120D03*
X63580Y-25520D03*
G54D14*
X42231Y-21417D03*
X41631Y-21417D03*
G54D15*
X42750Y-12000D03*
G54D16*
X43750Y-12000D03*
X44750Y-12000D03*
X45750Y-12000D03*
G54D15*
X48480Y-14020D03*
G54D16*
X48480Y-13020D03*
X48480Y-12020D03*
G54D15*
X49480Y-14020D03*
G54D16*
X49480Y-13020D03*
X49480Y-12020D03*
G54D15*
X50480Y-14020D03*
G54D16*
X50480Y-13020D03*
X50480Y-12020D03*
G54D15*
X53480Y-12020D03*
G54D16*
X53480Y-13020D03*
G54D15*
X61152Y-12012D03*
G54D16*
X60152Y-12012D03*
X59152Y-12012D03*
X58152Y-12012D03*
X57152Y-12012D03*
X56152Y-12012D03*
G54D12*
X55190Y-15510D03*
G54D11*
X54190Y-15510D03*
X53190Y-15510D03*
X52190Y-15510D03*
X52190Y-18510D03*
X53190Y-18510D03*
X54190Y-18510D03*
X55190Y-18510D03*
G54D17*
X39520Y-30280D03*
X38320Y-30280D03*
G54D15*
X51480Y-14020D03*
G54D16*
X51480Y-13020D03*
X51480Y-12020D03*
G54D15*
X52490Y-14020D03*
G54D16*
X52490Y-13020D03*
X52490Y-12020D03*
G54D18*
X51750Y-44400D03*
X51750Y-42900D03*
X51250Y-43650D03*
X51250Y-42150D03*
X52250Y-42150D03*
X52250Y-43650D03*
X52750Y-42900D03*
X52750Y-44400D03*
X54750Y-44400D03*
X54750Y-42900D03*
X54250Y-43650D03*
X54250Y-42150D03*
X53250Y-42150D03*
X53250Y-43650D03*
X53750Y-42900D03*
X53750Y-44400D03*
X57750Y-44400D03*
X57750Y-42900D03*
X57250Y-43650D03*
X57250Y-42150D03*
X58250Y-42150D03*
X58250Y-43650D03*
X58750Y-42900D03*
X58750Y-44400D03*
X56750Y-44400D03*
X56750Y-42900D03*
X56250Y-43650D03*
X56250Y-42150D03*
X55250Y-42150D03*
X55250Y-43650D03*
X55750Y-42900D03*
X55750Y-44400D03*
X63750Y-44400D03*
X63750Y-42900D03*
X63250Y-43650D03*
X63250Y-42150D03*
X64250Y-42150D03*
X64250Y-43650D03*
X64750Y-42900D03*
X64750Y-44400D03*
X66750Y-44400D03*
X66750Y-42900D03*
X66250Y-43650D03*
X66250Y-42150D03*
X65250Y-42150D03*
X65250Y-43650D03*
X65750Y-42900D03*
X65750Y-44400D03*
X61750Y-44400D03*
X61750Y-42900D03*
X61250Y-43650D03*
X61250Y-42150D03*
X62250Y-42150D03*
X62250Y-43650D03*
X62750Y-42900D03*
X62750Y-44400D03*
X60750Y-44400D03*
X60750Y-42900D03*
X60250Y-43650D03*
X60250Y-42150D03*
X59250Y-42150D03*
X59250Y-43650D03*
X59750Y-42900D03*
X59750Y-44400D03*
X68750Y-44400D03*
X68750Y-42900D03*
X68250Y-43650D03*
X68250Y-42150D03*
X69250Y-42150D03*
X69250Y-43650D03*
X69750Y-42900D03*
X69750Y-44400D03*
X71750Y-44400D03*
X71750Y-42900D03*
X71250Y-43650D03*
X71250Y-42150D03*
X70250Y-42150D03*
X70250Y-43650D03*
X70750Y-42900D03*
X70750Y-44400D03*
X74750Y-44400D03*
X74750Y-42900D03*
X74250Y-43650D03*
X74250Y-42150D03*
X75250Y-42150D03*
X75250Y-43650D03*
X75750Y-42900D03*
X75750Y-44400D03*
X73750Y-44400D03*
X73750Y-42900D03*
X73250Y-43650D03*
X73250Y-42150D03*
X72250Y-42150D03*
X72250Y-43650D03*
X72750Y-42900D03*
X72750Y-44400D03*
X67750Y-44400D03*
X67750Y-42900D03*
X67250Y-43650D03*
X67250Y-42150D03*
X41250Y-42150D03*
X41250Y-43650D03*
X41750Y-42900D03*
X41750Y-44400D03*
X46750Y-44400D03*
X46750Y-42900D03*
X46250Y-43650D03*
X46250Y-42150D03*
X47250Y-42150D03*
X47250Y-43650D03*
X47750Y-42900D03*
X47750Y-44400D03*
X49750Y-44400D03*
X49750Y-42900D03*
X49250Y-43650D03*
X49250Y-42150D03*
X48250Y-42150D03*
X48250Y-43650D03*
X48750Y-42900D03*
X48750Y-44400D03*
X44750Y-44400D03*
X44750Y-42900D03*
X44250Y-43650D03*
X44250Y-42150D03*
X45250Y-42150D03*
X45250Y-43650D03*
X45750Y-42900D03*
X45750Y-44400D03*
X43750Y-44400D03*
X43750Y-42900D03*
X43250Y-43650D03*
X43250Y-42150D03*
X42250Y-42150D03*
X42250Y-43650D03*
X42750Y-42900D03*
X42750Y-44400D03*
X33750Y-44400D03*
X33750Y-42900D03*
X33250Y-43650D03*
X33250Y-42150D03*
X34250Y-42150D03*
X34250Y-43650D03*
X34750Y-42900D03*
X34750Y-44400D03*
X36750Y-44400D03*
X36750Y-42900D03*
X36250Y-43650D03*
X36250Y-42150D03*
X35250Y-42150D03*
X35250Y-43650D03*
X35750Y-42900D03*
X35750Y-44400D03*
X39750Y-44400D03*
X39750Y-42900D03*
X39250Y-43650D03*
X39250Y-42150D03*
X40250Y-42150D03*
X40250Y-43650D03*
X40750Y-42900D03*
X40750Y-44400D03*
X38750Y-44400D03*
X38750Y-42900D03*
X38250Y-43650D03*
X38250Y-42150D03*
X37250Y-42150D03*
X37250Y-43650D03*
X37750Y-42900D03*
X37750Y-44400D03*
X29750Y-44400D03*
X29750Y-42900D03*
X29250Y-43650D03*
X29250Y-42150D03*
X30250Y-42150D03*
X30250Y-43650D03*
X30750Y-42900D03*
X30750Y-44400D03*
X32750Y-44400D03*
X32750Y-42900D03*
X32250Y-43650D03*
X32250Y-42150D03*
X31250Y-42150D03*
X31250Y-43650D03*
X31750Y-42900D03*
X31750Y-44400D03*
X27750Y-44400D03*
X27750Y-42900D03*
X27250Y-43650D03*
X27250Y-42150D03*
X28250Y-42150D03*
X28250Y-43650D03*
X28750Y-42900D03*
X28750Y-44400D03*
X26750Y-44400D03*
X26750Y-42900D03*
X26250Y-43650D03*
X26250Y-42150D03*
X25250Y-42150D03*
X25250Y-43650D03*
G54D19*
X25750Y-42900D03*
G54D18*
X25750Y-44400D03*
G54D20*
X77000Y-43250D03*
X24000Y-43250D03*
G54D13*
X39424Y-26291D03*
X39424Y-25691D03*
X58968Y-30498D03*
X58968Y-31098D03*
G54D14*
X52649Y-30870D03*
X52049Y-30870D03*
G54D21*
X38016Y-24454D03*
X38272Y-24454D03*
X38528Y-24454D03*
X38784Y-24454D03*
X38784Y-26266D03*
X38528Y-26266D03*
X38272Y-26266D03*
X38016Y-26266D03*
G54D22*
X81697Y-39928D03*
X81697Y-14294D03*
X16772Y-14175D03*
X16737Y-39928D03*
G54D23*
X62545Y-32235D03*
X62545Y-30835D03*
G54D24*
X58825Y-14895D03*
X57425Y-14895D03*
M02*
